M48
; DRILL file {KiCad (5.1.5)-2} date 3/10/2020 8:30:55 PM
; FORMAT={-:-/ absolute / inch / decimal}
; #@! TF.CreationDate,2020-03-10T20:30:55-07:00
; #@! TF.GenerationSoftware,Kicad,Pcbnew,(5.1.5)-2
FMAT,2
INCH
T1C0.0079
T2C0.0120
T3C0.0150
T4C0.0181
T5C0.0200
T6C0.0250
T7C0.0354
T8C0.0394
T9C0.0420
T10C0.0620
T11C0.0700
T12C0.1260
T13C0.1260
T14C0.1560
%
G90
G05
T1
X3.2863Y2.5087
X3.2863Y2.4694
X3.2863Y2.43
X3.2863Y2.3906
X3.2863Y2.3513
X3.3256Y2.5087
X3.3256Y2.4694
X3.3256Y2.43
X3.3256Y2.3906
X3.3256Y2.3513
X3.365Y2.5087
X3.365Y2.4694
X3.365Y2.43
X3.365Y2.3906
X3.365Y2.3513
X3.4044Y2.5087
X3.4044Y2.4694
X3.4044Y2.43
X3.4044Y2.3906
X3.4044Y2.3513
X3.4437Y2.5087
X3.4437Y2.4694
X3.4437Y2.43
X3.4437Y2.3906
X3.4437Y2.3513
T2
X3.215Y2.814
X3.215Y2.786
T3
X0.07Y3.78
X0.07Y3.725
X0.07Y3.67
X0.07Y3.62
X0.07Y3.57
X0.07Y3.52
X0.07Y3.47
X0.07Y3.42
X0.07Y3.37
X0.07Y3.32
X0.07Y3.27
X0.07Y3.22
X0.07Y3.17
X0.07Y3.12
X0.07Y3.07
X0.07Y3.02
X0.07Y2.97
X0.07Y2.92
X0.07Y2.87
X0.07Y2.82
X0.07Y2.77
X0.07Y2.72
X0.07Y2.67
X0.07Y2.62
X0.07Y2.57
X0.07Y2.52
X0.07Y2.47
X0.07Y2.42
X0.07Y2.37
X0.07Y2.32
X0.07Y2.27
X0.07Y2.22
X0.07Y2.17
X0.07Y2.12
X0.07Y2.07
X0.07Y2.02
X0.07Y1.97
X0.07Y1.92
X0.07Y1.87
X0.07Y1.82
X0.07Y1.77
X0.07Y1.72
X0.07Y1.67
X0.07Y1.62
X0.07Y1.57
X0.07Y1.52
X0.07Y1.47
X0.07Y1.42
X0.07Y1.37
X0.07Y1.32
X0.07Y1.27
X0.07Y1.22
X0.07Y1.17
X0.07Y1.12
X0.07Y1.07
X0.07Y1.02
X0.07Y0.97
X0.07Y0.92
X0.07Y0.87
X0.07Y0.82
X0.07Y0.77
X0.07Y0.72
X0.07Y0.67
X0.07Y0.62
X0.07Y0.57
X0.07Y0.52
X0.07Y0.47
X0.07Y0.42
X0.12Y3.78
X0.12Y0.42
X0.1668Y3.6896
X0.1668Y3.4236
X0.1668Y3.1576
X0.1668Y2.8916
X0.1668Y2.6256
X0.1668Y2.3596
X0.1668Y2.0936
X0.1668Y1.8276
X0.1668Y1.5616
X0.1668Y1.2956
X0.1668Y1.0296
X0.1668Y0.7636
X0.1668Y0.4976
X0.17Y3.78
X0.17Y0.42
X0.22Y3.78
X0.22Y0.42
X0.27Y3.78
X0.3188Y3.5756
X0.3188Y3.3096
X0.3188Y3.0436
X0.3188Y2.7776
X0.3188Y2.4736
X0.3188Y1.6756
X0.3188Y1.4096
X0.3188Y1.1436
X0.3188Y0.8776
X0.32Y3.78
X0.33Y0.59
X0.36Y0.42
X0.37Y3.78
X0.42Y3.95
X0.42Y3.9
X0.42Y3.84
X0.42Y3.78
X0.42Y0.42
X0.42Y0.37
X0.42Y0.32
X0.42Y0.22
X0.42Y0.17
X0.42Y0.12
X0.42Y0.07
X0.4328Y2.6256
X0.44Y3.17
X0.45Y3.4236
X0.47Y0.07
X0.4708Y3.6896
X0.4708Y1.5236
X0.4708Y1.0296
X0.4708Y0.7636
X0.48Y3.95
X0.5088Y1.9796
X0.5088Y0.3836
X0.52Y0.07
X0.53Y3.95
X0.5468Y3.8796
X0.5468Y2.9676
X0.5468Y1.7136
X0.57Y0.07
X0.58Y4.13
X0.58Y4.07
X0.58Y4.01
X0.58Y3.95
X0.5848Y2.5116
X0.5848Y1.1816
X0.5848Y0.6116
X0.62Y0.07
X0.6228Y3.3096
X0.6228Y0.9156
X0.6228Y0.2316
X0.65Y3.5756
X0.6608Y2.8156
X0.6608Y1.4476
X0.67Y0.07
X0.6988Y3.9936
X0.6988Y2.3216
X0.72Y0.07
X0.7368Y0.7636
X0.75Y0.43
X0.77Y0.07
X0.7748Y1.6376
X0.7748Y1.2956
X0.8128Y1.09
X0.8128Y0.1556
X0.82Y2.66
X0.82Y0.07
X0.825Y3.695
X0.825Y2.87
X0.8508Y2.4736
X0.87Y0.07
X0.8888Y2.1696
X0.8888Y1.4856
X0.9Y0.67
X0.92Y0.07
X0.9268Y1.9416
X0.96Y1.1816
X0.9648Y3.4996
X0.9648Y3.2336
X0.9648Y2.9296
X0.9648Y0.4596
X0.97Y0.07
X0.99Y0.25
X1.02Y0.07
X1.03Y3.74
X1.0408Y1.5996
X1.07Y0.07
X1.0788Y2.7776
X1.0788Y2.3216
X1.0788Y2.0556
X1.0788Y1.3716
X1.0788Y1.0296
X1.0788Y0.7636
X1.08Y3.37
X1.1168Y3.0436
X1.12Y0.07
X1.125Y2.45
X1.1548Y0.5356
X1.17Y3.56
X1.17Y0.07
X1.18Y0.1556
X1.21Y3.21
X1.21Y0.65
X1.22Y0.07
X1.23Y3.82
X1.2308Y2.8916
X1.2308Y1.5236
X1.2308Y0.8776
X1.235Y2.45
X1.25Y2.21
X1.25Y2.09
X1.25Y1.14
X1.2688Y0.3836
X1.27Y0.07
X1.3068Y2.0176
X1.3068Y1.7136
X1.3068Y1.3336
X1.32Y2.55
X1.32Y0.07
X1.36Y0.24
X1.37Y0.07
X1.38Y2.74
X1.3828Y0.7636
X1.4Y2.98
X1.42Y0.07
X1.4208Y3.8036
X1.4208Y1.0676
X1.43Y3.1576
X1.45Y3.48
X1.45Y2.55
X1.4588Y2.3976
X1.4588Y1.5996
X1.47Y0.07
X1.49Y1.94
X1.4968Y2.1696
X1.4968Y0.5736
X1.515Y2.3
X1.52Y2.89
X1.52Y0.07
X1.5348Y3.6516
X1.535Y2.45
X1.57Y0.07
X1.58Y2.55
X1.61Y0.3456
X1.6108Y1.4856
X1.6108Y1.1436
X1.62Y2.3
X1.62Y0.07
X1.625Y2.45
X1.6488Y2.5876
X1.65Y2.21
X1.65Y2.09
X1.67Y0.1556
X1.67Y0.07
X1.68Y2.85
X1.685Y2.72
X1.6868Y1.7136
X1.6868Y0.9536
X1.6868Y0.4976
X1.7Y3.53
X1.7248Y3.8796
X1.7248Y2.0556
X1.7248Y1.3336
X1.73Y0.07
X1.745Y2.72
X1.765Y3.225
X1.77Y0.7
X1.79Y0.07
X1.8008Y1.5616
X1.815Y3.225
X1.8388Y3.7276
X1.8388Y1.1056
X1.84Y2.55
X1.845Y2.405
X1.86Y0.07
X1.865Y3.225
X1.8768Y1.9416
X1.9148Y2.1696
X1.9148Y0.7249
X1.9148Y0.5729
X1.9148Y0.2309
X1.915Y3.225
X1.935Y2.36
X1.935Y2.3
X1.94Y3.82
X1.945Y2.45
X1.95Y0.88
X1.9528Y0.4589
X1.965Y3.225
X1.98Y2.55
X1.99Y0.78
X1.9908Y1.6376
X2.005Y2.42
X2.01Y0.07
X2.02Y1.15
X2.0288Y3.0816
X2.0288Y0.1549
X2.06Y2.21
X2.06Y2.14
X2.0668Y3.6516
X2.0668Y2.5876
X2.0668Y2.0556
X2.0668Y1.4476
X2.07Y0.07
X2.08Y3.89
X2.09Y0.2309
X2.12Y1.29
X2.12Y1.07
X2.14Y1.9
X2.14Y0.07
X2.15Y0.1549
X2.1529Y0.7564
X2.16Y3.22
X2.18Y3.82
X2.18Y3.6
X2.18Y2.9
X2.19Y0.07
X2.2188Y1.5989
X2.22Y3.29
X2.23Y2.55
X2.235Y2.43
X2.2568Y1.2949
X2.2585Y0.4917
X2.2633Y0.6693
X2.27Y2.55
X2.27Y2.275
X2.27Y0.2309
X2.275Y2.41
X2.28Y3.82
X2.28Y3.6006
X2.3Y0.78
X2.31Y2.55
X2.31Y2.275
X2.33Y3.29
X2.3328Y3.9936
X2.35Y2.55
X2.35Y2.275
X2.36Y1.37
X2.3708Y1.1809
X2.38Y3.82
X2.38Y3.6006
X2.39Y2.275
X2.42Y2.11
X2.42Y0.7
X2.43Y1.82
X2.44Y3.625
X2.4468Y3.8416
X2.46Y4.13
X2.46Y3.19
X2.47Y0.7
X2.478Y2.6127
X2.49Y1.93
X2.5Y0.58
X2.51Y4.13
X2.5119Y2.2519
X2.52Y2.79
X2.52Y2.65
X2.53Y0.53
X2.55Y0.58
X2.5509Y2.2375
X2.56Y4.13
X2.56Y0.48
X2.5608Y4.0316
X2.57Y2.69
X2.57Y0.63
X2.57Y0.38
X2.5761Y2.2716
X2.58Y0.53
X2.59Y0.43
X2.5988Y3.7276
X2.6Y1.82
X2.6Y0.58
X2.61Y4.13
X2.61Y0.48
X2.62Y0.63
X2.62Y0.38
X2.63Y0.53
X2.6368Y2.6256
X2.64Y0.68
X2.64Y0.43
X2.65Y0.58
X2.66Y4.13
X2.66Y2.55
X2.66Y0.73
X2.66Y0.48
X2.67Y0.63
X2.67Y0.38
X2.68Y0.53
X2.69Y0.68
X2.69Y0.43
X2.7Y0.33
X2.71Y4.13
X2.7128Y3.9176
X2.72Y0.63
X2.72Y0.28
X2.74Y1.41
X2.74Y0.68
X2.75Y1.51
X2.75Y0.33
X2.75Y0.23
X2.75Y0.07
X2.76Y4.13
X2.76Y2.3528
X2.76Y1.36
X2.77Y1.46
X2.78Y2.55
X2.78Y2.115
X2.78Y0.18
X2.7888Y3.3476
X2.79Y1.41
X2.8Y2.3528
X2.8Y0.07
X2.81Y4.13
X2.81Y1.36
X2.82Y1.46
X2.8268Y3.7656
X2.83Y0.18
X2.84Y2.57
X2.84Y1.41
X2.86Y4.13
X2.86Y1.36
X2.86Y0.07
X2.8648Y4.0316
X2.87Y1.92
X2.89Y0.12
X2.895Y3.155
X2.9Y3.04
X2.9Y0.23
X2.905Y2.935
X2.91Y4.13
X2.91Y1.36
X2.91Y0.18
X2.91Y0.07
X2.93Y2.1
X2.9408Y3.4996
X2.96Y4.13
X2.9788Y3.8796
X3.01Y4.13
X3.0168Y3.3096
X3.025Y2.8
X3.03Y0.72
X3.0548Y3.6896
X3.0548Y0.6116
X3.06Y4.13
X3.06Y0.27
X3.06Y0.205
X3.06Y0.14
X3.07Y1.95
X3.11Y4.13
X3.125Y0.27
X3.1308Y4.0316
X3.1308Y3.1576
X3.16Y4.13
X3.16Y0.135
X3.1688Y3.5376
X3.19Y0.27
X3.2068Y3.8416
X3.21Y4.13
X3.2448Y3.3476
X3.2448Y2.9676
X3.25Y0.27
X3.25Y0.205
X3.25Y0.14
X3.26Y4.13
X3.2926Y1.4492
X3.295Y1.905
X3.31Y4.13
X3.31Y4.07
X3.31Y4.01
X3.31Y3.95
X3.32Y0.27
X3.32Y0.205
X3.32Y0.14
X3.3208Y3.6896
X3.3588Y3.1956
X3.37Y3.95
X3.38Y0.27
X3.3968Y3.4996
X3.4019Y1.9619
X3.41Y0.135
X3.43Y3.95
X3.44Y0.27
X3.4692Y2.0122
X3.47Y1.43
X3.48Y3.95
X3.48Y3.9
X3.48Y3.85
X3.48Y3.8
X3.48Y3.75
X3.48Y3.7
X3.48Y3.65
X3.48Y3.6
X3.48Y3.55
X3.48Y3.5
X3.48Y3.45
X3.48Y3.4
X3.48Y3.35
X3.48Y3.3
X3.48Y3.25
X3.48Y3.2
X3.48Y3.15
X3.48Y3.1
X3.48Y3.05
X3.48Y3.0
X3.48Y2.95
X3.495Y0.27
X3.495Y0.205
X3.495Y0.14
X3.545Y0.27
X3.545Y0.205
X3.545Y0.14
X3.55Y4.13
X3.55Y4.08
X3.55Y4.03
X3.55Y3.98
X3.55Y3.93
X3.55Y3.88
X3.55Y3.83
X3.55Y3.78
X3.55Y3.73
X3.55Y3.68
X3.55Y3.63
X3.55Y3.58
X3.55Y3.53
X3.55Y3.48
X3.55Y3.43
X3.55Y3.38
X3.55Y3.33
X3.55Y3.28
X3.55Y3.23
X3.55Y3.18
X3.55Y3.13
X3.55Y3.08
X3.55Y3.03
X3.55Y2.98
X3.55Y2.93
X3.55Y2.88
X3.57Y2.13
X3.59Y1.98
X3.6Y4.13
X3.6248Y4.0316
X3.6248Y3.7656
X3.6248Y3.4996
X3.6248Y3.2336
X3.6248Y2.9676
X3.6326Y2.0941
X3.6326Y2.0341
X3.65Y4.13
X3.65Y1.66
X3.695Y1.925
X3.695Y1.85
X3.7Y4.13
X3.71Y2.52
X3.73Y1.56
X3.7388Y2.8156
X3.7486Y1.47
X3.75Y4.13
X3.75Y2.59
X3.76Y2.52
X3.7768Y3.9176
X3.7768Y3.6516
X3.7768Y3.3856
X3.7768Y3.1196
X3.785Y1.925
X3.795Y1.21
X3.795Y0.97
X3.8Y4.13
X3.8Y2.59
X3.8Y1.74
X3.81Y2.52
X3.81Y2.47
X3.81Y2.27
X3.81Y2.12
X3.83Y1.42
X3.84Y2.07
X3.84Y2.02
X3.845Y2.43
X3.85Y4.13
X3.85Y2.59
X3.86Y2.47
X3.86Y2.12
X3.89Y2.55
X3.89Y1.67
X3.8908Y2.9676
X3.9Y4.13
X3.9288Y3.8036
X3.9288Y3.5376
X3.9288Y3.2716
X3.9288Y2.6256
X3.93Y2.51
X3.93Y2.11
X3.94Y1.95
X3.94Y1.84
X3.95Y1.74
X3.95Y1.49
X3.96Y2.21
X3.97Y2.47
X3.98Y1.62
X3.985Y2.28
X4.0Y2.11
X4.0048Y2.8156
X4.01Y2.43
X4.01Y2.24
X4.01Y2.19
X4.01Y1.84
X4.015Y2.315
X4.02Y1.7
X4.0428Y3.1196
X4.05Y2.39
X4.05Y2.0
X4.06Y2.27
X4.06Y2.22
X4.06Y2.17
X4.06Y2.12
X4.0808Y3.9176
X4.0808Y3.6516
X4.0808Y3.3856
X4.0808Y2.5116
X4.085Y1.595
X4.085Y1.525
X4.09Y4.13
X4.09Y2.35
X4.13Y2.31
X4.13Y2.255
X4.13Y2.2
X4.13Y2.15
X4.13Y2.1
X4.13Y2.05
X4.13Y2.0
X4.13Y1.95
X4.13Y1.9
X4.13Y1.85
X4.13Y1.8
X4.13Y1.75
X4.13Y1.7
X4.185Y1.7
X4.2328Y3.8036
X4.2328Y3.5376
X4.2328Y3.2716
X4.2328Y3.0056
X4.2328Y2.6256
X4.2328Y2.3596
X4.2328Y2.0936
X4.2328Y1.8276
X4.24Y1.7
X4.26Y4.13
X4.29Y1.7
X4.3088Y2.8156
X4.34Y1.7
X4.38Y3.88
X4.38Y3.83
X4.38Y3.78
X4.3848Y3.6896
X4.3848Y3.4236
X4.3848Y3.1576
X4.3848Y2.5116
X4.3848Y2.2456
X4.3848Y1.9796
X4.395Y1.7
X4.45Y3.78
X4.45Y3.73
X4.45Y3.68
X4.45Y3.63
X4.45Y3.58
X4.45Y3.53
X4.45Y3.48
X4.45Y3.43
X4.45Y3.38
X4.45Y3.33
X4.45Y3.28
X4.45Y3.23
X4.45Y3.18
X4.45Y3.13
X4.45Y3.08
X4.45Y3.03
X4.45Y2.98
X4.45Y2.93
X4.45Y2.88
X4.45Y2.83
X4.45Y2.78
X4.45Y2.595
X4.45Y2.56
X4.45Y2.5
X4.45Y2.45
X4.45Y2.4
X4.45Y2.35
X4.45Y2.3
X4.45Y2.25
X4.45Y2.2
X4.45Y2.15
X4.45Y2.1
X4.45Y2.05
X4.45Y2.0
X4.45Y1.95
X4.45Y1.9
X4.45Y1.85
X4.45Y1.8
X4.45Y1.75
X4.45Y1.7
T4
X4.0026Y3.9423
X4.3474Y3.9423
T5
X0.78Y2.255
X1.065Y2.67
X1.26Y2.2613
X1.44Y2.255
X1.655Y2.255
X1.845Y2.255
X2.05Y2.67
X2.07Y2.913
X2.135Y0.63
X2.1359Y0.5434
X2.1506Y2.2544
X2.17Y0.89
X2.18Y2.99
X2.18Y1.09
X2.22Y2.84
X2.2235Y0.5867
X2.24Y0.4493
X2.2833Y1.0793
X2.3426Y0.9167
X2.41Y2.315
X2.615Y2.13
X2.6176Y2.2141
X2.6184Y2.264
X2.7Y1.83
X2.74Y1.74
X2.92Y2.86
X2.965Y2.565
X3.005Y2.205
X3.04Y2.3478
X3.06Y2.205
X3.075Y3.045
X3.1Y1.86
X3.12Y2.565
X3.175Y3.045
X3.24Y2.07
X3.31Y1.855
X3.34Y2.043
X3.3945Y2.1605
X3.4199Y2.043
X3.45Y2.2
X3.5093Y1.9065
X3.51Y1.57
X3.6263Y1.4493
X3.65Y2.5
X3.68Y2.32
X3.7108Y2.2308
X3.84Y1.93
T6
X0.43Y2.19
X0.76Y3.17
X0.76Y3.03
X0.81Y3.97
X0.88Y3.17
X0.88Y3.03
X2.04Y1.8
X4.3Y1.02
T7
X2.0064Y0.2376
X2.1796Y0.2376
T8
X0.68Y4.08
X0.78Y4.08
X0.88Y4.08
X0.98Y4.08
X1.08Y4.08
X1.18Y4.08
X1.28Y4.08
X1.38Y4.08
X1.48Y4.08
X1.58Y4.08
X1.68Y4.08
X1.78Y4.08
X1.88Y4.08
X1.98Y4.08
X2.08Y4.08
X2.18Y4.08
X2.28Y4.08
X2.38Y4.08
X4.3703Y1.56
X4.3703Y1.46
X4.3703Y1.36
X4.3703Y1.26
T9
X0.35Y2.56
X0.35Y2.26
T10
X3.55Y1.72
X2.23Y1.47
X3.6233Y1.0593
X3.6233Y1.2993
X2.23Y1.72
X2.995Y1.72
X3.6233Y0.8193
X3.71Y1.72
X2.45Y1.72
T11
X3.9201Y0.6823
X4.0761Y0.6823
X4.2321Y0.6823
X2.4873Y1.1677
X2.4873Y0.9867
X2.4873Y0.8057
X2.7593Y1.1677
X2.7593Y0.9867
X2.7593Y0.8057
T12
X0.4635Y4.0603
X3.4162Y4.0603
T13
X0.4635Y2.8398
X3.4162Y2.8398
T14
X0.2Y0.2
X0.7Y2.0
X2.3Y2.0
X4.6Y0.2
X0.2Y4.0
X4.6Y4.0
X4.6Y2.0
T0
M30
