G04 #@! TF.GenerationSoftware,KiCad,Pcbnew,(5.1.5)-3*
G04 #@! TF.CreationDate,2020-03-06T01:27:03-08:00*
G04 #@! TF.ProjectId,pandora,70616e64-6f72-4612-9e6b-696361645f70,A*
G04 #@! TF.SameCoordinates,PXf877d2b8PY8db4db0*
G04 #@! TF.FileFunction,Legend,Top*
G04 #@! TF.FilePolarity,Positive*
%FSLAX46Y46*%
G04 Gerber Fmt 4.6, Leading zero omitted, Abs format (unit mm)*
G04 Created by KiCad (PCBNEW (5.1.5)-3) date 2020-03-06 01:27:03*
%MOMM*%
%LPD*%
G04 APERTURE LIST*
%ADD10C,0.304800*%
%ADD11C,0.254000*%
%ADD12C,0.127000*%
%ADD13C,0.152400*%
%ADD14C,0.635000*%
%ADD15C,0.508000*%
%ADD16C,0.203200*%
%ADD17C,0.120000*%
%ADD18C,0.381000*%
%ADD19C,0.150000*%
G04 APERTURE END LIST*
D10*
X19322143Y63082715D02*
X19249572Y63010143D01*
X19031858Y62937572D01*
X18886715Y62937572D01*
X18669000Y63010143D01*
X18523858Y63155286D01*
X18451286Y63300429D01*
X18378715Y63590715D01*
X18378715Y63808429D01*
X18451286Y64098715D01*
X18523858Y64243858D01*
X18669000Y64389000D01*
X18886715Y64461572D01*
X19031858Y64461572D01*
X19249572Y64389000D01*
X19322143Y64316429D01*
X20265572Y64461572D02*
X20555858Y64461572D01*
X20701000Y64389000D01*
X20846143Y64243858D01*
X20918715Y63953572D01*
X20918715Y63445572D01*
X20846143Y63155286D01*
X20701000Y63010143D01*
X20555858Y62937572D01*
X20265572Y62937572D01*
X20120429Y63010143D01*
X19975286Y63155286D01*
X19902715Y63445572D01*
X19902715Y63953572D01*
X19975286Y64243858D01*
X20120429Y64389000D01*
X20265572Y64461572D01*
X21571858Y62937572D02*
X21571858Y64461572D01*
X22442715Y62937572D01*
X22442715Y64461572D01*
X22950715Y64461572D02*
X23821572Y64461572D01*
X23386143Y62937572D02*
X23386143Y64461572D01*
X25200429Y62937572D02*
X24692429Y63663286D01*
X24329572Y62937572D02*
X24329572Y64461572D01*
X24910143Y64461572D01*
X25055286Y64389000D01*
X25127858Y64316429D01*
X25200429Y64171286D01*
X25200429Y63953572D01*
X25127858Y63808429D01*
X25055286Y63735858D01*
X24910143Y63663286D01*
X24329572Y63663286D01*
X25781000Y63373000D02*
X26506715Y63373000D01*
X25635858Y62937572D02*
X26143858Y64461572D01*
X26651858Y62937572D01*
X27087286Y63010143D02*
X27305000Y62937572D01*
X27667858Y62937572D01*
X27813000Y63010143D01*
X27885572Y63082715D01*
X27958143Y63227858D01*
X27958143Y63373000D01*
X27885572Y63518143D01*
X27813000Y63590715D01*
X27667858Y63663286D01*
X27377572Y63735858D01*
X27232429Y63808429D01*
X27159858Y63881000D01*
X27087286Y64026143D01*
X27087286Y64171286D01*
X27159858Y64316429D01*
X27232429Y64389000D01*
X27377572Y64461572D01*
X27740429Y64461572D01*
X27958143Y64389000D01*
X28393572Y64461572D02*
X29264429Y64461572D01*
X28829000Y62937572D02*
X28829000Y64461572D01*
D11*
X54102000Y102362000D02*
X54102000Y97790000D01*
X51562000Y102362000D02*
X51562000Y97790000D01*
X31242000Y102362000D02*
X31242000Y97790000D01*
X23622000Y102362000D02*
X23622000Y97790000D01*
X21082000Y102362000D02*
X21082000Y97790000D01*
X61722000Y102362000D02*
X61722000Y97790000D01*
X16002000Y102362000D02*
X16002000Y97790000D01*
X61722000Y97790000D02*
X16002000Y97790000D01*
D12*
X104838500Y38354000D02*
X112331500Y38354000D01*
D11*
X61026524Y99705281D02*
X59756524Y99705281D01*
X61026524Y100430996D02*
X60300810Y99886710D01*
X59756524Y100430996D02*
X60482239Y99705281D01*
X60361286Y101398615D02*
X60421762Y101580043D01*
X60482239Y101640520D01*
X60603191Y101700996D01*
X60784620Y101700996D01*
X60905572Y101640520D01*
X60966048Y101580043D01*
X61026524Y101459091D01*
X61026524Y100975281D01*
X59756524Y100975281D01*
X59756524Y101398615D01*
X59817000Y101519567D01*
X59877477Y101580043D01*
X59998429Y101640520D01*
X60119381Y101640520D01*
X60240334Y101580043D01*
X60300810Y101519567D01*
X60361286Y101398615D01*
X60361286Y100975281D01*
X58486524Y99705281D02*
X57216524Y99705281D01*
X58486524Y100430996D02*
X57760810Y99886710D01*
X57216524Y100430996D02*
X57942239Y99705281D01*
X57277000Y101640520D02*
X57216524Y101519567D01*
X57216524Y101338139D01*
X57277000Y101156710D01*
X57397953Y101035758D01*
X57518905Y100975281D01*
X57760810Y100914805D01*
X57942239Y100914805D01*
X58184143Y100975281D01*
X58305096Y101035758D01*
X58426048Y101156710D01*
X58486524Y101338139D01*
X58486524Y101459091D01*
X58426048Y101640520D01*
X58365572Y101700996D01*
X57942239Y101700996D01*
X57942239Y101459091D01*
X55946524Y99705281D02*
X54676524Y99705281D01*
X55946524Y100430996D02*
X55220810Y99886710D01*
X54676524Y100430996D02*
X55402239Y99705281D01*
X55946524Y101700996D02*
X55341762Y101277662D01*
X55946524Y100975281D02*
X54676524Y100975281D01*
X54676524Y101459091D01*
X54737000Y101580043D01*
X54797477Y101640520D01*
X54918429Y101700996D01*
X55099858Y101700996D01*
X55220810Y101640520D01*
X55281286Y101580043D01*
X55341762Y101459091D01*
X55341762Y100975281D01*
X53043667Y101096234D02*
X53043667Y101700996D01*
X53406524Y100975281D02*
X52136524Y101398615D01*
X53406524Y101821948D01*
X50866524Y98495758D02*
X49596524Y98495758D01*
X49596524Y98798139D01*
X49657000Y98979567D01*
X49777953Y99100520D01*
X49898905Y99160996D01*
X50140810Y99221472D01*
X50322239Y99221472D01*
X50564143Y99160996D01*
X50685096Y99100520D01*
X50806048Y98979567D01*
X50866524Y98798139D01*
X50866524Y98495758D01*
X50201286Y100189091D02*
X50261762Y100370520D01*
X50322239Y100430996D01*
X50443191Y100491472D01*
X50624620Y100491472D01*
X50745572Y100430996D01*
X50806048Y100370520D01*
X50866524Y100249567D01*
X50866524Y99765758D01*
X49596524Y99765758D01*
X49596524Y100189091D01*
X49657000Y100310043D01*
X49717477Y100370520D01*
X49838429Y100430996D01*
X49959381Y100430996D01*
X50080334Y100370520D01*
X50140810Y100310043D01*
X50201286Y100189091D01*
X50201286Y99765758D01*
X49596524Y100914805D02*
X49596524Y101761472D01*
X50866524Y101217186D01*
X48326524Y98495758D02*
X47056524Y98495758D01*
X47056524Y98798139D01*
X47117000Y98979567D01*
X47237953Y99100520D01*
X47358905Y99160996D01*
X47600810Y99221472D01*
X47782239Y99221472D01*
X48024143Y99160996D01*
X48145096Y99100520D01*
X48266048Y98979567D01*
X48326524Y98798139D01*
X48326524Y98495758D01*
X47661286Y100189091D02*
X47721762Y100370520D01*
X47782239Y100430996D01*
X47903191Y100491472D01*
X48084620Y100491472D01*
X48205572Y100430996D01*
X48266048Y100370520D01*
X48326524Y100249567D01*
X48326524Y99765758D01*
X47056524Y99765758D01*
X47056524Y100189091D01*
X47117000Y100310043D01*
X47177477Y100370520D01*
X47298429Y100430996D01*
X47419381Y100430996D01*
X47540334Y100370520D01*
X47600810Y100310043D01*
X47661286Y100189091D01*
X47661286Y99765758D01*
X47056524Y101580043D02*
X47056524Y101338139D01*
X47117000Y101217186D01*
X47177477Y101156710D01*
X47358905Y101035758D01*
X47600810Y100975281D01*
X48084620Y100975281D01*
X48205572Y101035758D01*
X48266048Y101096234D01*
X48326524Y101217186D01*
X48326524Y101459091D01*
X48266048Y101580043D01*
X48205572Y101640520D01*
X48084620Y101700996D01*
X47782239Y101700996D01*
X47661286Y101640520D01*
X47600810Y101580043D01*
X47540334Y101459091D01*
X47540334Y101217186D01*
X47600810Y101096234D01*
X47661286Y101035758D01*
X47782239Y100975281D01*
X45786524Y98495758D02*
X44516524Y98495758D01*
X44516524Y98798139D01*
X44577000Y98979567D01*
X44697953Y99100520D01*
X44818905Y99160996D01*
X45060810Y99221472D01*
X45242239Y99221472D01*
X45484143Y99160996D01*
X45605096Y99100520D01*
X45726048Y98979567D01*
X45786524Y98798139D01*
X45786524Y98495758D01*
X45121286Y100189091D02*
X45181762Y100370520D01*
X45242239Y100430996D01*
X45363191Y100491472D01*
X45544620Y100491472D01*
X45665572Y100430996D01*
X45726048Y100370520D01*
X45786524Y100249567D01*
X45786524Y99765758D01*
X44516524Y99765758D01*
X44516524Y100189091D01*
X44577000Y100310043D01*
X44637477Y100370520D01*
X44758429Y100430996D01*
X44879381Y100430996D01*
X45000334Y100370520D01*
X45060810Y100310043D01*
X45121286Y100189091D01*
X45121286Y99765758D01*
X44516524Y101640520D02*
X44516524Y101035758D01*
X45121286Y100975281D01*
X45060810Y101035758D01*
X45000334Y101156710D01*
X45000334Y101459091D01*
X45060810Y101580043D01*
X45121286Y101640520D01*
X45242239Y101700996D01*
X45544620Y101700996D01*
X45665572Y101640520D01*
X45726048Y101580043D01*
X45786524Y101459091D01*
X45786524Y101156710D01*
X45726048Y101035758D01*
X45665572Y100975281D01*
X43246524Y98495758D02*
X41976524Y98495758D01*
X41976524Y98798139D01*
X42037000Y98979567D01*
X42157953Y99100520D01*
X42278905Y99160996D01*
X42520810Y99221472D01*
X42702239Y99221472D01*
X42944143Y99160996D01*
X43065096Y99100520D01*
X43186048Y98979567D01*
X43246524Y98798139D01*
X43246524Y98495758D01*
X42581286Y100189091D02*
X42641762Y100370520D01*
X42702239Y100430996D01*
X42823191Y100491472D01*
X43004620Y100491472D01*
X43125572Y100430996D01*
X43186048Y100370520D01*
X43246524Y100249567D01*
X43246524Y99765758D01*
X41976524Y99765758D01*
X41976524Y100189091D01*
X42037000Y100310043D01*
X42097477Y100370520D01*
X42218429Y100430996D01*
X42339381Y100430996D01*
X42460334Y100370520D01*
X42520810Y100310043D01*
X42581286Y100189091D01*
X42581286Y99765758D01*
X42399858Y101580043D02*
X43246524Y101580043D01*
X41916048Y101277662D02*
X42823191Y100975281D01*
X42823191Y101761472D01*
X40706524Y98495758D02*
X39436524Y98495758D01*
X39436524Y98798139D01*
X39497000Y98979567D01*
X39617953Y99100520D01*
X39738905Y99160996D01*
X39980810Y99221472D01*
X40162239Y99221472D01*
X40404143Y99160996D01*
X40525096Y99100520D01*
X40646048Y98979567D01*
X40706524Y98798139D01*
X40706524Y98495758D01*
X40041286Y100189091D02*
X40101762Y100370520D01*
X40162239Y100430996D01*
X40283191Y100491472D01*
X40464620Y100491472D01*
X40585572Y100430996D01*
X40646048Y100370520D01*
X40706524Y100249567D01*
X40706524Y99765758D01*
X39436524Y99765758D01*
X39436524Y100189091D01*
X39497000Y100310043D01*
X39557477Y100370520D01*
X39678429Y100430996D01*
X39799381Y100430996D01*
X39920334Y100370520D01*
X39980810Y100310043D01*
X40041286Y100189091D01*
X40041286Y99765758D01*
X39436524Y100914805D02*
X39436524Y101700996D01*
X39920334Y101277662D01*
X39920334Y101459091D01*
X39980810Y101580043D01*
X40041286Y101640520D01*
X40162239Y101700996D01*
X40464620Y101700996D01*
X40585572Y101640520D01*
X40646048Y101580043D01*
X40706524Y101459091D01*
X40706524Y101096234D01*
X40646048Y100975281D01*
X40585572Y100914805D01*
X38166524Y98495758D02*
X36896524Y98495758D01*
X36896524Y98798139D01*
X36957000Y98979567D01*
X37077953Y99100520D01*
X37198905Y99160996D01*
X37440810Y99221472D01*
X37622239Y99221472D01*
X37864143Y99160996D01*
X37985096Y99100520D01*
X38106048Y98979567D01*
X38166524Y98798139D01*
X38166524Y98495758D01*
X37501286Y100189091D02*
X37561762Y100370520D01*
X37622239Y100430996D01*
X37743191Y100491472D01*
X37924620Y100491472D01*
X38045572Y100430996D01*
X38106048Y100370520D01*
X38166524Y100249567D01*
X38166524Y99765758D01*
X36896524Y99765758D01*
X36896524Y100189091D01*
X36957000Y100310043D01*
X37017477Y100370520D01*
X37138429Y100430996D01*
X37259381Y100430996D01*
X37380334Y100370520D01*
X37440810Y100310043D01*
X37501286Y100189091D01*
X37501286Y99765758D01*
X37017477Y100975281D02*
X36957000Y101035758D01*
X36896524Y101156710D01*
X36896524Y101459091D01*
X36957000Y101580043D01*
X37017477Y101640520D01*
X37138429Y101700996D01*
X37259381Y101700996D01*
X37440810Y101640520D01*
X38166524Y100914805D01*
X38166524Y101700996D01*
X35626524Y98495758D02*
X34356524Y98495758D01*
X34356524Y98798139D01*
X34417000Y98979567D01*
X34537953Y99100520D01*
X34658905Y99160996D01*
X34900810Y99221472D01*
X35082239Y99221472D01*
X35324143Y99160996D01*
X35445096Y99100520D01*
X35566048Y98979567D01*
X35626524Y98798139D01*
X35626524Y98495758D01*
X34961286Y100189091D02*
X35021762Y100370520D01*
X35082239Y100430996D01*
X35203191Y100491472D01*
X35384620Y100491472D01*
X35505572Y100430996D01*
X35566048Y100370520D01*
X35626524Y100249567D01*
X35626524Y99765758D01*
X34356524Y99765758D01*
X34356524Y100189091D01*
X34417000Y100310043D01*
X34477477Y100370520D01*
X34598429Y100430996D01*
X34719381Y100430996D01*
X34840334Y100370520D01*
X34900810Y100310043D01*
X34961286Y100189091D01*
X34961286Y99765758D01*
X35626524Y101700996D02*
X35626524Y100975281D01*
X35626524Y101338139D02*
X34356524Y101338139D01*
X34537953Y101217186D01*
X34658905Y101096234D01*
X34719381Y100975281D01*
X33086524Y98495758D02*
X31816524Y98495758D01*
X31816524Y98798139D01*
X31877000Y98979567D01*
X31997953Y99100520D01*
X32118905Y99160996D01*
X32360810Y99221472D01*
X32542239Y99221472D01*
X32784143Y99160996D01*
X32905096Y99100520D01*
X33026048Y98979567D01*
X33086524Y98798139D01*
X33086524Y98495758D01*
X32421286Y100189091D02*
X32481762Y100370520D01*
X32542239Y100430996D01*
X32663191Y100491472D01*
X32844620Y100491472D01*
X32965572Y100430996D01*
X33026048Y100370520D01*
X33086524Y100249567D01*
X33086524Y99765758D01*
X31816524Y99765758D01*
X31816524Y100189091D01*
X31877000Y100310043D01*
X31937477Y100370520D01*
X32058429Y100430996D01*
X32179381Y100430996D01*
X32300334Y100370520D01*
X32360810Y100310043D01*
X32421286Y100189091D01*
X32421286Y99765758D01*
X31816524Y101277662D02*
X31816524Y101398615D01*
X31877000Y101519567D01*
X31937477Y101580043D01*
X32058429Y101640520D01*
X32300334Y101700996D01*
X32602715Y101700996D01*
X32844620Y101640520D01*
X32965572Y101580043D01*
X33026048Y101519567D01*
X33086524Y101398615D01*
X33086524Y101277662D01*
X33026048Y101156710D01*
X32965572Y101096234D01*
X32844620Y101035758D01*
X32602715Y100975281D01*
X32300334Y100975281D01*
X32058429Y101035758D01*
X31937477Y101096234D01*
X31877000Y101156710D01*
X31816524Y101277662D01*
X29881286Y101096234D02*
X29881286Y101519567D01*
X30546524Y101700996D02*
X30546524Y101096234D01*
X29276524Y101096234D01*
X29276524Y101700996D01*
X28006524Y100249567D02*
X27401762Y99826234D01*
X28006524Y99523853D02*
X26736524Y99523853D01*
X26736524Y100007662D01*
X26797000Y100128615D01*
X26857477Y100189091D01*
X26978429Y100249567D01*
X27159858Y100249567D01*
X27280810Y100189091D01*
X27341286Y100128615D01*
X27401762Y100007662D01*
X27401762Y99523853D01*
X26736524Y100672900D02*
X28006524Y100975281D01*
X27099381Y101217186D01*
X28006524Y101459091D01*
X26736524Y101761472D01*
X25466524Y100491472D02*
X24861762Y100068139D01*
X25466524Y99765758D02*
X24196524Y99765758D01*
X24196524Y100249567D01*
X24257000Y100370520D01*
X24317477Y100430996D01*
X24438429Y100491472D01*
X24619858Y100491472D01*
X24740810Y100430996D01*
X24801286Y100370520D01*
X24861762Y100249567D01*
X24861762Y99765758D01*
X25406048Y100975281D02*
X25466524Y101156710D01*
X25466524Y101459091D01*
X25406048Y101580043D01*
X25345572Y101640520D01*
X25224620Y101700996D01*
X25103667Y101700996D01*
X24982715Y101640520D01*
X24922239Y101580043D01*
X24861762Y101459091D01*
X24801286Y101217186D01*
X24740810Y101096234D01*
X24680334Y101035758D01*
X24559381Y100975281D01*
X24438429Y100975281D01*
X24317477Y101035758D01*
X24257000Y101096234D01*
X24196524Y101217186D01*
X24196524Y101519567D01*
X24257000Y101700996D01*
X21656524Y99765758D02*
X22926524Y100189091D01*
X21656524Y100612424D01*
X21656524Y101277662D02*
X21656524Y101398615D01*
X21717000Y101519567D01*
X21777477Y101580043D01*
X21898429Y101640520D01*
X22140334Y101700996D01*
X22442715Y101700996D01*
X22684620Y101640520D01*
X22805572Y101580043D01*
X22866048Y101519567D01*
X22926524Y101398615D01*
X22926524Y101277662D01*
X22866048Y101156710D01*
X22805572Y101096234D01*
X22684620Y101035758D01*
X22442715Y100975281D01*
X22140334Y100975281D01*
X21898429Y101035758D01*
X21777477Y101096234D01*
X21717000Y101156710D01*
X21656524Y101277662D01*
X19116524Y100551948D02*
X19116524Y99947186D01*
X19721286Y99886710D01*
X19660810Y99947186D01*
X19600334Y100068139D01*
X19600334Y100370520D01*
X19660810Y100491472D01*
X19721286Y100551948D01*
X19842239Y100612424D01*
X20144620Y100612424D01*
X20265572Y100551948D01*
X20326048Y100491472D01*
X20386524Y100370520D01*
X20386524Y100068139D01*
X20326048Y99947186D01*
X20265572Y99886710D01*
X19116524Y100975281D02*
X20386524Y101398615D01*
X19116524Y101821948D01*
X18542000Y102616000D02*
X18542000Y102362000D01*
X18542000Y104902000D02*
X18542000Y104648000D01*
X61722000Y102362000D02*
X16002000Y102362000D01*
X16002000Y104902000D02*
X61722000Y104902000D01*
X61722000Y104902000D02*
X61722000Y102362000D01*
X16002000Y104902000D02*
X16002000Y102362000D01*
X16637000Y99040043D02*
X16576524Y98919091D01*
X16576524Y98737662D01*
X16637000Y98556234D01*
X16757953Y98435281D01*
X16878905Y98374805D01*
X17120810Y98314329D01*
X17302239Y98314329D01*
X17544143Y98374805D01*
X17665096Y98435281D01*
X17786048Y98556234D01*
X17846524Y98737662D01*
X17846524Y98858615D01*
X17786048Y99040043D01*
X17725572Y99100520D01*
X17302239Y99100520D01*
X17302239Y98858615D01*
X17846524Y99644805D02*
X16576524Y99644805D01*
X17846524Y100370520D01*
X16576524Y100370520D01*
X17846524Y100975281D02*
X16576524Y100975281D01*
X16576524Y101277662D01*
X16637000Y101459091D01*
X16757953Y101580043D01*
X16878905Y101640520D01*
X17120810Y101700996D01*
X17302239Y101700996D01*
X17544143Y101640520D01*
X17665096Y101580043D01*
X17786048Y101459091D01*
X17846524Y101277662D01*
X17846524Y100975281D01*
X76466096Y41519929D02*
X77095048Y41519929D01*
X76756381Y41084500D01*
X76901524Y41084500D01*
X76998286Y41030072D01*
X77046667Y40975643D01*
X77095048Y40866786D01*
X77095048Y40594643D01*
X77046667Y40485786D01*
X76998286Y40431358D01*
X76901524Y40376929D01*
X76611239Y40376929D01*
X76514477Y40431358D01*
X76466096Y40485786D01*
X77385334Y41519929D02*
X77724000Y40376929D01*
X78062667Y41519929D01*
X78304572Y41519929D02*
X78933524Y41519929D01*
X78594858Y41084500D01*
X78740000Y41084500D01*
X78836762Y41030072D01*
X78885143Y40975643D01*
X78933524Y40866786D01*
X78933524Y40594643D01*
X78885143Y40485786D01*
X78836762Y40431358D01*
X78740000Y40376929D01*
X78449715Y40376929D01*
X78352953Y40431358D01*
X78304572Y40485786D01*
X61455905Y41465500D02*
X61359143Y41519929D01*
X61214000Y41519929D01*
X61068858Y41465500D01*
X60972096Y41356643D01*
X60923715Y41247786D01*
X60875334Y41030072D01*
X60875334Y40866786D01*
X60923715Y40649072D01*
X60972096Y40540215D01*
X61068858Y40431358D01*
X61214000Y40376929D01*
X61310762Y40376929D01*
X61455905Y40431358D01*
X61504286Y40485786D01*
X61504286Y40866786D01*
X61310762Y40866786D01*
X61939715Y40376929D02*
X61939715Y41519929D01*
X62520286Y40376929D01*
X62520286Y41519929D01*
X63004096Y40376929D02*
X63004096Y41519929D01*
X63246000Y41519929D01*
X63391143Y41465500D01*
X63487905Y41356643D01*
X63536286Y41247786D01*
X63584667Y41030072D01*
X63584667Y40866786D01*
X63536286Y40649072D01*
X63487905Y40540215D01*
X63391143Y40431358D01*
X63246000Y40376929D01*
X63004096Y40376929D01*
X94475905Y41465500D02*
X94379143Y41519929D01*
X94234000Y41519929D01*
X94088858Y41465500D01*
X93992096Y41356643D01*
X93943715Y41247786D01*
X93895334Y41030072D01*
X93895334Y40866786D01*
X93943715Y40649072D01*
X93992096Y40540215D01*
X94088858Y40431358D01*
X94234000Y40376929D01*
X94330762Y40376929D01*
X94475905Y40431358D01*
X94524286Y40485786D01*
X94524286Y40866786D01*
X94330762Y40866786D01*
X94959715Y40376929D02*
X94959715Y41519929D01*
X95540286Y40376929D01*
X95540286Y41519929D01*
X96024096Y40376929D02*
X96024096Y41519929D01*
X96266000Y41519929D01*
X96411143Y41465500D01*
X96507905Y41356643D01*
X96556286Y41247786D01*
X96604667Y41030072D01*
X96604667Y40866786D01*
X96556286Y40649072D01*
X96507905Y40540215D01*
X96411143Y40431358D01*
X96266000Y40376929D01*
X96024096Y40376929D01*
X87714667Y41519929D02*
X88343620Y41519929D01*
X88004953Y41084500D01*
X88150096Y41084500D01*
X88246858Y41030072D01*
X88295239Y40975643D01*
X88343620Y40866786D01*
X88343620Y40594643D01*
X88295239Y40485786D01*
X88246858Y40431358D01*
X88150096Y40376929D01*
X87859810Y40376929D01*
X87763048Y40431358D01*
X87714667Y40485786D01*
X88633905Y41519929D02*
X88972572Y40376929D01*
X89311239Y41519929D01*
X89553143Y41519929D02*
X90182096Y41519929D01*
X89843429Y41084500D01*
X89988572Y41084500D01*
X90085334Y41030072D01*
X90133715Y40975643D01*
X90182096Y40866786D01*
X90182096Y40594643D01*
X90133715Y40485786D01*
X90085334Y40431358D01*
X89988572Y40376929D01*
X89698286Y40376929D01*
X89601524Y40431358D01*
X89553143Y40485786D01*
X90569143Y40703500D02*
X91052953Y40703500D01*
X90472381Y40376929D02*
X90811048Y41519929D01*
X91149715Y40376929D01*
X54755143Y35169929D02*
X55093810Y34026929D01*
X55432477Y35169929D01*
X56351715Y34135786D02*
X56303334Y34081358D01*
X56158191Y34026929D01*
X56061429Y34026929D01*
X55916286Y34081358D01*
X55819524Y34190215D01*
X55771143Y34299072D01*
X55722762Y34516786D01*
X55722762Y34680072D01*
X55771143Y34897786D01*
X55819524Y35006643D01*
X55916286Y35115500D01*
X56061429Y35169929D01*
X56158191Y35169929D01*
X56303334Y35115500D01*
X56351715Y35061072D01*
X56787143Y34026929D02*
X56787143Y35169929D01*
X56787143Y34625643D02*
X57367715Y34625643D01*
X57367715Y34026929D02*
X57367715Y35169929D01*
X58383715Y35115500D02*
X58286953Y35169929D01*
X58141810Y35169929D01*
X57996667Y35115500D01*
X57899905Y35006643D01*
X57851524Y34897786D01*
X57803143Y34680072D01*
X57803143Y34516786D01*
X57851524Y34299072D01*
X57899905Y34190215D01*
X57996667Y34081358D01*
X58141810Y34026929D01*
X58238572Y34026929D01*
X58383715Y34081358D01*
X58432096Y34135786D01*
X58432096Y34516786D01*
X58238572Y34516786D01*
X54972858Y41519929D02*
X55311524Y40376929D01*
X55650191Y41519929D01*
X56327524Y40975643D02*
X56472667Y40921215D01*
X56521048Y40866786D01*
X56569429Y40757929D01*
X56569429Y40594643D01*
X56521048Y40485786D01*
X56472667Y40431358D01*
X56375905Y40376929D01*
X55988858Y40376929D01*
X55988858Y41519929D01*
X56327524Y41519929D01*
X56424286Y41465500D01*
X56472667Y41411072D01*
X56521048Y41302215D01*
X56521048Y41193358D01*
X56472667Y41084500D01*
X56424286Y41030072D01*
X56327524Y40975643D01*
X55988858Y40975643D01*
X56956477Y40703500D02*
X57440286Y40703500D01*
X56859715Y40376929D02*
X57198381Y41519929D01*
X57537048Y40376929D01*
X57730572Y41519929D02*
X58311143Y41519929D01*
X58020858Y40376929D02*
X58020858Y41519929D01*
D10*
X65858572Y48840572D02*
X65350572Y49566286D01*
X64987715Y48840572D02*
X64987715Y50364572D01*
X65568286Y50364572D01*
X65713429Y50292000D01*
X65786000Y50219429D01*
X65858572Y50074286D01*
X65858572Y49856572D01*
X65786000Y49711429D01*
X65713429Y49638858D01*
X65568286Y49566286D01*
X64987715Y49566286D01*
X66511715Y49638858D02*
X67019715Y49638858D01*
X67237429Y48840572D02*
X66511715Y48840572D01*
X66511715Y50364572D01*
X67237429Y50364572D01*
X67818000Y48913143D02*
X68035715Y48840572D01*
X68398572Y48840572D01*
X68543715Y48913143D01*
X68616286Y48985715D01*
X68688858Y49130858D01*
X68688858Y49276000D01*
X68616286Y49421143D01*
X68543715Y49493715D01*
X68398572Y49566286D01*
X68108286Y49638858D01*
X67963143Y49711429D01*
X67890572Y49784000D01*
X67818000Y49929143D01*
X67818000Y50074286D01*
X67890572Y50219429D01*
X67963143Y50292000D01*
X68108286Y50364572D01*
X68471143Y50364572D01*
X68688858Y50292000D01*
X69342000Y49638858D02*
X69850000Y49638858D01*
X70067715Y48840572D02*
X69342000Y48840572D01*
X69342000Y50364572D01*
X70067715Y50364572D01*
X70503143Y50364572D02*
X71374000Y50364572D01*
X70938572Y48840572D02*
X70938572Y50364572D01*
D11*
X91173905Y18605500D02*
X91077143Y18659929D01*
X90932000Y18659929D01*
X90786858Y18605500D01*
X90690096Y18496643D01*
X90641715Y18387786D01*
X90593334Y18170072D01*
X90593334Y18006786D01*
X90641715Y17789072D01*
X90690096Y17680215D01*
X90786858Y17571358D01*
X90932000Y17516929D01*
X91028762Y17516929D01*
X91173905Y17571358D01*
X91222286Y17625786D01*
X91222286Y18006786D01*
X91028762Y18006786D01*
X91657715Y17516929D02*
X91657715Y18659929D01*
X92238286Y17516929D01*
X92238286Y18659929D01*
X92722096Y17516929D02*
X92722096Y18659929D01*
X92964000Y18659929D01*
X93109143Y18605500D01*
X93205905Y18496643D01*
X93254286Y18387786D01*
X93302667Y18170072D01*
X93302667Y18006786D01*
X93254286Y17789072D01*
X93205905Y17680215D01*
X93109143Y17571358D01*
X92964000Y17516929D01*
X92722096Y17516929D01*
X90918240Y24738928D02*
X91256906Y23595928D01*
X91595573Y24738928D01*
X91934240Y23595928D02*
X91934240Y24738928D01*
X92418049Y23595928D02*
X92418049Y24738928D01*
X92998621Y23595928D01*
X92998621Y24738928D01*
X91837478Y30834928D02*
X91353668Y30834928D01*
X91305287Y30290642D01*
X91353668Y30345071D01*
X91450430Y30399499D01*
X91692335Y30399499D01*
X91789097Y30345071D01*
X91837478Y30290642D01*
X91885859Y30181785D01*
X91885859Y29909642D01*
X91837478Y29800785D01*
X91789097Y29746357D01*
X91692335Y29691928D01*
X91450430Y29691928D01*
X91353668Y29746357D01*
X91305287Y29800785D01*
X92176144Y30834928D02*
X92514811Y29691928D01*
X92853478Y30834928D01*
D10*
X61359143Y35668858D02*
X61867143Y35668858D01*
X62084858Y34870572D02*
X61359143Y34870572D01*
X61359143Y36394572D01*
X62084858Y36394572D01*
X62592858Y36394572D02*
X63608858Y34870572D01*
X63608858Y36394572D02*
X62592858Y34870572D01*
X63971715Y36394572D02*
X64842572Y36394572D01*
X64407143Y34870572D02*
X64407143Y36394572D01*
X62639573Y14586858D02*
X62857287Y14514286D01*
X62929859Y14441715D01*
X63002430Y14296572D01*
X63002430Y14078858D01*
X62929859Y13933715D01*
X62857287Y13861143D01*
X62712144Y13788572D01*
X62131573Y13788572D01*
X62131573Y15312572D01*
X62639573Y15312572D01*
X62784716Y15240000D01*
X62857287Y15167429D01*
X62929859Y15022286D01*
X62929859Y14877143D01*
X62857287Y14732000D01*
X62784716Y14659429D01*
X62639573Y14586858D01*
X62131573Y14586858D01*
X63583001Y14224000D02*
X64308716Y14224000D01*
X63437859Y13788572D02*
X63945859Y15312572D01*
X64453859Y13788572D01*
X64744144Y15312572D02*
X65615001Y15312572D01*
X65179573Y13788572D02*
X65179573Y15312572D01*
X65905287Y15312572D02*
X66776144Y15312572D01*
X66340716Y13788572D02*
X66340716Y15312572D01*
D13*
X52624716Y17726714D02*
X52588430Y17688009D01*
X52479573Y17649304D01*
X52407001Y17649304D01*
X52298144Y17688009D01*
X52225573Y17765419D01*
X52189287Y17842828D01*
X52153001Y17997647D01*
X52153001Y18113761D01*
X52189287Y18268580D01*
X52225573Y18345990D01*
X52298144Y18423399D01*
X52407001Y18462104D01*
X52479573Y18462104D01*
X52588430Y18423399D01*
X52624716Y18384695D01*
X52951287Y17649304D02*
X52951287Y18462104D01*
X52951287Y18075057D02*
X53386716Y18075057D01*
X53386716Y17649304D02*
X53386716Y18462104D01*
X54148716Y18423399D02*
X54076144Y18462104D01*
X53967287Y18462104D01*
X53858430Y18423399D01*
X53785859Y18345990D01*
X53749573Y18268580D01*
X53713287Y18113761D01*
X53713287Y17997647D01*
X53749573Y17842828D01*
X53785859Y17765419D01*
X53858430Y17688009D01*
X53967287Y17649304D01*
X54039859Y17649304D01*
X54148716Y17688009D01*
X54185001Y17726714D01*
X54185001Y17997647D01*
X54039859Y17997647D01*
X55636430Y17649304D02*
X55636430Y18462104D01*
X55817859Y18462104D01*
X55926716Y18423399D01*
X55999287Y18345990D01*
X56035573Y18268580D01*
X56071859Y18113761D01*
X56071859Y17997647D01*
X56035573Y17842828D01*
X55999287Y17765419D01*
X55926716Y17688009D01*
X55817859Y17649304D01*
X55636430Y17649304D01*
X56543573Y18462104D02*
X56688716Y18462104D01*
X56761287Y18423399D01*
X56833859Y18345990D01*
X56870144Y18191171D01*
X56870144Y17920238D01*
X56833859Y17765419D01*
X56761287Y17688009D01*
X56688716Y17649304D01*
X56543573Y17649304D01*
X56471001Y17688009D01*
X56398430Y17765419D01*
X56362144Y17920238D01*
X56362144Y18191171D01*
X56398430Y18345990D01*
X56471001Y18423399D01*
X56543573Y18462104D01*
X57196716Y17649304D02*
X57196716Y18462104D01*
X57632144Y17649304D01*
X57632144Y18462104D01*
X57995001Y18075057D02*
X58249001Y18075057D01*
X58357859Y17649304D02*
X57995001Y17649304D01*
X57995001Y18462104D01*
X58357859Y18462104D01*
D11*
X109528000Y22664998D02*
X109528000Y19362998D01*
X97590000Y22664998D02*
X97590000Y19304000D01*
X101590500Y22664998D02*
X101590500Y19362998D01*
X97590000Y22664998D02*
X109528000Y22664998D01*
X105527500Y22664998D02*
X105527500Y19362998D01*
X102446239Y21898429D02*
X102784905Y20755429D01*
X103123572Y21898429D01*
X103462239Y20755429D02*
X103462239Y21898429D01*
X103946048Y20755429D02*
X103946048Y21898429D01*
X104526620Y20755429D01*
X104526620Y21898429D01*
X98793905Y21844000D02*
X98697143Y21898429D01*
X98552000Y21898429D01*
X98406858Y21844000D01*
X98310096Y21735143D01*
X98261715Y21626286D01*
X98213334Y21408572D01*
X98213334Y21245286D01*
X98261715Y21027572D01*
X98310096Y20918715D01*
X98406858Y20809858D01*
X98552000Y20755429D01*
X98648762Y20755429D01*
X98793905Y20809858D01*
X98842286Y20864286D01*
X98842286Y21245286D01*
X98648762Y21245286D01*
X99277715Y20755429D02*
X99277715Y21898429D01*
X99858286Y20755429D01*
X99858286Y21898429D01*
X100342096Y20755429D02*
X100342096Y21898429D01*
X100584000Y21898429D01*
X100729143Y21844000D01*
X100825905Y21735143D01*
X100874286Y21626286D01*
X100922667Y21408572D01*
X100922667Y21245286D01*
X100874286Y21027572D01*
X100825905Y20918715D01*
X100729143Y20809858D01*
X100584000Y20755429D01*
X100342096Y20755429D01*
X106731405Y21844000D02*
X106634643Y21898429D01*
X106489500Y21898429D01*
X106344358Y21844000D01*
X106247596Y21735143D01*
X106199215Y21626286D01*
X106150834Y21408572D01*
X106150834Y21245286D01*
X106199215Y21027572D01*
X106247596Y20918715D01*
X106344358Y20809858D01*
X106489500Y20755429D01*
X106586262Y20755429D01*
X106731405Y20809858D01*
X106779786Y20864286D01*
X106779786Y21245286D01*
X106586262Y21245286D01*
X107215215Y20755429D02*
X107215215Y21898429D01*
X107795786Y20755429D01*
X107795786Y21898429D01*
X108279596Y20755429D02*
X108279596Y21898429D01*
X108521500Y21898429D01*
X108666643Y21844000D01*
X108763405Y21735143D01*
X108811786Y21626286D01*
X108860167Y21408572D01*
X108860167Y21245286D01*
X108811786Y21027572D01*
X108763405Y20918715D01*
X108666643Y20809858D01*
X108521500Y20755429D01*
X108279596Y20755429D01*
X101590500Y19362998D02*
X101590500Y15298998D01*
X105527500Y19362998D02*
X105527500Y15298998D01*
X97590000Y19870998D02*
X109528000Y19870998D01*
X97590000Y15298998D02*
X97590000Y19362998D01*
X109528000Y15298998D02*
X97590000Y15298998D01*
X109528000Y19362998D02*
X109528000Y15298998D01*
D12*
X109675002Y30670500D02*
X109675002Y33227998D01*
X104849002Y40954000D02*
X109675002Y40954000D01*
X104849002Y30670500D02*
X109675002Y30670500D01*
X104849002Y40954000D02*
X104849002Y30670500D01*
D11*
X106739617Y32575500D02*
X106642855Y32629929D01*
X106497712Y32629929D01*
X106352569Y32575500D01*
X106255807Y32466643D01*
X106207426Y32357786D01*
X106159045Y32140072D01*
X106159045Y31976786D01*
X106207426Y31759072D01*
X106255807Y31650215D01*
X106352569Y31541358D01*
X106497712Y31486929D01*
X106594474Y31486929D01*
X106739617Y31541358D01*
X106787998Y31595786D01*
X106787998Y31976786D01*
X106594474Y31976786D01*
X107223426Y31486929D02*
X107223426Y32629929D01*
X107803998Y31486929D01*
X107803998Y32629929D01*
X108287807Y31486929D02*
X108287807Y32629929D01*
X108529712Y32629929D01*
X108674855Y32575500D01*
X108771617Y32466643D01*
X108819998Y32357786D01*
X108868379Y32140072D01*
X108868379Y31976786D01*
X108819998Y31759072D01*
X108771617Y31650215D01*
X108674855Y31541358D01*
X108529712Y31486929D01*
X108287807Y31486929D01*
X107022900Y35169929D02*
X107361567Y34026929D01*
X107700234Y35169929D01*
X108038900Y34462358D02*
X108812996Y34462358D01*
X108425948Y34026929D02*
X108425948Y34897786D01*
X105965522Y36566929D02*
X105965522Y37709929D01*
X106352569Y37709929D01*
X106449331Y37655500D01*
X106497712Y37601072D01*
X106546093Y37492215D01*
X106546093Y37328929D01*
X106497712Y37220072D01*
X106449331Y37165643D01*
X106352569Y37111215D01*
X105965522Y37111215D01*
X106884760Y37709929D02*
X107126664Y36566929D01*
X107320188Y37383358D01*
X107513712Y36566929D01*
X107755617Y37709929D01*
X108142664Y36566929D02*
X108142664Y37709929D01*
X108481331Y36893500D01*
X108819998Y37709929D01*
X108819998Y36566929D01*
X105716615Y39705643D02*
X105377948Y39705643D01*
X105377948Y39106929D02*
X105377948Y40249929D01*
X105861758Y40249929D01*
X106248805Y39106929D02*
X106248805Y40249929D01*
X106490710Y40249929D01*
X106635853Y40195500D01*
X106732615Y40086643D01*
X106780996Y39977786D01*
X106829377Y39760072D01*
X106829377Y39596786D01*
X106780996Y39379072D01*
X106732615Y39270215D01*
X106635853Y39161358D01*
X106490710Y39106929D01*
X106248805Y39106929D01*
X107603472Y39705643D02*
X107748615Y39651215D01*
X107796996Y39596786D01*
X107845377Y39487929D01*
X107845377Y39324643D01*
X107796996Y39215786D01*
X107748615Y39161358D01*
X107651853Y39106929D01*
X107264805Y39106929D01*
X107264805Y40249929D01*
X107603472Y40249929D01*
X107700234Y40195500D01*
X107748615Y40141072D01*
X107796996Y40032215D01*
X107796996Y39923358D01*
X107748615Y39814500D01*
X107700234Y39760072D01*
X107603472Y39705643D01*
X107264805Y39705643D01*
X108280805Y39106929D02*
X108280805Y40249929D01*
X108861377Y39106929D02*
X108425948Y39760072D01*
X108861377Y40249929D02*
X108280805Y39596786D01*
D13*
X65661897Y21476285D02*
X66242468Y21476285D01*
X66358582Y21439999D01*
X66435992Y21367428D01*
X66474697Y21258571D01*
X66474697Y21185999D01*
X66474697Y22201999D02*
X66474697Y21839142D01*
X65661897Y21839142D01*
X66397287Y22891428D02*
X66435992Y22855142D01*
X66474697Y22746285D01*
X66474697Y22673714D01*
X66435992Y22564857D01*
X66358582Y22492285D01*
X66281173Y22455999D01*
X66126354Y22419714D01*
X66010240Y22419714D01*
X65855421Y22455999D01*
X65778011Y22492285D01*
X65700601Y22564857D01*
X65661897Y22673714D01*
X65661897Y22746285D01*
X65700601Y22855142D01*
X65739306Y22891428D01*
X65661897Y23435714D02*
X66242468Y23435714D01*
X66358582Y23399428D01*
X66435992Y23326857D01*
X66474697Y23217999D01*
X66474697Y23145428D01*
X66474697Y24161428D02*
X66474697Y23798571D01*
X65661897Y23798571D01*
X66397287Y24850857D02*
X66435992Y24814571D01*
X66474697Y24705714D01*
X66474697Y24633142D01*
X66435992Y24524285D01*
X66358582Y24451714D01*
X66281173Y24415428D01*
X66126354Y24379142D01*
X66010240Y24379142D01*
X65855421Y24415428D01*
X65778011Y24451714D01*
X65700601Y24524285D01*
X65661897Y24633142D01*
X65661897Y24705714D01*
X65700601Y24814571D01*
X65739306Y24850857D01*
X65661897Y25395142D02*
X66242468Y25395142D01*
X66358582Y25358857D01*
X66435992Y25286285D01*
X66474697Y25177428D01*
X66474697Y25104857D01*
X66474697Y26120857D02*
X66474697Y25757999D01*
X65661897Y25757999D01*
X66397287Y26810285D02*
X66435992Y26773999D01*
X66474697Y26665142D01*
X66474697Y26592571D01*
X66435992Y26483714D01*
X66358582Y26411142D01*
X66281173Y26374857D01*
X66126354Y26338571D01*
X66010240Y26338571D01*
X65855421Y26374857D01*
X65778011Y26411142D01*
X65700601Y26483714D01*
X65661897Y26592571D01*
X65661897Y26665142D01*
X65700601Y26773999D01*
X65739306Y26810285D01*
X65661897Y27354571D02*
X66242468Y27354571D01*
X66358582Y27318285D01*
X66435992Y27245714D01*
X66474697Y27136857D01*
X66474697Y27064285D01*
X66474697Y28080285D02*
X66474697Y27717428D01*
X65661897Y27717428D01*
X66397287Y28769714D02*
X66435992Y28733428D01*
X66474697Y28624571D01*
X66474697Y28551999D01*
X66435992Y28443142D01*
X66358582Y28370571D01*
X66281173Y28334285D01*
X66126354Y28297999D01*
X66010240Y28297999D01*
X65855421Y28334285D01*
X65778011Y28370571D01*
X65700601Y28443142D01*
X65661897Y28551999D01*
X65661897Y28624571D01*
X65700601Y28733428D01*
X65739306Y28769714D01*
D14*
X10450763Y2002952D02*
X10450763Y4542952D01*
X11055525Y4542952D01*
X11418382Y4421999D01*
X11660287Y4180095D01*
X11781240Y3938190D01*
X11902192Y3454380D01*
X11902192Y3091523D01*
X11781240Y2607714D01*
X11660287Y2365809D01*
X11418382Y2123904D01*
X11055525Y2002952D01*
X10450763Y2002952D01*
X5485191Y19170953D02*
X4275667Y19170953D01*
X4275667Y21710953D01*
X28599191Y10534953D02*
X27752524Y11744477D01*
X27147762Y10534953D02*
X27147762Y13074953D01*
X28115381Y13074953D01*
X28357286Y12954000D01*
X28478239Y12833048D01*
X28599191Y12591143D01*
X28599191Y12228286D01*
X28478239Y11986381D01*
X28357286Y11865429D01*
X28115381Y11744477D01*
X27147762Y11744477D01*
X19915287Y29307952D02*
X19915287Y27251761D01*
X20036240Y27009857D01*
X20157192Y26888904D01*
X20399097Y26767952D01*
X20882906Y26767952D01*
X21124811Y26888904D01*
X21245763Y27009857D01*
X21366716Y27251761D01*
X21366716Y29307952D01*
X4947430Y34448428D02*
X5310287Y34327476D01*
X5431240Y34206523D01*
X5552192Y33964619D01*
X5552192Y33601761D01*
X5431240Y33359857D01*
X5310287Y33238904D01*
X5068382Y33117952D01*
X4100763Y33117952D01*
X4100763Y35657952D01*
X4947430Y35657952D01*
X5189335Y35536999D01*
X5310287Y35416047D01*
X5431240Y35174142D01*
X5431240Y34932238D01*
X5310287Y34690333D01*
X5189335Y34569380D01*
X4947430Y34448428D01*
X4100763Y34448428D01*
X11146240Y41463666D02*
X12355763Y41463666D01*
X10904335Y40737952D02*
X11751001Y43277952D01*
X12597668Y40737952D01*
D15*
X38130239Y23314761D02*
X38323762Y23314761D01*
X38517286Y23217999D01*
X38614048Y23121238D01*
X38710810Y22927714D01*
X38807572Y22540666D01*
X38807572Y22056857D01*
X38710810Y21669809D01*
X38614048Y21476285D01*
X38517286Y21379523D01*
X38323762Y21282761D01*
X38130239Y21282761D01*
X37936715Y21379523D01*
X37839953Y21476285D01*
X37743191Y21669809D01*
X37646429Y22056857D01*
X37646429Y22540666D01*
X37743191Y22927714D01*
X37839953Y23121238D01*
X37936715Y23217999D01*
X38130239Y23314761D01*
X48193954Y32712761D02*
X48581001Y32712761D01*
X48774525Y32809523D01*
X48871287Y32906285D01*
X49064811Y33196571D01*
X49161573Y33583619D01*
X49161573Y34357714D01*
X49064811Y34551238D01*
X48968049Y34647999D01*
X48774525Y34744761D01*
X48387478Y34744761D01*
X48193954Y34647999D01*
X48097192Y34551238D01*
X48000430Y34357714D01*
X48000430Y33873904D01*
X48097192Y33680380D01*
X48193954Y33583619D01*
X48387478Y33486857D01*
X48774525Y33486857D01*
X48968049Y33583619D01*
X49064811Y33680380D01*
X49161573Y33873904D01*
X38033477Y33873904D02*
X37839953Y33970666D01*
X37743191Y34067428D01*
X37646429Y34260952D01*
X37646429Y34357714D01*
X37743191Y34551238D01*
X37839953Y34647999D01*
X38033477Y34744761D01*
X38420524Y34744761D01*
X38614048Y34647999D01*
X38710810Y34551238D01*
X38807572Y34357714D01*
X38807572Y34260952D01*
X38710810Y34067428D01*
X38614048Y33970666D01*
X38420524Y33873904D01*
X38033477Y33873904D01*
X37839953Y33777142D01*
X37743191Y33680380D01*
X37646429Y33486857D01*
X37646429Y33099809D01*
X37743191Y32906285D01*
X37839953Y32809523D01*
X38033477Y32712761D01*
X38420524Y32712761D01*
X38614048Y32809523D01*
X38710810Y32906285D01*
X38807572Y33099809D01*
X38807572Y33486857D01*
X38710810Y33680380D01*
X38614048Y33777142D01*
X38420524Y33873904D01*
X27389667Y34744761D02*
X28744334Y34744761D01*
X27873477Y32712761D01*
X48968049Y46174761D02*
X48581001Y46174761D01*
X48387478Y46077999D01*
X48290716Y45981238D01*
X48097192Y45690952D01*
X48000430Y45303904D01*
X48000430Y44529809D01*
X48097192Y44336285D01*
X48193954Y44239523D01*
X48387478Y44142761D01*
X48774525Y44142761D01*
X48968049Y44239523D01*
X49064811Y44336285D01*
X49161573Y44529809D01*
X49161573Y45013619D01*
X49064811Y45207142D01*
X48968049Y45303904D01*
X48774525Y45400666D01*
X48387478Y45400666D01*
X48193954Y45303904D01*
X48097192Y45207142D01*
X48000430Y45013619D01*
X38710810Y46174761D02*
X37743191Y46174761D01*
X37646429Y45207142D01*
X37743191Y45303904D01*
X37936715Y45400666D01*
X38420524Y45400666D01*
X38614048Y45303904D01*
X38710810Y45207142D01*
X38807572Y45013619D01*
X38807572Y44529809D01*
X38710810Y44336285D01*
X38614048Y44239523D01*
X38420524Y44142761D01*
X37936715Y44142761D01*
X37743191Y44239523D01*
X37646429Y44336285D01*
X28454048Y45497428D02*
X28454048Y44142761D01*
X27970239Y46271523D02*
X27486429Y44820095D01*
X28744334Y44820095D01*
X47903668Y57604761D02*
X49161573Y57604761D01*
X48484240Y56830666D01*
X48774525Y56830666D01*
X48968049Y56733904D01*
X49064811Y56637142D01*
X49161573Y56443619D01*
X49161573Y55959809D01*
X49064811Y55766285D01*
X48968049Y55669523D01*
X48774525Y55572761D01*
X48193954Y55572761D01*
X48000430Y55669523D01*
X47903668Y55766285D01*
X37646429Y57411238D02*
X37743191Y57507999D01*
X37936715Y57604761D01*
X38420524Y57604761D01*
X38614048Y57507999D01*
X38710810Y57411238D01*
X38807572Y57217714D01*
X38807572Y57024190D01*
X38710810Y56733904D01*
X37549667Y55572761D01*
X38807572Y55572761D01*
X28647572Y55572761D02*
X27486429Y55572761D01*
X28067000Y55572761D02*
X28067000Y57604761D01*
X27873477Y57314476D01*
X27679953Y57120952D01*
X27486429Y57024190D01*
D16*
X39527000Y25351999D02*
X36927000Y25351999D01*
X39527000Y31751999D02*
X36927000Y31751999D01*
X41427000Y25751999D02*
X41427000Y31351999D01*
X35027000Y25751999D02*
X35027000Y31351999D01*
D17*
X112335002Y40954000D02*
X109675002Y40954000D01*
X112335002Y33274000D02*
X112335002Y40954000D01*
X109675002Y33274000D02*
X109675002Y40954000D01*
X112335002Y33274000D02*
X109675002Y33274000D01*
X112335002Y32004000D02*
X112335002Y30674000D01*
X112335002Y30674000D02*
X111005002Y30674000D01*
X69349002Y8167998D02*
X67849002Y8167998D01*
X69349002Y8167998D02*
X70849002Y8167998D01*
X69349002Y4947998D02*
X67849002Y4947998D01*
X69349002Y4947998D02*
X72274002Y4947998D01*
D16*
X24867000Y48611999D02*
X24867000Y54211999D01*
X31267000Y48611999D02*
X31267000Y54211999D01*
X29367000Y54611999D02*
X26767000Y54611999D01*
X29367000Y48211999D02*
X26767000Y48211999D01*
D17*
X51287000Y14383936D02*
X51287000Y15588064D01*
X53107000Y14383936D02*
X53107000Y15588064D01*
X104004000Y36316000D02*
X104004000Y30616000D01*
X99704000Y36316000D02*
X99704000Y30616000D01*
X104004000Y36316000D02*
X99704000Y36316000D01*
X89081000Y58587000D02*
X89081000Y58112000D01*
X89081000Y58112000D02*
X88606000Y58112000D01*
X81861000Y64857000D02*
X81861000Y65332000D01*
X81861000Y65332000D02*
X82336000Y65332000D01*
X81861000Y58587000D02*
X81861000Y58112000D01*
X81861000Y58112000D02*
X82336000Y58112000D01*
X89081000Y64857000D02*
X89081000Y65332000D01*
X58088002Y14002999D02*
X58088002Y16452999D01*
X54868002Y15802999D02*
X54868002Y14002999D01*
X85714000Y46396000D02*
X87514000Y46396000D01*
X87514000Y49616000D02*
X85064000Y49616000D01*
X97959001Y37182999D02*
X97959001Y39632999D01*
X94739001Y38982999D02*
X94739001Y37182999D01*
X87505000Y39212999D02*
X87505000Y38012999D01*
X83505000Y39212999D02*
X87505000Y39212999D01*
X87505000Y34412999D02*
X84805000Y34412999D01*
X87505000Y35612999D02*
X87505000Y34412999D01*
X75958000Y39252000D02*
X75958000Y38052000D01*
X71958000Y39252000D02*
X75958000Y39252000D01*
X75958000Y34452000D02*
X73258000Y34452000D01*
X75958000Y35652000D02*
X75958000Y34452000D01*
X56961001Y23482999D02*
X55501001Y23482999D01*
X56961001Y26642999D02*
X54801001Y26642999D01*
X56961001Y26642999D02*
X56961001Y25712999D01*
X56961001Y23482999D02*
X56961001Y24412999D01*
X68787001Y59472999D02*
X72317001Y59472999D01*
X68787001Y53002999D02*
X72317001Y53002999D01*
X67052001Y59407999D02*
X68787001Y59407999D01*
X68787001Y59472999D02*
X68787001Y59407999D01*
X72317001Y59472999D02*
X72317001Y59407999D01*
X68787001Y53067999D02*
X68787001Y53002999D01*
X72317001Y53067999D02*
X72317001Y53002999D01*
D18*
X71965001Y33444999D02*
X71965001Y16680999D01*
X61297001Y33444999D02*
X61297001Y16680999D01*
X71965001Y33444999D02*
X61297001Y33444999D01*
X71965001Y16680999D02*
X61297001Y16680999D01*
D11*
X81026000Y70129400D02*
X81026000Y72110600D01*
X81026000Y70129400D02*
X75031600Y70129400D01*
X81026000Y72110600D02*
X75031600Y72110600D01*
X75031600Y70129400D02*
X75031600Y72110600D01*
D17*
X100556001Y57055000D02*
X97356001Y57055000D01*
X97356001Y57055000D02*
X97356001Y61055000D01*
X75236000Y91236000D02*
X75236000Y93051000D01*
X75471000Y91236000D02*
X75236000Y91236000D01*
X75471000Y87376000D02*
X75471000Y91236000D01*
X75471000Y83516000D02*
X75236000Y83516000D01*
X75471000Y87376000D02*
X75471000Y83516000D01*
X62451000Y91236000D02*
X62686000Y91236000D01*
X62451000Y87376000D02*
X62451000Y91236000D01*
X62451000Y83516000D02*
X62686000Y83516000D01*
X62451000Y87376000D02*
X62451000Y83516000D01*
X82607000Y49556000D02*
X80207000Y49556000D01*
X80207000Y46456000D02*
X83157000Y46456000D01*
X60899002Y6697998D02*
X60899002Y7687998D01*
X65099002Y6697998D02*
X65099002Y7687998D01*
X42946000Y77978000D02*
X42946000Y74528000D01*
X42946000Y77978000D02*
X42946000Y79928000D01*
X53066000Y77978000D02*
X53066000Y76028000D01*
X53066000Y77978000D02*
X53066000Y79928000D01*
X93503001Y53045999D02*
X93253001Y53045999D01*
X96473001Y49825999D02*
X96473001Y50075999D01*
X96223001Y49825999D02*
X96473001Y49825999D01*
X93253001Y49825999D02*
X93253001Y50075999D01*
X93503001Y49825999D02*
X93253001Y49825999D01*
X96473001Y53045999D02*
X96473001Y52795999D01*
X96223001Y53045999D02*
X96473001Y53045999D01*
X85499001Y19251999D02*
X85499001Y18151999D01*
X87309001Y19251999D02*
X85499001Y19251999D01*
X87309001Y20751999D02*
X87309001Y19251999D01*
X78719001Y19251999D02*
X78719001Y14126999D01*
X76909001Y19251999D02*
X78719001Y19251999D01*
X76909001Y20751999D02*
X76909001Y19251999D01*
D16*
X95758000Y43688000D02*
G75*
G03X95758000Y43688000I-1524000J0D01*
G01*
X63754000Y43688000D02*
G75*
G03X63754000Y43688000I-1524000J0D01*
G01*
X93555001Y20810999D02*
G75*
G03X93555001Y20810999I-1524000J0D01*
G01*
X90932000Y43688000D02*
G75*
G03X90932000Y43688000I-1524000J0D01*
G01*
X79248000Y43688000D02*
G75*
G03X79248000Y43688000I-1524000J0D01*
G01*
X93555001Y33002999D02*
G75*
G03X93555001Y33002999I-1524000J0D01*
G01*
X58166000Y43688000D02*
G75*
G03X58166000Y43688000I-1524000J0D01*
G01*
X93555001Y26906999D02*
G75*
G03X93555001Y26906999I-1524000J0D01*
G01*
X58166000Y37338000D02*
G75*
G03X58166000Y37338000I-1524000J0D01*
G01*
D17*
X66929000Y46990000D02*
X69215000Y46990000D01*
X65278000Y43053000D02*
X65278000Y45339000D01*
X66929000Y41402000D02*
X69215000Y41402000D01*
X70866000Y43053000D02*
X70866000Y45339000D01*
D16*
X14912497Y5073019D02*
X13074019Y6911497D01*
X19437981Y9598503D02*
X17599503Y11436981D01*
X16538843Y4012359D02*
X20498641Y7972157D01*
X12013359Y8537843D02*
X15973157Y12497641D01*
X22472498Y12670018D02*
X20634020Y14508496D01*
X26997982Y17195502D02*
X25159504Y19033980D01*
X24098844Y11609358D02*
X28058642Y15569156D01*
X19573360Y16134842D02*
X23533158Y20094640D01*
X14852498Y20313019D02*
X13014020Y22151497D01*
X19377982Y24838503D02*
X17539504Y26676981D01*
X16478844Y19252359D02*
X20438642Y23212157D01*
X11953360Y23777843D02*
X15913158Y27737641D01*
X7232498Y12670018D02*
X5394020Y14508496D01*
X11757982Y17195502D02*
X9919504Y19033980D01*
X8858844Y11609358D02*
X12818642Y15569156D01*
X4333360Y16134842D02*
X8293158Y20094640D01*
X49881001Y25351999D02*
X47281001Y25351999D01*
X49881001Y31751999D02*
X47281001Y31751999D01*
X51781001Y25751999D02*
X51781001Y31351999D01*
X45381001Y25751999D02*
X45381001Y31351999D01*
X29367000Y25351999D02*
X26767000Y25351999D01*
X29367000Y31751999D02*
X26767000Y31751999D01*
X31267000Y25751999D02*
X31267000Y31351999D01*
X24867000Y25751999D02*
X24867000Y31351999D01*
X39527000Y13921999D02*
X36927000Y13921999D01*
X39527000Y20321999D02*
X36927000Y20321999D01*
X41427000Y14321999D02*
X41427000Y19921999D01*
X35027000Y14321999D02*
X35027000Y19921999D01*
X49881001Y36781999D02*
X47281001Y36781999D01*
X49881001Y43181999D02*
X47281001Y43181999D01*
X51781001Y37181999D02*
X51781001Y42781999D01*
X45381001Y37181999D02*
X45381001Y42781999D01*
X39527000Y36781999D02*
X36927000Y36781999D01*
X39527000Y43181999D02*
X36927000Y43181999D01*
X41427000Y37181999D02*
X41427000Y42781999D01*
X35027000Y37181999D02*
X35027000Y42781999D01*
X29367000Y36781999D02*
X26767000Y36781999D01*
X29367000Y43181999D02*
X26767000Y43181999D01*
X31267000Y37181999D02*
X31267000Y42781999D01*
X24867000Y37181999D02*
X24867000Y42781999D01*
X7232498Y26640018D02*
X5394020Y28478496D01*
X11757982Y31165502D02*
X9919504Y33003980D01*
X8858844Y25579358D02*
X12818642Y29539156D01*
X4333360Y30104842D02*
X8293158Y34064640D01*
X45381001Y48611999D02*
X45381001Y54211999D01*
X51781001Y48611999D02*
X51781001Y54211999D01*
X49881001Y54611999D02*
X47281001Y54611999D01*
X49881001Y48211999D02*
X47281001Y48211999D01*
X35027000Y48611999D02*
X35027000Y54211999D01*
X41427000Y48611999D02*
X41427000Y54211999D01*
X39527000Y54611999D02*
X36927000Y54611999D01*
X39527000Y48211999D02*
X36927000Y48211999D01*
X11953360Y37724842D02*
X15913158Y41684640D01*
X16478844Y33199358D02*
X20438642Y37159156D01*
X19377982Y38785502D02*
X17539504Y40623980D01*
X14852498Y34260018D02*
X13014020Y36098496D01*
X14986000Y61214000D02*
G75*
G03X14986000Y61214000I-6096000J0D01*
G01*
X7620000Y57404000D02*
X6350000Y57404000D01*
X6985000Y56769000D02*
X6985000Y58039000D01*
X7620000Y65024000D02*
X6350000Y65024000D01*
D17*
X26603000Y65002000D02*
X26603000Y65702000D01*
X25903000Y65002000D02*
X26603000Y65002000D01*
X22103000Y68402000D02*
X22103000Y67802000D01*
X25003000Y68402000D02*
X22103000Y68402000D01*
X22103000Y65202000D02*
X22103000Y65802000D01*
X25003000Y65202000D02*
X22103000Y65202000D01*
X26103000Y66602000D02*
X26103000Y67002000D01*
X68564268Y2895999D02*
X68221734Y2895999D01*
X68564268Y3915999D02*
X68221734Y3915999D01*
X60962000Y94951733D02*
X60962000Y95294267D01*
X59942000Y94951733D02*
X59942000Y95294267D01*
X58422000Y94951733D02*
X58422000Y95294267D01*
X57402000Y94951733D02*
X57402000Y95294267D01*
X55882000Y94951733D02*
X55882000Y95294267D01*
X54862000Y94951733D02*
X54862000Y95294267D01*
X98634733Y42420000D02*
X98977267Y42420000D01*
X98634733Y41400000D02*
X98977267Y41400000D01*
X100666733Y40134000D02*
X101009267Y40134000D01*
X100666733Y39114000D02*
X101009267Y39114000D01*
X92200000Y39877732D02*
X92200000Y40220266D01*
X93220000Y39877732D02*
X93220000Y40220266D01*
X91605734Y37340000D02*
X91948268Y37340000D01*
X91605734Y36320000D02*
X91948268Y36320000D01*
X52957000Y56559267D02*
X52957000Y56216733D01*
X53977000Y56559267D02*
X53977000Y56216733D01*
X42797000Y56559267D02*
X42797000Y56216733D01*
X43817000Y56559267D02*
X43817000Y56216733D01*
X33657000Y56559267D02*
X33657000Y56216733D01*
X32637000Y56559267D02*
X32637000Y56216733D01*
X9061267Y51310000D02*
X8718733Y51310000D01*
X9061267Y50290000D02*
X8718733Y50290000D01*
X76777001Y4847266D02*
X76777001Y4504732D01*
X75757001Y4847266D02*
X75757001Y4504732D01*
X74745001Y19325266D02*
X74745001Y18982732D01*
X73725001Y19325266D02*
X73725001Y18982732D01*
X61465000Y59801000D02*
X64265000Y59801000D01*
X64265000Y59801000D02*
X64265000Y57801000D01*
X64265000Y57801000D02*
X61465000Y57801000D01*
X61465000Y57801000D02*
X61465000Y59801000D01*
D11*
X57061100Y7896860D02*
X57061100Y5196840D01*
X49263300Y7896860D02*
X49263300Y5196840D01*
X57061100Y2397760D02*
X57061100Y1597660D01*
X49263300Y2397760D02*
X49263300Y1597660D01*
X49263300Y1597660D02*
X57061100Y1597660D01*
X55161180Y10599420D02*
X56362600Y10599420D01*
X49961800Y10599420D02*
X51160680Y10599420D01*
X110036000Y9075998D02*
X110036000Y17330998D01*
X97031200Y9075998D02*
X97031200Y17330998D01*
X110036000Y12504998D02*
X97031200Y12504998D01*
D17*
X106255001Y99582999D02*
X106505001Y99082999D01*
X106505001Y99082999D02*
X106005001Y99082999D01*
X106005001Y99082999D02*
X106255001Y99582999D01*
X75145001Y11882063D02*
X75145001Y10677935D01*
X73325001Y11882063D02*
X73325001Y10677935D01*
X76498267Y46734000D02*
X76155733Y46734000D01*
X76498267Y47754000D02*
X76155733Y47754000D01*
X90158937Y15116999D02*
X91363065Y15116999D01*
X90158937Y13296999D02*
X91363065Y13296999D01*
X57669001Y19744999D02*
X57669001Y22604999D01*
X57669001Y22604999D02*
X55749001Y22604999D01*
X55749001Y22604999D02*
X55749001Y19744999D01*
X54383001Y18884999D02*
X54383001Y21744999D01*
X52463001Y18884999D02*
X54383001Y18884999D01*
X52463001Y21744999D02*
X52463001Y18884999D01*
X58959001Y28380999D02*
X55059001Y28380999D01*
X58959001Y30380999D02*
X55059001Y30380999D01*
X58959001Y28380999D02*
X58959001Y30380999D01*
X41092000Y64942000D02*
X41092000Y67802000D01*
X39172000Y64942000D02*
X41092000Y64942000D01*
X39172000Y67802000D02*
X39172000Y64942000D01*
X37813001Y64942000D02*
X37813001Y67802000D01*
X35893001Y64942000D02*
X37813001Y64942000D01*
X35893001Y67802000D02*
X35893001Y64942000D01*
X34488000Y64942000D02*
X34488000Y67802000D01*
X32568000Y64942000D02*
X34488000Y64942000D01*
X32568000Y67802000D02*
X32568000Y64942000D01*
X49332000Y67802000D02*
X49332000Y64942000D01*
X49332000Y64942000D02*
X51252000Y64942000D01*
X51252000Y64942000D02*
X51252000Y67802000D01*
X45776000Y67802000D02*
X45776000Y64942000D01*
X45776000Y64942000D02*
X47696000Y64942000D01*
X47696000Y64942000D02*
X47696000Y67802000D01*
X95433000Y34002999D02*
X95433000Y31142999D01*
X95433000Y31142999D02*
X97353000Y31142999D01*
X97353000Y31142999D02*
X97353000Y34002999D01*
X95433000Y27906999D02*
X95433000Y25046999D01*
X95433000Y25046999D02*
X97353000Y25046999D01*
X97353000Y25046999D02*
X97353000Y27906999D01*
X55800000Y61079000D02*
X51740000Y61079000D01*
X55800000Y58809000D02*
X55800000Y61079000D01*
X51740000Y58809000D02*
X55800000Y58809000D01*
X45894000Y61079000D02*
X41834000Y61079000D01*
X45894000Y58809000D02*
X45894000Y61079000D01*
X41834000Y58809000D02*
X45894000Y58809000D01*
X35734000Y61079000D02*
X31674000Y61079000D01*
X35734000Y58809000D02*
X35734000Y61079000D01*
X31674000Y58809000D02*
X35734000Y58809000D01*
X26082000Y61079000D02*
X22022000Y61079000D01*
X26082000Y58809000D02*
X26082000Y61079000D01*
X22022000Y58809000D02*
X26082000Y58809000D01*
X70686253Y13871999D02*
X70163749Y13871999D01*
X70686253Y15291999D02*
X70163749Y15291999D01*
X70596268Y11531999D02*
X70253734Y11531999D01*
X70596268Y12551999D02*
X70253734Y12551999D01*
X70536269Y9222998D02*
X70193735Y9222998D01*
X70536269Y10242998D02*
X70193735Y10242998D01*
X62289749Y11989999D02*
X62812253Y11989999D01*
X62289749Y10569999D02*
X62812253Y10569999D01*
X78615000Y75012733D02*
X78615000Y75355267D01*
X77595000Y75012733D02*
X77595000Y75355267D01*
X80135000Y75355267D02*
X80135000Y75012733D01*
X81155000Y75355267D02*
X81155000Y75012733D01*
X78996000Y57740733D02*
X78996000Y58083267D01*
X77976000Y57740733D02*
X77976000Y58083267D01*
X94532267Y63248000D02*
X94189733Y63248000D01*
X94532267Y62228000D02*
X94189733Y62228000D01*
X94532267Y60708000D02*
X94189733Y60708000D01*
X94532267Y59688000D02*
X94189733Y59688000D01*
X84320748Y52122000D02*
X84843252Y52122000D01*
X84320748Y53542000D02*
X84843252Y53542000D01*
X87969001Y53526732D02*
X87969001Y53869266D01*
X86949001Y53526732D02*
X86949001Y53869266D01*
X76837000Y57740733D02*
X76837000Y58083267D01*
X75817000Y57740733D02*
X75817000Y58083267D01*
X77111734Y64641000D02*
X77454268Y64641000D01*
X77111734Y65661000D02*
X77454268Y65661000D01*
X94532267Y58168000D02*
X94189733Y58168000D01*
X94532267Y57148000D02*
X94189733Y57148000D01*
X74377733Y78996000D02*
X74720267Y78996000D01*
X74377733Y77976000D02*
X74720267Y77976000D01*
X55882000Y77806733D02*
X55882000Y78149267D01*
X54862000Y77806733D02*
X54862000Y78149267D01*
X96758268Y47115000D02*
X96415734Y47115000D01*
X96758268Y48135000D02*
X96415734Y48135000D01*
X91188000Y53511267D02*
X91188000Y53168733D01*
X90168000Y53511267D02*
X90168000Y53168733D01*
X98617001Y51009733D02*
X98617001Y51352267D01*
X99637001Y51009733D02*
X99637001Y51352267D01*
X85582268Y40384000D02*
X85239734Y40384000D01*
X85582268Y41404000D02*
X85239734Y41404000D01*
X79754000Y37420733D02*
X79754000Y37763267D01*
X80774000Y37420733D02*
X80774000Y37763267D01*
X74125253Y44144000D02*
X73602749Y44144000D01*
X74125253Y42724000D02*
X73602749Y42724000D01*
X74035268Y41404000D02*
X73692734Y41404000D01*
X74035268Y40384000D02*
X73692734Y40384000D01*
X70233000Y37419732D02*
X70233000Y37762266D01*
X69213000Y37419732D02*
X69213000Y37762266D01*
X66219000Y37330748D02*
X66219000Y37853252D01*
X67639000Y37330748D02*
X67639000Y37853252D01*
X82341001Y3919999D02*
X82341001Y11954999D01*
X82341001Y11954999D02*
X78321001Y11954999D01*
X78321001Y11954999D02*
X78321001Y3919999D01*
X85687001Y11954999D02*
X85687001Y3919999D01*
X89707001Y11954999D02*
X85687001Y11954999D01*
X89707001Y3919999D02*
X89707001Y11954999D01*
X107790000Y28168000D02*
X99730000Y28168000D01*
X99730000Y28168000D02*
X99730000Y23648000D01*
X99730000Y23648000D02*
X107790000Y23648000D01*
D19*
X36848143Y28223009D02*
X36957000Y28184304D01*
X37138429Y28184304D01*
X37211000Y28223009D01*
X37247286Y28261714D01*
X37283572Y28339123D01*
X37283572Y28416533D01*
X37247286Y28493942D01*
X37211000Y28532647D01*
X37138429Y28571352D01*
X36993286Y28610057D01*
X36920715Y28648761D01*
X36884429Y28687466D01*
X36848143Y28764876D01*
X36848143Y28842285D01*
X36884429Y28919695D01*
X36920715Y28958399D01*
X36993286Y28997104D01*
X37174715Y28997104D01*
X37283572Y28958399D01*
X37537572Y28997104D02*
X37719000Y28184304D01*
X37864143Y28764876D01*
X38009286Y28184304D01*
X38190715Y28997104D01*
X38880143Y28184304D02*
X38444715Y28184304D01*
X38662429Y28184304D02*
X38662429Y28997104D01*
X38589858Y28880990D01*
X38517286Y28803580D01*
X38444715Y28764876D01*
X39170429Y28919695D02*
X39206715Y28958399D01*
X39279286Y28997104D01*
X39460715Y28997104D01*
X39533286Y28958399D01*
X39569572Y28919695D01*
X39605858Y28842285D01*
X39605858Y28764876D01*
X39569572Y28648761D01*
X39134143Y28184304D01*
X39605858Y28184304D01*
X110751002Y30119105D02*
X110751002Y29538534D01*
X110714717Y29422420D01*
X110642145Y29345010D01*
X110533288Y29306305D01*
X110460717Y29306305D01*
X111077574Y30041696D02*
X111113860Y30080400D01*
X111186431Y30119105D01*
X111367860Y30119105D01*
X111440431Y30080400D01*
X111476717Y30041696D01*
X111513002Y29964286D01*
X111513002Y29886877D01*
X111476717Y29770762D01*
X111041288Y29306305D01*
X111513002Y29306305D01*
D13*
X70430572Y4553103D02*
X70430572Y3895122D01*
X70466858Y3817713D01*
X70503143Y3779008D01*
X70575715Y3740303D01*
X70720858Y3740303D01*
X70793429Y3779008D01*
X70829715Y3817713D01*
X70866000Y3895122D01*
X70866000Y4553103D01*
X71628000Y3740303D02*
X71192572Y3740303D01*
X71410286Y3740303D02*
X71410286Y4553103D01*
X71337715Y4436989D01*
X71265143Y4359579D01*
X71192572Y4320875D01*
X71882000Y4553103D02*
X72353715Y4553103D01*
X72099715Y4243465D01*
X72208572Y4243465D01*
X72281143Y4204760D01*
X72317429Y4166056D01*
X72353715Y4088646D01*
X72353715Y3895122D01*
X72317429Y3817713D01*
X72281143Y3779008D01*
X72208572Y3740303D01*
X71990858Y3740303D01*
X71918286Y3779008D01*
X71882000Y3817713D01*
D19*
X114557143Y67683143D02*
X114604762Y67635524D01*
X114652381Y67492667D01*
X114652381Y67397429D01*
X114604762Y67254572D01*
X114509524Y67159334D01*
X114414286Y67111715D01*
X114223810Y67064096D01*
X114080953Y67064096D01*
X113890477Y67111715D01*
X113795239Y67159334D01*
X113700000Y67254572D01*
X113652381Y67397429D01*
X113652381Y67492667D01*
X113700000Y67635524D01*
X113747620Y67683143D01*
X113747620Y68064096D02*
X113700000Y68111715D01*
X113652381Y68206953D01*
X113652381Y68445048D01*
X113700000Y68540286D01*
X113747620Y68587905D01*
X113842858Y68635524D01*
X113938096Y68635524D01*
X114080953Y68587905D01*
X114652381Y68016477D01*
X114652381Y68635524D01*
X113652381Y69540286D02*
X113652381Y69064096D01*
X114128572Y69016477D01*
X114080953Y69064096D01*
X114033334Y69159334D01*
X114033334Y69397429D01*
X114080953Y69492667D01*
X114128572Y69540286D01*
X114223810Y69587905D01*
X114461905Y69587905D01*
X114557143Y69540286D01*
X114604762Y69492667D01*
X114652381Y69397429D01*
X114652381Y69159334D01*
X114604762Y69064096D01*
X114557143Y69016477D01*
X27051000Y51083009D02*
X27159858Y51044304D01*
X27341286Y51044304D01*
X27413858Y51083009D01*
X27450143Y51121714D01*
X27486429Y51199123D01*
X27486429Y51276533D01*
X27450143Y51353942D01*
X27413858Y51392647D01*
X27341286Y51431352D01*
X27196143Y51470057D01*
X27123572Y51508761D01*
X27087286Y51547466D01*
X27051000Y51624876D01*
X27051000Y51702285D01*
X27087286Y51779695D01*
X27123572Y51818399D01*
X27196143Y51857104D01*
X27377572Y51857104D01*
X27486429Y51818399D01*
X27740429Y51857104D02*
X27921858Y51044304D01*
X28067000Y51624876D01*
X28212143Y51044304D01*
X28393572Y51857104D01*
X28611286Y51857104D02*
X29083000Y51857104D01*
X28829000Y51547466D01*
X28937858Y51547466D01*
X29010429Y51508761D01*
X29046715Y51470057D01*
X29083000Y51392647D01*
X29083000Y51199123D01*
X29046715Y51121714D01*
X29010429Y51083009D01*
X28937858Y51044304D01*
X28720143Y51044304D01*
X28647572Y51083009D01*
X28611286Y51121714D01*
X50318943Y14732000D02*
X50318943Y14478000D01*
X50744696Y14478000D02*
X49931896Y14478000D01*
X49931896Y14840858D01*
X50744696Y15530286D02*
X50744696Y15094858D01*
X50744696Y15312572D02*
X49931896Y15312572D01*
X50048010Y15240000D01*
X50125420Y15167429D01*
X50164124Y15094858D01*
X104382380Y36853905D02*
X103382380Y36853905D01*
X103382380Y37092000D01*
X103429999Y37234858D01*
X103525238Y37330096D01*
X103620476Y37377715D01*
X103810952Y37425334D01*
X103953809Y37425334D01*
X104144285Y37377715D01*
X104239523Y37330096D01*
X104334761Y37234858D01*
X104382380Y37092000D01*
X104382380Y36853905D01*
X104382380Y38377715D02*
X104382380Y37806286D01*
X104382380Y38092000D02*
X103382380Y38092000D01*
X103525238Y37996762D01*
X103620476Y37901524D01*
X103668095Y37806286D01*
X89845896Y61141429D02*
X90503877Y61141429D01*
X90581286Y61177715D01*
X90619991Y61214000D01*
X90658696Y61286572D01*
X90658696Y61431715D01*
X90619991Y61504286D01*
X90581286Y61540572D01*
X90503877Y61576858D01*
X89845896Y61576858D01*
X90194239Y62048572D02*
X90155534Y61976000D01*
X90116829Y61939715D01*
X90039420Y61903429D01*
X90000715Y61903429D01*
X89923305Y61939715D01*
X89884600Y61976000D01*
X89845896Y62048572D01*
X89845896Y62193715D01*
X89884600Y62266286D01*
X89923305Y62302572D01*
X90000715Y62338858D01*
X90039420Y62338858D01*
X90116829Y62302572D01*
X90155534Y62266286D01*
X90194239Y62193715D01*
X90194239Y62048572D01*
X90232943Y61976000D01*
X90271648Y61939715D01*
X90349058Y61903429D01*
X90503877Y61903429D01*
X90581286Y61939715D01*
X90619991Y61976000D01*
X90658696Y62048572D01*
X90658696Y62193715D01*
X90619991Y62266286D01*
X90581286Y62302572D01*
X90503877Y62338858D01*
X90349058Y62338858D01*
X90271648Y62302572D01*
X90232943Y62266286D01*
X90194239Y62193715D01*
X58830383Y13664904D02*
X59639907Y13664904D01*
X59735145Y13712523D01*
X59782764Y13760142D01*
X59830383Y13855380D01*
X59830383Y14045857D01*
X59782764Y14141095D01*
X59735145Y14188714D01*
X59639907Y14236333D01*
X58830383Y14236333D01*
X59830383Y15236333D02*
X59830383Y14664904D01*
X59830383Y14950619D02*
X58830383Y14950619D01*
X58973241Y14855380D01*
X59068479Y14760142D01*
X59116098Y14664904D01*
X58925622Y15617285D02*
X58878002Y15664904D01*
X58830383Y15760142D01*
X58830383Y15998238D01*
X58878002Y16093476D01*
X58925622Y16141095D01*
X59020860Y16188714D01*
X59116098Y16188714D01*
X59258955Y16141095D01*
X59830383Y15569666D01*
X59830383Y16188714D01*
X85852096Y51453620D02*
X85852096Y50644096D01*
X85899715Y50548858D01*
X85947334Y50501239D01*
X86042572Y50453620D01*
X86233048Y50453620D01*
X86328286Y50501239D01*
X86375905Y50548858D01*
X86423524Y50644096D01*
X86423524Y51453620D01*
X86947334Y50453620D02*
X87137810Y50453620D01*
X87233048Y50501239D01*
X87280667Y50548858D01*
X87375905Y50691715D01*
X87423524Y50882191D01*
X87423524Y51263143D01*
X87375905Y51358381D01*
X87328286Y51406000D01*
X87233048Y51453620D01*
X87042572Y51453620D01*
X86947334Y51406000D01*
X86899715Y51358381D01*
X86852096Y51263143D01*
X86852096Y51025048D01*
X86899715Y50929810D01*
X86947334Y50882191D01*
X87042572Y50834572D01*
X87233048Y50834572D01*
X87328286Y50882191D01*
X87375905Y50929810D01*
X87423524Y51025048D01*
D13*
X98668430Y38528104D02*
X98668430Y37870123D01*
X98704716Y37792714D01*
X98741001Y37754009D01*
X98813573Y37715304D01*
X98958716Y37715304D01*
X99031287Y37754009D01*
X99067573Y37792714D01*
X99103859Y37870123D01*
X99103859Y38528104D01*
X99793287Y38257171D02*
X99793287Y37715304D01*
X99611859Y38566809D02*
X99430430Y37986238D01*
X99902144Y37986238D01*
X85271429Y34100105D02*
X85271429Y33442124D01*
X85307715Y33364715D01*
X85344000Y33326010D01*
X85416572Y33287305D01*
X85561715Y33287305D01*
X85634286Y33326010D01*
X85670572Y33364715D01*
X85706858Y33442124D01*
X85706858Y34100105D01*
X85997143Y34100105D02*
X86468858Y34100105D01*
X86214858Y33790467D01*
X86323715Y33790467D01*
X86396286Y33751762D01*
X86432572Y33713058D01*
X86468858Y33635648D01*
X86468858Y33442124D01*
X86432572Y33364715D01*
X86396286Y33326010D01*
X86323715Y33287305D01*
X86106000Y33287305D01*
X86033429Y33326010D01*
X85997143Y33364715D01*
X73841429Y34100105D02*
X73841429Y33442124D01*
X73877715Y33364715D01*
X73914000Y33326010D01*
X73986572Y33287305D01*
X74131715Y33287305D01*
X74204286Y33326010D01*
X74240572Y33364715D01*
X74276858Y33442124D01*
X74276858Y34100105D01*
X74603429Y34022696D02*
X74639715Y34061400D01*
X74712286Y34100105D01*
X74893715Y34100105D01*
X74966286Y34061400D01*
X75002572Y34022696D01*
X75038858Y33945286D01*
X75038858Y33867877D01*
X75002572Y33751762D01*
X74567143Y33287305D01*
X75038858Y33287305D01*
D19*
X56105763Y27015380D02*
X56010525Y27062999D01*
X55915287Y27158238D01*
X55772430Y27301095D01*
X55677192Y27348714D01*
X55581954Y27348714D01*
X55629573Y27110619D02*
X55534335Y27158238D01*
X55439097Y27253476D01*
X55391478Y27443952D01*
X55391478Y27777285D01*
X55439097Y27967761D01*
X55534335Y28062999D01*
X55629573Y28110619D01*
X55820049Y28110619D01*
X55915287Y28062999D01*
X56010525Y27967761D01*
X56058144Y27777285D01*
X56058144Y27443952D01*
X56010525Y27253476D01*
X55915287Y27158238D01*
X55820049Y27110619D01*
X55629573Y27110619D01*
X57010525Y27110619D02*
X56439097Y27110619D01*
X56724811Y27110619D02*
X56724811Y28110619D01*
X56629573Y27967761D01*
X56534335Y27872523D01*
X56439097Y27824904D01*
D13*
X70298001Y61151105D02*
X70298001Y60570534D01*
X70261716Y60454420D01*
X70189144Y60377010D01*
X70080287Y60338305D01*
X70007716Y60338305D01*
X71023716Y61151105D02*
X70660859Y61151105D01*
X70624573Y60764058D01*
X70660859Y60802762D01*
X70733430Y60841467D01*
X70914859Y60841467D01*
X70987430Y60802762D01*
X71023716Y60764058D01*
X71060001Y60686648D01*
X71060001Y60493124D01*
X71023716Y60415715D01*
X70987430Y60377010D01*
X70914859Y60338305D01*
X70733430Y60338305D01*
X70660859Y60377010D01*
X70624573Y60415715D01*
D19*
X59923763Y23729666D02*
X59971382Y23872523D01*
X59971382Y24110619D01*
X59923763Y24205857D01*
X59876144Y24253476D01*
X59780906Y24301095D01*
X59685668Y24301095D01*
X59590430Y24253476D01*
X59542811Y24205857D01*
X59495192Y24110619D01*
X59447573Y23920142D01*
X59399954Y23824904D01*
X59352335Y23777285D01*
X59257097Y23729666D01*
X59161859Y23729666D01*
X59066621Y23777285D01*
X59019001Y23824904D01*
X58971382Y23920142D01*
X58971382Y24158238D01*
X59019001Y24301095D01*
X58971382Y24634428D02*
X59971382Y24872523D01*
X59257097Y25062999D01*
X59971382Y25253476D01*
X58971382Y25491571D01*
X59971382Y26396333D02*
X59971382Y25824904D01*
X59971382Y26110619D02*
X58971382Y26110619D01*
X59114240Y26015380D01*
X59209478Y25920142D01*
X59257097Y25824904D01*
D13*
X73551143Y71139353D02*
X73551143Y70752305D01*
X73297143Y71565105D02*
X73551143Y71139353D01*
X73805143Y71565105D01*
X74458286Y70752305D02*
X74022858Y70752305D01*
X74240572Y70752305D02*
X74240572Y71565105D01*
X74168000Y71448991D01*
X74095429Y71371581D01*
X74022858Y71332877D01*
D19*
X98329810Y56157810D02*
X98329810Y55681620D01*
X97996477Y56681620D02*
X98329810Y56157810D01*
X98663143Y56681620D01*
X98948858Y56586381D02*
X98996477Y56634000D01*
X99091715Y56681620D01*
X99329810Y56681620D01*
X99425048Y56634000D01*
X99472667Y56586381D01*
X99520286Y56491143D01*
X99520286Y56395905D01*
X99472667Y56253048D01*
X98901239Y55681620D01*
X99520286Y55681620D01*
D13*
X111506000Y63618534D02*
X111868858Y63618534D01*
X111433429Y63386305D02*
X111687429Y64199105D01*
X111941429Y63386305D01*
X112195429Y63812058D02*
X112449429Y63812058D01*
X112558286Y63386305D02*
X112195429Y63386305D01*
X112195429Y64199105D01*
X112558286Y64199105D01*
X113284000Y63386305D02*
X112848572Y63386305D01*
X113066286Y63386305D02*
X113066286Y64199105D01*
X112993715Y64082991D01*
X112921143Y64005581D01*
X112848572Y63966877D01*
D19*
X75865896Y86795429D02*
X76523877Y86795429D01*
X76601286Y86831715D01*
X76639991Y86868000D01*
X76678696Y86940572D01*
X76678696Y87085715D01*
X76639991Y87158286D01*
X76601286Y87194572D01*
X76523877Y87230858D01*
X75865896Y87230858D01*
X75865896Y87521143D02*
X75865896Y88029143D01*
X76678696Y87702572D01*
X80148905Y46173620D02*
X80148905Y45364096D01*
X80196524Y45268858D01*
X80244143Y45221239D01*
X80339381Y45173620D01*
X80529858Y45173620D01*
X80625096Y45221239D01*
X80672715Y45268858D01*
X80720334Y45364096D01*
X80720334Y46173620D01*
X81720334Y45173620D02*
X81148905Y45173620D01*
X81434620Y45173620D02*
X81434620Y46173620D01*
X81339381Y46030762D01*
X81244143Y45935524D01*
X81148905Y45887905D01*
X82339381Y46173620D02*
X82434620Y46173620D01*
X82529858Y46126000D01*
X82577477Y46078381D01*
X82625096Y45983143D01*
X82672715Y45792667D01*
X82672715Y45554572D01*
X82625096Y45364096D01*
X82577477Y45268858D01*
X82529858Y45221239D01*
X82434620Y45173620D01*
X82339381Y45173620D01*
X82244143Y45221239D01*
X82196524Y45268858D01*
X82148905Y45364096D01*
X82101286Y45554572D01*
X82101286Y45792667D01*
X82148905Y45983143D01*
X82196524Y46078381D01*
X82244143Y46126000D01*
X82339381Y46173620D01*
D13*
X107587143Y69813715D02*
X107550858Y69775010D01*
X107442000Y69736305D01*
X107369429Y69736305D01*
X107260572Y69775010D01*
X107188000Y69852420D01*
X107151715Y69929829D01*
X107115429Y70084648D01*
X107115429Y70200762D01*
X107151715Y70355581D01*
X107188000Y70432991D01*
X107260572Y70510400D01*
X107369429Y70549105D01*
X107442000Y70549105D01*
X107550858Y70510400D01*
X107587143Y70471696D01*
X107877429Y70471696D02*
X107913715Y70510400D01*
X107986286Y70549105D01*
X108167715Y70549105D01*
X108240286Y70510400D01*
X108276572Y70471696D01*
X108312858Y70394286D01*
X108312858Y70316877D01*
X108276572Y70200762D01*
X107841143Y69736305D01*
X108312858Y69736305D01*
X108966000Y70549105D02*
X108820858Y70549105D01*
X108748286Y70510400D01*
X108712000Y70471696D01*
X108639429Y70355581D01*
X108603143Y70200762D01*
X108603143Y69891124D01*
X108639429Y69813715D01*
X108675715Y69775010D01*
X108748286Y69736305D01*
X108893429Y69736305D01*
X108966000Y69775010D01*
X109002286Y69813715D01*
X109038572Y69891124D01*
X109038572Y70084648D01*
X109002286Y70162058D01*
X108966000Y70200762D01*
X108893429Y70239467D01*
X108748286Y70239467D01*
X108675715Y70200762D01*
X108639429Y70162058D01*
X108603143Y70084648D01*
D19*
X59817000Y6825303D02*
X59454143Y6825303D01*
X59454143Y7638103D01*
X60397572Y7638103D02*
X60252429Y7638103D01*
X60179858Y7599398D01*
X60143572Y7560694D01*
X60071000Y7444579D01*
X60034715Y7289760D01*
X60034715Y6980122D01*
X60071000Y6902713D01*
X60107286Y6864008D01*
X60179858Y6825303D01*
X60325000Y6825303D01*
X60397572Y6864008D01*
X60433858Y6902713D01*
X60470143Y6980122D01*
X60470143Y7173646D01*
X60433858Y7251056D01*
X60397572Y7289760D01*
X60325000Y7328465D01*
X60179858Y7328465D01*
X60107286Y7289760D01*
X60071000Y7251056D01*
X60034715Y7173646D01*
X62175572Y104077105D02*
X62175572Y103419124D01*
X62211858Y103341715D01*
X62248143Y103303010D01*
X62320715Y103264305D01*
X62465858Y103264305D01*
X62538429Y103303010D01*
X62574715Y103341715D01*
X62611000Y103419124D01*
X62611000Y104077105D01*
X63373000Y103264305D02*
X62937572Y103264305D01*
X63155286Y103264305D02*
X63155286Y104077105D01*
X63082715Y103960991D01*
X63010143Y103883581D01*
X62937572Y103844877D01*
X64098715Y103264305D02*
X63663286Y103264305D01*
X63881000Y103264305D02*
X63881000Y104077105D01*
X63808429Y103960991D01*
X63735858Y103883581D01*
X63663286Y103844877D01*
X41660896Y77397429D02*
X42318877Y77397429D01*
X42396286Y77433715D01*
X42434991Y77470000D01*
X42473696Y77542572D01*
X42473696Y77687715D01*
X42434991Y77760286D01*
X42396286Y77796572D01*
X42318877Y77832858D01*
X41660896Y77832858D01*
X41660896Y78522286D02*
X41660896Y78377143D01*
X41699600Y78304572D01*
X41738305Y78268286D01*
X41854420Y78195715D01*
X42009239Y78159429D01*
X42318877Y78159429D01*
X42396286Y78195715D01*
X42434991Y78232000D01*
X42473696Y78304572D01*
X42473696Y78449715D01*
X42434991Y78522286D01*
X42396286Y78558572D01*
X42318877Y78594858D01*
X42125353Y78594858D01*
X42047943Y78558572D01*
X42009239Y78522286D01*
X41970534Y78449715D01*
X41970534Y78304572D01*
X42009239Y78232000D01*
X42047943Y78195715D01*
X42125353Y78159429D01*
X94282430Y54701104D02*
X94282430Y54043123D01*
X94318716Y53965714D01*
X94355001Y53927009D01*
X94427573Y53888304D01*
X94572716Y53888304D01*
X94645287Y53927009D01*
X94681573Y53965714D01*
X94717859Y54043123D01*
X94717859Y54701104D01*
X95443573Y54701104D02*
X95080716Y54701104D01*
X95044430Y54314057D01*
X95080716Y54352761D01*
X95153287Y54391466D01*
X95334716Y54391466D01*
X95407287Y54352761D01*
X95443573Y54314057D01*
X95479859Y54236647D01*
X95479859Y54043123D01*
X95443573Y53965714D01*
X95407287Y53927009D01*
X95334716Y53888304D01*
X95153287Y53888304D01*
X95080716Y53927009D01*
X95044430Y53965714D01*
X75013897Y21621428D02*
X75671878Y21621428D01*
X75749287Y21657714D01*
X75787992Y21693999D01*
X75826697Y21766571D01*
X75826697Y21911714D01*
X75787992Y21984285D01*
X75749287Y22020571D01*
X75671878Y22056857D01*
X75013897Y22056857D01*
X75826697Y22818857D02*
X75826697Y22383428D01*
X75826697Y22601142D02*
X75013897Y22601142D01*
X75130011Y22528571D01*
X75207421Y22455999D01*
X75246125Y22383428D01*
X92383429Y46419105D02*
X92818858Y46419105D01*
X92601143Y45606305D02*
X92601143Y46419105D01*
X93072858Y45606305D02*
X93072858Y46419105D01*
X93363143Y46419105D01*
X93435715Y46380400D01*
X93472000Y46341696D01*
X93508286Y46264286D01*
X93508286Y46148172D01*
X93472000Y46070762D01*
X93435715Y46032058D01*
X93363143Y45993353D01*
X93072858Y45993353D01*
X93871143Y45606305D02*
X94016286Y45606305D01*
X94088858Y45645010D01*
X94125143Y45683715D01*
X94197715Y45799829D01*
X94234000Y45954648D01*
X94234000Y46264286D01*
X94197715Y46341696D01*
X94161429Y46380400D01*
X94088858Y46419105D01*
X93943715Y46419105D01*
X93871143Y46380400D01*
X93834858Y46341696D01*
X93798572Y46264286D01*
X93798572Y46070762D01*
X93834858Y45993353D01*
X93871143Y45954648D01*
X93943715Y45915943D01*
X94088858Y45915943D01*
X94161429Y45954648D01*
X94197715Y45993353D01*
X94234000Y46070762D01*
X58982429Y42609105D02*
X59417858Y42609105D01*
X59200143Y41796305D02*
X59200143Y42609105D01*
X59671858Y41796305D02*
X59671858Y42609105D01*
X59962143Y42609105D01*
X60034715Y42570400D01*
X60071001Y42531696D01*
X60107286Y42454286D01*
X60107286Y42338172D01*
X60071001Y42260762D01*
X60034715Y42222058D01*
X59962143Y42183353D01*
X59671858Y42183353D01*
X60542715Y42260762D02*
X60470143Y42299467D01*
X60433858Y42338172D01*
X60397572Y42415581D01*
X60397572Y42454286D01*
X60433858Y42531696D01*
X60470143Y42570400D01*
X60542715Y42609105D01*
X60687858Y42609105D01*
X60760429Y42570400D01*
X60796715Y42531696D01*
X60833001Y42454286D01*
X60833001Y42415581D01*
X60796715Y42338172D01*
X60760429Y42299467D01*
X60687858Y42260762D01*
X60542715Y42260762D01*
X60470143Y42222058D01*
X60433858Y42183353D01*
X60397572Y42105943D01*
X60397572Y41951124D01*
X60433858Y41873715D01*
X60470143Y41835010D01*
X60542715Y41796305D01*
X60687858Y41796305D01*
X60760429Y41835010D01*
X60796715Y41873715D01*
X60833001Y41951124D01*
X60833001Y42105943D01*
X60796715Y42183353D01*
X60760429Y42222058D01*
X60687858Y42260762D01*
X93399429Y22797105D02*
X93834858Y22797105D01*
X93617143Y21984305D02*
X93617143Y22797105D01*
X94088858Y21984305D02*
X94088858Y22797105D01*
X94379143Y22797105D01*
X94451715Y22758400D01*
X94488000Y22719696D01*
X94524286Y22642286D01*
X94524286Y22526172D01*
X94488000Y22448762D01*
X94451715Y22410058D01*
X94379143Y22371353D01*
X94088858Y22371353D01*
X94778286Y22797105D02*
X95286286Y22797105D01*
X94959715Y21984305D01*
X89081429Y46419105D02*
X89516858Y46419105D01*
X89299143Y45606305D02*
X89299143Y46419105D01*
X89770858Y45606305D02*
X89770858Y46419105D01*
X90061143Y46419105D01*
X90133715Y46380400D01*
X90170000Y46341696D01*
X90206286Y46264286D01*
X90206286Y46148172D01*
X90170000Y46070762D01*
X90133715Y46032058D01*
X90061143Y45993353D01*
X89770858Y45993353D01*
X90859429Y46419105D02*
X90714286Y46419105D01*
X90641715Y46380400D01*
X90605429Y46341696D01*
X90532858Y46225581D01*
X90496572Y46070762D01*
X90496572Y45761124D01*
X90532858Y45683715D01*
X90569143Y45645010D01*
X90641715Y45606305D01*
X90786858Y45606305D01*
X90859429Y45645010D01*
X90895715Y45683715D01*
X90932000Y45761124D01*
X90932000Y45954648D01*
X90895715Y46032058D01*
X90859429Y46070762D01*
X90786858Y46109467D01*
X90641715Y46109467D01*
X90569143Y46070762D01*
X90532858Y46032058D01*
X90496572Y45954648D01*
X76762429Y46419105D02*
X77197858Y46419105D01*
X76980143Y45606305D02*
X76980143Y46419105D01*
X77451858Y45606305D02*
X77451858Y46419105D01*
X77742143Y46419105D01*
X77814715Y46380400D01*
X77851000Y46341696D01*
X77887286Y46264286D01*
X77887286Y46148172D01*
X77851000Y46070762D01*
X77814715Y46032058D01*
X77742143Y45993353D01*
X77451858Y45993353D01*
X78576715Y46419105D02*
X78213858Y46419105D01*
X78177572Y46032058D01*
X78213858Y46070762D01*
X78286429Y46109467D01*
X78467858Y46109467D01*
X78540429Y46070762D01*
X78576715Y46032058D01*
X78613000Y45954648D01*
X78613000Y45761124D01*
X78576715Y45683715D01*
X78540429Y45645010D01*
X78467858Y45606305D01*
X78286429Y45606305D01*
X78213858Y45645010D01*
X78177572Y45683715D01*
X93272429Y35243105D02*
X93707858Y35243105D01*
X93490143Y34430305D02*
X93490143Y35243105D01*
X93961858Y34430305D02*
X93961858Y35243105D01*
X94252143Y35243105D01*
X94324715Y35204400D01*
X94361000Y35165696D01*
X94397286Y35088286D01*
X94397286Y34972172D01*
X94361000Y34894762D01*
X94324715Y34856058D01*
X94252143Y34817353D01*
X93961858Y34817353D01*
X95050429Y34972172D02*
X95050429Y34430305D01*
X94869000Y35281810D02*
X94687572Y34701239D01*
X95159286Y34701239D01*
X58220429Y45403105D02*
X58655858Y45403105D01*
X58438143Y44590305D02*
X58438143Y45403105D01*
X58909858Y44590305D02*
X58909858Y45403105D01*
X59200143Y45403105D01*
X59272715Y45364400D01*
X59309001Y45325696D01*
X59345286Y45248286D01*
X59345286Y45132172D01*
X59309001Y45054762D01*
X59272715Y45016058D01*
X59200143Y44977353D01*
X58909858Y44977353D01*
X59599286Y45403105D02*
X60071001Y45403105D01*
X59817001Y45093467D01*
X59925858Y45093467D01*
X59998429Y45054762D01*
X60034715Y45016058D01*
X60071001Y44938648D01*
X60071001Y44745124D01*
X60034715Y44667715D01*
X59998429Y44629010D01*
X59925858Y44590305D01*
X59708143Y44590305D01*
X59635572Y44629010D01*
X59599286Y44667715D01*
X93272429Y29147105D02*
X93707858Y29147105D01*
X93490143Y28334305D02*
X93490143Y29147105D01*
X93961858Y28334305D02*
X93961858Y29147105D01*
X94252143Y29147105D01*
X94324715Y29108400D01*
X94361000Y29069696D01*
X94397286Y28992286D01*
X94397286Y28876172D01*
X94361000Y28798762D01*
X94324715Y28760058D01*
X94252143Y28721353D01*
X93961858Y28721353D01*
X94687572Y29069696D02*
X94723858Y29108400D01*
X94796429Y29147105D01*
X94977858Y29147105D01*
X95050429Y29108400D01*
X95086715Y29069696D01*
X95123000Y28992286D01*
X95123000Y28914877D01*
X95086715Y28798762D01*
X94651286Y28334305D01*
X95123000Y28334305D01*
X58220429Y39053105D02*
X58655858Y39053105D01*
X58438143Y38240305D02*
X58438143Y39053105D01*
X58909858Y38240305D02*
X58909858Y39053105D01*
X59200143Y39053105D01*
X59272715Y39014400D01*
X59309001Y38975696D01*
X59345286Y38898286D01*
X59345286Y38782172D01*
X59309001Y38704762D01*
X59272715Y38666058D01*
X59200143Y38627353D01*
X58909858Y38627353D01*
X60071001Y38240305D02*
X59635572Y38240305D01*
X59853286Y38240305D02*
X59853286Y39053105D01*
X59780715Y38936991D01*
X59708143Y38859581D01*
X59635572Y38820877D01*
X66693143Y45391010D02*
X66802000Y45352305D01*
X66983429Y45352305D01*
X67056000Y45391010D01*
X67092286Y45429715D01*
X67128572Y45507124D01*
X67128572Y45584534D01*
X67092286Y45661943D01*
X67056000Y45700648D01*
X66983429Y45739353D01*
X66838286Y45778058D01*
X66765715Y45816762D01*
X66729429Y45855467D01*
X66693143Y45932877D01*
X66693143Y46010286D01*
X66729429Y46087696D01*
X66765715Y46126400D01*
X66838286Y46165105D01*
X67019715Y46165105D01*
X67128572Y46126400D01*
X67382572Y46165105D02*
X67564000Y45352305D01*
X67709143Y45932877D01*
X67854286Y45352305D01*
X68035715Y46165105D01*
X68725143Y45352305D02*
X68289715Y45352305D01*
X68507429Y45352305D02*
X68507429Y46165105D01*
X68434858Y46048991D01*
X68362286Y45971581D01*
X68289715Y45932877D01*
X69160572Y45816762D02*
X69088000Y45855467D01*
X69051715Y45894172D01*
X69015429Y45971581D01*
X69015429Y46010286D01*
X69051715Y46087696D01*
X69088000Y46126400D01*
X69160572Y46165105D01*
X69305715Y46165105D01*
X69378286Y46126400D01*
X69414572Y46087696D01*
X69450858Y46010286D01*
X69450858Y45971581D01*
X69414572Y45894172D01*
X69378286Y45855467D01*
X69305715Y45816762D01*
X69160572Y45816762D01*
X69088000Y45778058D01*
X69051715Y45739353D01*
X69015429Y45661943D01*
X69015429Y45507124D01*
X69051715Y45429715D01*
X69088000Y45391010D01*
X69160572Y45352305D01*
X69305715Y45352305D01*
X69378286Y45391010D01*
X69414572Y45429715D01*
X69450858Y45507124D01*
X69450858Y45661943D01*
X69414572Y45739353D01*
X69378286Y45778058D01*
X69305715Y45816762D01*
X14877143Y7926010D02*
X14986000Y7887305D01*
X15167429Y7887305D01*
X15240000Y7926010D01*
X15276286Y7964715D01*
X15312572Y8042124D01*
X15312572Y8119534D01*
X15276286Y8196943D01*
X15240000Y8235648D01*
X15167429Y8274353D01*
X15022286Y8313058D01*
X14949715Y8351762D01*
X14913429Y8390467D01*
X14877143Y8467877D01*
X14877143Y8545286D01*
X14913429Y8622696D01*
X14949715Y8661400D01*
X15022286Y8700105D01*
X15203715Y8700105D01*
X15312572Y8661400D01*
X15566572Y8700105D02*
X15748000Y7887305D01*
X15893143Y8467877D01*
X16038286Y7887305D01*
X16219715Y8700105D01*
X16909143Y7887305D02*
X16473715Y7887305D01*
X16691429Y7887305D02*
X16691429Y8700105D01*
X16618858Y8583991D01*
X16546286Y8506581D01*
X16473715Y8467877D01*
X17163143Y8700105D02*
X17671143Y8700105D01*
X17344572Y7887305D01*
X22437144Y15523009D02*
X22546001Y15484304D01*
X22727430Y15484304D01*
X22800001Y15523009D01*
X22836287Y15561714D01*
X22872573Y15639123D01*
X22872573Y15716533D01*
X22836287Y15793942D01*
X22800001Y15832647D01*
X22727430Y15871352D01*
X22582287Y15910057D01*
X22509716Y15948761D01*
X22473430Y15987466D01*
X22437144Y16064876D01*
X22437144Y16142285D01*
X22473430Y16219695D01*
X22509716Y16258399D01*
X22582287Y16297104D01*
X22763716Y16297104D01*
X22872573Y16258399D01*
X23126573Y16297104D02*
X23308001Y15484304D01*
X23453144Y16064876D01*
X23598287Y15484304D01*
X23779716Y16297104D01*
X24469144Y15484304D02*
X24033716Y15484304D01*
X24251430Y15484304D02*
X24251430Y16297104D01*
X24178859Y16180990D01*
X24106287Y16103580D01*
X24033716Y16064876D01*
X25122287Y16297104D02*
X24977144Y16297104D01*
X24904573Y16258399D01*
X24868287Y16219695D01*
X24795716Y16103580D01*
X24759430Y15948761D01*
X24759430Y15639123D01*
X24795716Y15561714D01*
X24832001Y15523009D01*
X24904573Y15484304D01*
X25049716Y15484304D01*
X25122287Y15523009D01*
X25158573Y15561714D01*
X25194859Y15639123D01*
X25194859Y15832647D01*
X25158573Y15910057D01*
X25122287Y15948761D01*
X25049716Y15987466D01*
X24904573Y15987466D01*
X24832001Y15948761D01*
X24795716Y15910057D01*
X24759430Y15832647D01*
X14817144Y23166010D02*
X14926001Y23127305D01*
X15107430Y23127305D01*
X15180001Y23166010D01*
X15216287Y23204715D01*
X15252573Y23282124D01*
X15252573Y23359534D01*
X15216287Y23436943D01*
X15180001Y23475648D01*
X15107430Y23514353D01*
X14962287Y23553058D01*
X14889716Y23591762D01*
X14853430Y23630467D01*
X14817144Y23707877D01*
X14817144Y23785286D01*
X14853430Y23862696D01*
X14889716Y23901400D01*
X14962287Y23940105D01*
X15143716Y23940105D01*
X15252573Y23901400D01*
X15506573Y23940105D02*
X15688001Y23127305D01*
X15833144Y23707877D01*
X15978287Y23127305D01*
X16159716Y23940105D01*
X16849144Y23127305D02*
X16413716Y23127305D01*
X16631430Y23127305D02*
X16631430Y23940105D01*
X16558859Y23823991D01*
X16486287Y23746581D01*
X16413716Y23707877D01*
X17538573Y23940105D02*
X17175716Y23940105D01*
X17139430Y23553058D01*
X17175716Y23591762D01*
X17248287Y23630467D01*
X17429716Y23630467D01*
X17502287Y23591762D01*
X17538573Y23553058D01*
X17574859Y23475648D01*
X17574859Y23282124D01*
X17538573Y23204715D01*
X17502287Y23166010D01*
X17429716Y23127305D01*
X17248287Y23127305D01*
X17175716Y23166010D01*
X17139430Y23204715D01*
X7197144Y15523009D02*
X7306001Y15484304D01*
X7487430Y15484304D01*
X7560001Y15523009D01*
X7596287Y15561714D01*
X7632573Y15639123D01*
X7632573Y15716533D01*
X7596287Y15793942D01*
X7560001Y15832647D01*
X7487430Y15871352D01*
X7342287Y15910057D01*
X7269716Y15948761D01*
X7233430Y15987466D01*
X7197144Y16064876D01*
X7197144Y16142285D01*
X7233430Y16219695D01*
X7269716Y16258399D01*
X7342287Y16297104D01*
X7523716Y16297104D01*
X7632573Y16258399D01*
X7886573Y16297104D02*
X8068001Y15484304D01*
X8213144Y16064876D01*
X8358287Y15484304D01*
X8539716Y16297104D01*
X9229144Y15484304D02*
X8793716Y15484304D01*
X9011430Y15484304D02*
X9011430Y16297104D01*
X8938859Y16180990D01*
X8866287Y16103580D01*
X8793716Y16064876D01*
X9882287Y16026171D02*
X9882287Y15484304D01*
X9700859Y16335809D02*
X9519430Y15755238D01*
X9991144Y15755238D01*
X47202144Y28223009D02*
X47311001Y28184304D01*
X47492430Y28184304D01*
X47565001Y28223009D01*
X47601287Y28261714D01*
X47637573Y28339123D01*
X47637573Y28416533D01*
X47601287Y28493942D01*
X47565001Y28532647D01*
X47492430Y28571352D01*
X47347287Y28610057D01*
X47274716Y28648761D01*
X47238430Y28687466D01*
X47202144Y28764876D01*
X47202144Y28842285D01*
X47238430Y28919695D01*
X47274716Y28958399D01*
X47347287Y28997104D01*
X47528716Y28997104D01*
X47637573Y28958399D01*
X47891573Y28997104D02*
X48073001Y28184304D01*
X48218144Y28764876D01*
X48363287Y28184304D01*
X48544716Y28997104D01*
X49234144Y28184304D02*
X48798716Y28184304D01*
X49016430Y28184304D02*
X49016430Y28997104D01*
X48943859Y28880990D01*
X48871287Y28803580D01*
X48798716Y28764876D01*
X49488144Y28997104D02*
X49959859Y28997104D01*
X49705859Y28687466D01*
X49814716Y28687466D01*
X49887287Y28648761D01*
X49923573Y28610057D01*
X49959859Y28532647D01*
X49959859Y28339123D01*
X49923573Y28261714D01*
X49887287Y28223009D01*
X49814716Y28184304D01*
X49597001Y28184304D01*
X49524430Y28223009D01*
X49488144Y28261714D01*
X26688143Y28223009D02*
X26797000Y28184304D01*
X26978429Y28184304D01*
X27051000Y28223009D01*
X27087286Y28261714D01*
X27123572Y28339123D01*
X27123572Y28416533D01*
X27087286Y28493942D01*
X27051000Y28532647D01*
X26978429Y28571352D01*
X26833286Y28610057D01*
X26760715Y28648761D01*
X26724429Y28687466D01*
X26688143Y28764876D01*
X26688143Y28842285D01*
X26724429Y28919695D01*
X26760715Y28958399D01*
X26833286Y28997104D01*
X27014715Y28997104D01*
X27123572Y28958399D01*
X27377572Y28997104D02*
X27559000Y28184304D01*
X27704143Y28764876D01*
X27849286Y28184304D01*
X28030715Y28997104D01*
X28720143Y28184304D02*
X28284715Y28184304D01*
X28502429Y28184304D02*
X28502429Y28997104D01*
X28429858Y28880990D01*
X28357286Y28803580D01*
X28284715Y28764876D01*
X29445858Y28184304D02*
X29010429Y28184304D01*
X29228143Y28184304D02*
X29228143Y28997104D01*
X29155572Y28880990D01*
X29083000Y28803580D01*
X29010429Y28764876D01*
X36848143Y16793009D02*
X36957000Y16754304D01*
X37138429Y16754304D01*
X37211000Y16793009D01*
X37247286Y16831714D01*
X37283572Y16909123D01*
X37283572Y16986533D01*
X37247286Y17063942D01*
X37211000Y17102647D01*
X37138429Y17141352D01*
X36993286Y17180057D01*
X36920715Y17218761D01*
X36884429Y17257466D01*
X36848143Y17334876D01*
X36848143Y17412285D01*
X36884429Y17489695D01*
X36920715Y17528399D01*
X36993286Y17567104D01*
X37174715Y17567104D01*
X37283572Y17528399D01*
X37537572Y17567104D02*
X37719000Y16754304D01*
X37864143Y17334876D01*
X38009286Y16754304D01*
X38190715Y17567104D01*
X38880143Y16754304D02*
X38444715Y16754304D01*
X38662429Y16754304D02*
X38662429Y17567104D01*
X38589858Y17450990D01*
X38517286Y17373580D01*
X38444715Y17334876D01*
X39351858Y17567104D02*
X39424429Y17567104D01*
X39497000Y17528399D01*
X39533286Y17489695D01*
X39569572Y17412285D01*
X39605858Y17257466D01*
X39605858Y17063942D01*
X39569572Y16909123D01*
X39533286Y16831714D01*
X39497000Y16793009D01*
X39424429Y16754304D01*
X39351858Y16754304D01*
X39279286Y16793009D01*
X39243000Y16831714D01*
X39206715Y16909123D01*
X39170429Y17063942D01*
X39170429Y17257466D01*
X39206715Y17412285D01*
X39243000Y17489695D01*
X39279286Y17528399D01*
X39351858Y17567104D01*
X47565001Y39653009D02*
X47673859Y39614304D01*
X47855287Y39614304D01*
X47927859Y39653009D01*
X47964144Y39691714D01*
X48000430Y39769123D01*
X48000430Y39846533D01*
X47964144Y39923942D01*
X47927859Y39962647D01*
X47855287Y40001352D01*
X47710144Y40040057D01*
X47637573Y40078761D01*
X47601287Y40117466D01*
X47565001Y40194876D01*
X47565001Y40272285D01*
X47601287Y40349695D01*
X47637573Y40388399D01*
X47710144Y40427104D01*
X47891573Y40427104D01*
X48000430Y40388399D01*
X48254430Y40427104D02*
X48435859Y39614304D01*
X48581001Y40194876D01*
X48726144Y39614304D01*
X48907573Y40427104D01*
X49234144Y39614304D02*
X49379287Y39614304D01*
X49451859Y39653009D01*
X49488144Y39691714D01*
X49560716Y39807828D01*
X49597001Y39962647D01*
X49597001Y40272285D01*
X49560716Y40349695D01*
X49524430Y40388399D01*
X49451859Y40427104D01*
X49306716Y40427104D01*
X49234144Y40388399D01*
X49197859Y40349695D01*
X49161573Y40272285D01*
X49161573Y40078761D01*
X49197859Y40001352D01*
X49234144Y39962647D01*
X49306716Y39923942D01*
X49451859Y39923942D01*
X49524430Y39962647D01*
X49560716Y40001352D01*
X49597001Y40078761D01*
X37211000Y39653009D02*
X37319858Y39614304D01*
X37501286Y39614304D01*
X37573858Y39653009D01*
X37610143Y39691714D01*
X37646429Y39769123D01*
X37646429Y39846533D01*
X37610143Y39923942D01*
X37573858Y39962647D01*
X37501286Y40001352D01*
X37356143Y40040057D01*
X37283572Y40078761D01*
X37247286Y40117466D01*
X37211000Y40194876D01*
X37211000Y40272285D01*
X37247286Y40349695D01*
X37283572Y40388399D01*
X37356143Y40427104D01*
X37537572Y40427104D01*
X37646429Y40388399D01*
X37900429Y40427104D02*
X38081858Y39614304D01*
X38227000Y40194876D01*
X38372143Y39614304D01*
X38553572Y40427104D01*
X38952715Y40078761D02*
X38880143Y40117466D01*
X38843858Y40156171D01*
X38807572Y40233580D01*
X38807572Y40272285D01*
X38843858Y40349695D01*
X38880143Y40388399D01*
X38952715Y40427104D01*
X39097858Y40427104D01*
X39170429Y40388399D01*
X39206715Y40349695D01*
X39243000Y40272285D01*
X39243000Y40233580D01*
X39206715Y40156171D01*
X39170429Y40117466D01*
X39097858Y40078761D01*
X38952715Y40078761D01*
X38880143Y40040057D01*
X38843858Y40001352D01*
X38807572Y39923942D01*
X38807572Y39769123D01*
X38843858Y39691714D01*
X38880143Y39653009D01*
X38952715Y39614304D01*
X39097858Y39614304D01*
X39170429Y39653009D01*
X39206715Y39691714D01*
X39243000Y39769123D01*
X39243000Y39923942D01*
X39206715Y40001352D01*
X39170429Y40040057D01*
X39097858Y40078761D01*
X27051000Y39653009D02*
X27159858Y39614304D01*
X27341286Y39614304D01*
X27413858Y39653009D01*
X27450143Y39691714D01*
X27486429Y39769123D01*
X27486429Y39846533D01*
X27450143Y39923942D01*
X27413858Y39962647D01*
X27341286Y40001352D01*
X27196143Y40040057D01*
X27123572Y40078761D01*
X27087286Y40117466D01*
X27051000Y40194876D01*
X27051000Y40272285D01*
X27087286Y40349695D01*
X27123572Y40388399D01*
X27196143Y40427104D01*
X27377572Y40427104D01*
X27486429Y40388399D01*
X27740429Y40427104D02*
X27921858Y39614304D01*
X28067000Y40194876D01*
X28212143Y39614304D01*
X28393572Y40427104D01*
X28611286Y40427104D02*
X29119286Y40427104D01*
X28792715Y39614304D01*
X7560001Y29493009D02*
X7668859Y29454304D01*
X7850287Y29454304D01*
X7922859Y29493009D01*
X7959144Y29531714D01*
X7995430Y29609123D01*
X7995430Y29686533D01*
X7959144Y29763942D01*
X7922859Y29802647D01*
X7850287Y29841352D01*
X7705144Y29880057D01*
X7632573Y29918761D01*
X7596287Y29957466D01*
X7560001Y30034876D01*
X7560001Y30112285D01*
X7596287Y30189695D01*
X7632573Y30228399D01*
X7705144Y30267104D01*
X7886573Y30267104D01*
X7995430Y30228399D01*
X8249430Y30267104D02*
X8430859Y29454304D01*
X8576001Y30034876D01*
X8721144Y29454304D01*
X8902573Y30267104D01*
X9519430Y30267104D02*
X9374287Y30267104D01*
X9301716Y30228399D01*
X9265430Y30189695D01*
X9192859Y30073580D01*
X9156573Y29918761D01*
X9156573Y29609123D01*
X9192859Y29531714D01*
X9229144Y29493009D01*
X9301716Y29454304D01*
X9446859Y29454304D01*
X9519430Y29493009D01*
X9555716Y29531714D01*
X9592001Y29609123D01*
X9592001Y29802647D01*
X9555716Y29880057D01*
X9519430Y29918761D01*
X9446859Y29957466D01*
X9301716Y29957466D01*
X9229144Y29918761D01*
X9192859Y29880057D01*
X9156573Y29802647D01*
X47565001Y51083009D02*
X47673859Y51044304D01*
X47855287Y51044304D01*
X47927859Y51083009D01*
X47964144Y51121714D01*
X48000430Y51199123D01*
X48000430Y51276533D01*
X47964144Y51353942D01*
X47927859Y51392647D01*
X47855287Y51431352D01*
X47710144Y51470057D01*
X47637573Y51508761D01*
X47601287Y51547466D01*
X47565001Y51624876D01*
X47565001Y51702285D01*
X47601287Y51779695D01*
X47637573Y51818399D01*
X47710144Y51857104D01*
X47891573Y51857104D01*
X48000430Y51818399D01*
X48254430Y51857104D02*
X48435859Y51044304D01*
X48581001Y51624876D01*
X48726144Y51044304D01*
X48907573Y51857104D01*
X49560716Y51857104D02*
X49197859Y51857104D01*
X49161573Y51470057D01*
X49197859Y51508761D01*
X49270430Y51547466D01*
X49451859Y51547466D01*
X49524430Y51508761D01*
X49560716Y51470057D01*
X49597001Y51392647D01*
X49597001Y51199123D01*
X49560716Y51121714D01*
X49524430Y51083009D01*
X49451859Y51044304D01*
X49270430Y51044304D01*
X49197859Y51083009D01*
X49161573Y51121714D01*
X37211000Y51083009D02*
X37319858Y51044304D01*
X37501286Y51044304D01*
X37573858Y51083009D01*
X37610143Y51121714D01*
X37646429Y51199123D01*
X37646429Y51276533D01*
X37610143Y51353942D01*
X37573858Y51392647D01*
X37501286Y51431352D01*
X37356143Y51470057D01*
X37283572Y51508761D01*
X37247286Y51547466D01*
X37211000Y51624876D01*
X37211000Y51702285D01*
X37247286Y51779695D01*
X37283572Y51818399D01*
X37356143Y51857104D01*
X37537572Y51857104D01*
X37646429Y51818399D01*
X37900429Y51857104D02*
X38081858Y51044304D01*
X38227000Y51624876D01*
X38372143Y51044304D01*
X38553572Y51857104D01*
X39170429Y51586171D02*
X39170429Y51044304D01*
X38989000Y51895809D02*
X38807572Y51315238D01*
X39279286Y51315238D01*
X15180001Y37113009D02*
X15288859Y37074304D01*
X15470287Y37074304D01*
X15542859Y37113009D01*
X15579144Y37151714D01*
X15615430Y37229123D01*
X15615430Y37306533D01*
X15579144Y37383942D01*
X15542859Y37422647D01*
X15470287Y37461352D01*
X15325144Y37500057D01*
X15252573Y37538761D01*
X15216287Y37577466D01*
X15180001Y37654876D01*
X15180001Y37732285D01*
X15216287Y37809695D01*
X15252573Y37848399D01*
X15325144Y37887104D01*
X15506573Y37887104D01*
X15615430Y37848399D01*
X15869430Y37887104D02*
X16050859Y37074304D01*
X16196001Y37654876D01*
X16341144Y37074304D01*
X16522573Y37887104D01*
X16776573Y37809695D02*
X16812859Y37848399D01*
X16885430Y37887104D01*
X17066859Y37887104D01*
X17139430Y37848399D01*
X17175716Y37809695D01*
X17212001Y37732285D01*
X17212001Y37654876D01*
X17175716Y37538761D01*
X16740287Y37074304D01*
X17212001Y37074304D01*
X7547429Y67870010D02*
X7656286Y67831305D01*
X7837715Y67831305D01*
X7910286Y67870010D01*
X7946572Y67908715D01*
X7982858Y67986124D01*
X7982858Y68063534D01*
X7946572Y68140943D01*
X7910286Y68179648D01*
X7837715Y68218353D01*
X7692572Y68257058D01*
X7620000Y68295762D01*
X7583715Y68334467D01*
X7547429Y68411877D01*
X7547429Y68489286D01*
X7583715Y68566696D01*
X7620000Y68605400D01*
X7692572Y68644105D01*
X7874000Y68644105D01*
X7982858Y68605400D01*
X8309429Y67831305D02*
X8309429Y68644105D01*
X8599715Y68644105D01*
X8672286Y68605400D01*
X8708572Y68566696D01*
X8744858Y68489286D01*
X8744858Y68373172D01*
X8708572Y68295762D01*
X8672286Y68257058D01*
X8599715Y68218353D01*
X8309429Y68218353D01*
X9071429Y67831305D02*
X9071429Y68644105D01*
X9506858Y67831305D02*
X9180286Y68295762D01*
X9506858Y68644105D02*
X9071429Y68179648D01*
X10232572Y67831305D02*
X9797143Y67831305D01*
X10014858Y67831305D02*
X10014858Y68644105D01*
X9942286Y68527991D01*
X9869715Y68450581D01*
X9797143Y68411877D01*
X23549429Y68974305D02*
X23295429Y69361353D01*
X23114000Y68974305D02*
X23114000Y69787105D01*
X23404286Y69787105D01*
X23476858Y69748400D01*
X23513143Y69709696D01*
X23549429Y69632286D01*
X23549429Y69516172D01*
X23513143Y69438762D01*
X23476858Y69400058D01*
X23404286Y69361353D01*
X23114000Y69361353D01*
X23767143Y69787105D02*
X24021143Y68974305D01*
X24275143Y69787105D01*
X24928286Y68974305D02*
X24492858Y68974305D01*
X24710572Y68974305D02*
X24710572Y69787105D01*
X24638000Y69670991D01*
X24565429Y69593581D01*
X24492858Y69554877D01*
X67903144Y1608304D02*
X67649144Y1995352D01*
X67467716Y1608304D02*
X67467716Y2421104D01*
X67758001Y2421104D01*
X67830573Y2382399D01*
X67866859Y2343695D01*
X67903144Y2266285D01*
X67903144Y2150171D01*
X67866859Y2072761D01*
X67830573Y2034057D01*
X67758001Y1995352D01*
X67467716Y1995352D01*
X68193430Y2343695D02*
X68229716Y2382399D01*
X68302287Y2421104D01*
X68483716Y2421104D01*
X68556287Y2382399D01*
X68592573Y2343695D01*
X68628859Y2266285D01*
X68628859Y2188876D01*
X68592573Y2072761D01*
X68157144Y1608304D01*
X68628859Y1608304D01*
X69064287Y2072761D02*
X68991716Y2111466D01*
X68955430Y2150171D01*
X68919144Y2227580D01*
X68919144Y2266285D01*
X68955430Y2343695D01*
X68991716Y2382399D01*
X69064287Y2421104D01*
X69209430Y2421104D01*
X69282001Y2382399D01*
X69318287Y2343695D01*
X69354573Y2266285D01*
X69354573Y2227580D01*
X69318287Y2150171D01*
X69282001Y2111466D01*
X69209430Y2072761D01*
X69064287Y2072761D01*
X68991716Y2034057D01*
X68955430Y1995352D01*
X68919144Y1917942D01*
X68919144Y1763123D01*
X68955430Y1685714D01*
X68991716Y1647009D01*
X69064287Y1608304D01*
X69209430Y1608304D01*
X69282001Y1647009D01*
X69318287Y1685714D01*
X69354573Y1763123D01*
X69354573Y1917942D01*
X69318287Y1995352D01*
X69282001Y2034057D01*
X69209430Y2072761D01*
X59962143Y92342305D02*
X59708143Y92729353D01*
X59526715Y92342305D02*
X59526715Y93155105D01*
X59817000Y93155105D01*
X59889572Y93116400D01*
X59925858Y93077696D01*
X59962143Y93000286D01*
X59962143Y92884172D01*
X59925858Y92806762D01*
X59889572Y92768058D01*
X59817000Y92729353D01*
X59526715Y92729353D01*
X60252429Y93077696D02*
X60288715Y93116400D01*
X60361286Y93155105D01*
X60542715Y93155105D01*
X60615286Y93116400D01*
X60651572Y93077696D01*
X60687858Y93000286D01*
X60687858Y92922877D01*
X60651572Y92806762D01*
X60216143Y92342305D01*
X60687858Y92342305D01*
X60941858Y93155105D02*
X61413572Y93155105D01*
X61159572Y92845467D01*
X61268429Y92845467D01*
X61341000Y92806762D01*
X61377286Y92768058D01*
X61413572Y92690648D01*
X61413572Y92497124D01*
X61377286Y92419715D01*
X61341000Y92381010D01*
X61268429Y92342305D01*
X61050715Y92342305D01*
X60978143Y92381010D01*
X60941858Y92419715D01*
X57422143Y92342305D02*
X57168143Y92729353D01*
X56986715Y92342305D02*
X56986715Y93155105D01*
X57277000Y93155105D01*
X57349572Y93116400D01*
X57385858Y93077696D01*
X57422143Y93000286D01*
X57422143Y92884172D01*
X57385858Y92806762D01*
X57349572Y92768058D01*
X57277000Y92729353D01*
X56986715Y92729353D01*
X57712429Y93077696D02*
X57748715Y93116400D01*
X57821286Y93155105D01*
X58002715Y93155105D01*
X58075286Y93116400D01*
X58111572Y93077696D01*
X58147858Y93000286D01*
X58147858Y92922877D01*
X58111572Y92806762D01*
X57676143Y92342305D01*
X58147858Y92342305D01*
X58438143Y93077696D02*
X58474429Y93116400D01*
X58547000Y93155105D01*
X58728429Y93155105D01*
X58801000Y93116400D01*
X58837286Y93077696D01*
X58873572Y93000286D01*
X58873572Y92922877D01*
X58837286Y92806762D01*
X58401858Y92342305D01*
X58873572Y92342305D01*
X54882143Y92342305D02*
X54628143Y92729353D01*
X54446715Y92342305D02*
X54446715Y93155105D01*
X54737000Y93155105D01*
X54809572Y93116400D01*
X54845858Y93077696D01*
X54882143Y93000286D01*
X54882143Y92884172D01*
X54845858Y92806762D01*
X54809572Y92768058D01*
X54737000Y92729353D01*
X54446715Y92729353D01*
X55172429Y93077696D02*
X55208715Y93116400D01*
X55281286Y93155105D01*
X55462715Y93155105D01*
X55535286Y93116400D01*
X55571572Y93077696D01*
X55607858Y93000286D01*
X55607858Y92922877D01*
X55571572Y92806762D01*
X55136143Y92342305D01*
X55607858Y92342305D01*
X56333572Y92342305D02*
X55898143Y92342305D01*
X56115858Y92342305D02*
X56115858Y93155105D01*
X56043286Y93038991D01*
X55970715Y92961581D01*
X55898143Y92922877D01*
X98316143Y42972305D02*
X98062143Y43359353D01*
X97880715Y42972305D02*
X97880715Y43785105D01*
X98171001Y43785105D01*
X98243572Y43746400D01*
X98279858Y43707696D01*
X98316143Y43630286D01*
X98316143Y43514172D01*
X98279858Y43436762D01*
X98243572Y43398058D01*
X98171001Y43359353D01*
X97880715Y43359353D01*
X99041858Y42972305D02*
X98606429Y42972305D01*
X98824143Y42972305D02*
X98824143Y43785105D01*
X98751572Y43668991D01*
X98679001Y43591581D01*
X98606429Y43552877D01*
X99513572Y43785105D02*
X99586143Y43785105D01*
X99658715Y43746400D01*
X99695000Y43707696D01*
X99731286Y43630286D01*
X99767572Y43475467D01*
X99767572Y43281943D01*
X99731286Y43127124D01*
X99695000Y43049715D01*
X99658715Y43011010D01*
X99586143Y42972305D01*
X99513572Y42972305D01*
X99441000Y43011010D01*
X99404715Y43049715D01*
X99368429Y43127124D01*
X99332143Y43281943D01*
X99332143Y43475467D01*
X99368429Y43630286D01*
X99404715Y43707696D01*
X99441000Y43746400D01*
X99513572Y43785105D01*
X100711000Y40686305D02*
X100457000Y41073353D01*
X100275572Y40686305D02*
X100275572Y41499105D01*
X100565858Y41499105D01*
X100638429Y41460400D01*
X100674715Y41421696D01*
X100711000Y41344286D01*
X100711000Y41228172D01*
X100674715Y41150762D01*
X100638429Y41112058D01*
X100565858Y41073353D01*
X100275572Y41073353D01*
X101073858Y40686305D02*
X101219000Y40686305D01*
X101291572Y40725010D01*
X101327858Y40763715D01*
X101400429Y40879829D01*
X101436715Y41034648D01*
X101436715Y41344286D01*
X101400429Y41421696D01*
X101364143Y41460400D01*
X101291572Y41499105D01*
X101146429Y41499105D01*
X101073858Y41460400D01*
X101037572Y41421696D01*
X101001286Y41344286D01*
X101001286Y41150762D01*
X101037572Y41073353D01*
X101073858Y41034648D01*
X101146429Y40995943D01*
X101291572Y40995943D01*
X101364143Y41034648D01*
X101400429Y41073353D01*
X101436715Y41150762D01*
X91059000Y39002305D02*
X90805000Y39389353D01*
X90623572Y39002305D02*
X90623572Y39815105D01*
X90913858Y39815105D01*
X90986429Y39776400D01*
X91022715Y39737696D01*
X91059000Y39660286D01*
X91059000Y39544172D01*
X91022715Y39466762D01*
X90986429Y39428058D01*
X90913858Y39389353D01*
X90623572Y39389353D01*
X91494429Y39466762D02*
X91421858Y39505467D01*
X91385572Y39544172D01*
X91349286Y39621581D01*
X91349286Y39660286D01*
X91385572Y39737696D01*
X91421858Y39776400D01*
X91494429Y39815105D01*
X91639572Y39815105D01*
X91712143Y39776400D01*
X91748429Y39737696D01*
X91784715Y39660286D01*
X91784715Y39621581D01*
X91748429Y39544172D01*
X91712143Y39505467D01*
X91639572Y39466762D01*
X91494429Y39466762D01*
X91421858Y39428058D01*
X91385572Y39389353D01*
X91349286Y39311943D01*
X91349286Y39157124D01*
X91385572Y39079715D01*
X91421858Y39041010D01*
X91494429Y39002305D01*
X91639572Y39002305D01*
X91712143Y39041010D01*
X91748429Y39079715D01*
X91784715Y39157124D01*
X91784715Y39311943D01*
X91748429Y39389353D01*
X91712143Y39428058D01*
X91639572Y39466762D01*
X91694000Y35192305D02*
X91440000Y35579353D01*
X91258572Y35192305D02*
X91258572Y36005105D01*
X91548858Y36005105D01*
X91621429Y35966400D01*
X91657715Y35927696D01*
X91694000Y35850286D01*
X91694000Y35734172D01*
X91657715Y35656762D01*
X91621429Y35618058D01*
X91548858Y35579353D01*
X91258572Y35579353D01*
X91948000Y36005105D02*
X92456000Y36005105D01*
X92129429Y35192305D01*
X55264696Y55499000D02*
X54877648Y55245000D01*
X55264696Y55063572D02*
X54451896Y55063572D01*
X54451896Y55353858D01*
X54490600Y55426429D01*
X54529305Y55462715D01*
X54606715Y55499000D01*
X54722829Y55499000D01*
X54800239Y55462715D01*
X54838943Y55426429D01*
X54877648Y55353858D01*
X54877648Y55063572D01*
X54451896Y56152143D02*
X54451896Y56007000D01*
X54490600Y55934429D01*
X54529305Y55898143D01*
X54645420Y55825572D01*
X54800239Y55789286D01*
X55109877Y55789286D01*
X55187286Y55825572D01*
X55225991Y55861858D01*
X55264696Y55934429D01*
X55264696Y56079572D01*
X55225991Y56152143D01*
X55187286Y56188429D01*
X55109877Y56224715D01*
X54916353Y56224715D01*
X54838943Y56188429D01*
X54800239Y56152143D01*
X54761534Y56079572D01*
X54761534Y55934429D01*
X54800239Y55861858D01*
X54838943Y55825572D01*
X54916353Y55789286D01*
X45104696Y56261000D02*
X44717648Y56007000D01*
X45104696Y55825572D02*
X44291896Y55825572D01*
X44291896Y56115858D01*
X44330600Y56188429D01*
X44369305Y56224715D01*
X44446715Y56261000D01*
X44562829Y56261000D01*
X44640239Y56224715D01*
X44678943Y56188429D01*
X44717648Y56115858D01*
X44717648Y55825572D01*
X44291896Y56950429D02*
X44291896Y56587572D01*
X44678943Y56551286D01*
X44640239Y56587572D01*
X44601534Y56660143D01*
X44601534Y56841572D01*
X44640239Y56914143D01*
X44678943Y56950429D01*
X44756353Y56986715D01*
X44949877Y56986715D01*
X45027286Y56950429D01*
X45065991Y56914143D01*
X45104696Y56841572D01*
X45104696Y56660143D01*
X45065991Y56587572D01*
X45027286Y56551286D01*
X34944696Y56261000D02*
X34557648Y56007000D01*
X34944696Y55825572D02*
X34131896Y55825572D01*
X34131896Y56115858D01*
X34170600Y56188429D01*
X34209305Y56224715D01*
X34286715Y56261000D01*
X34402829Y56261000D01*
X34480239Y56224715D01*
X34518943Y56188429D01*
X34557648Y56115858D01*
X34557648Y55825572D01*
X34402829Y56914143D02*
X34944696Y56914143D01*
X34093191Y56732715D02*
X34673762Y56551286D01*
X34673762Y57023000D01*
X8763000Y49002305D02*
X8509000Y49389353D01*
X8327572Y49002305D02*
X8327572Y49815105D01*
X8617858Y49815105D01*
X8690429Y49776400D01*
X8726715Y49737696D01*
X8763000Y49660286D01*
X8763000Y49544172D01*
X8726715Y49466762D01*
X8690429Y49428058D01*
X8617858Y49389353D01*
X8327572Y49389353D01*
X9017000Y49815105D02*
X9488715Y49815105D01*
X9234715Y49505467D01*
X9343572Y49505467D01*
X9416143Y49466762D01*
X9452429Y49428058D01*
X9488715Y49350648D01*
X9488715Y49157124D01*
X9452429Y49079715D01*
X9416143Y49041010D01*
X9343572Y49002305D01*
X9125858Y49002305D01*
X9053286Y49041010D01*
X9017000Y49079715D01*
X75551696Y4548999D02*
X75164648Y4294999D01*
X75551696Y4113571D02*
X74738896Y4113571D01*
X74738896Y4403857D01*
X74777600Y4476428D01*
X74816305Y4512714D01*
X74893715Y4548999D01*
X75009829Y4548999D01*
X75087239Y4512714D01*
X75125943Y4476428D01*
X75164648Y4403857D01*
X75164648Y4113571D01*
X74816305Y4839285D02*
X74777600Y4875571D01*
X74738896Y4948142D01*
X74738896Y5129571D01*
X74777600Y5202142D01*
X74816305Y5238428D01*
X74893715Y5274714D01*
X74971124Y5274714D01*
X75087239Y5238428D01*
X75551696Y4802999D01*
X75551696Y5274714D01*
X76032697Y19026999D02*
X75645649Y18772999D01*
X76032697Y18591571D02*
X75219897Y18591571D01*
X75219897Y18881857D01*
X75258601Y18954428D01*
X75297306Y18990714D01*
X75374716Y19026999D01*
X75490830Y19026999D01*
X75568240Y18990714D01*
X75606944Y18954428D01*
X75645649Y18881857D01*
X75645649Y18591571D01*
X76032697Y19752714D02*
X76032697Y19317285D01*
X76032697Y19534999D02*
X75219897Y19534999D01*
X75336011Y19462428D01*
X75413421Y19389857D01*
X75452125Y19317285D01*
X93174001Y70381304D02*
X92811144Y70381304D01*
X92811144Y71194104D01*
X93754573Y70923171D02*
X93754573Y70381304D01*
X93573144Y71232809D02*
X93391716Y70652238D01*
X93863430Y70652238D01*
X100778001Y69636305D02*
X100415144Y69636305D01*
X100415144Y70449105D01*
X100959430Y70449105D02*
X101431144Y70449105D01*
X101177144Y70139467D01*
X101286001Y70139467D01*
X101358573Y70100762D01*
X101394859Y70062058D01*
X101431144Y69984648D01*
X101431144Y69791124D01*
X101394859Y69713715D01*
X101358573Y69675010D01*
X101286001Y69636305D01*
X101068287Y69636305D01*
X100995716Y69675010D01*
X100959430Y69713715D01*
X96206001Y69636305D02*
X95843144Y69636305D01*
X95843144Y70449105D01*
X96423716Y70371696D02*
X96460001Y70410400D01*
X96532573Y70449105D01*
X96714001Y70449105D01*
X96786573Y70410400D01*
X96822859Y70371696D01*
X96859144Y70294286D01*
X96859144Y70216877D01*
X96822859Y70100762D01*
X96387430Y69636305D01*
X96859144Y69636305D01*
X89958697Y67165999D02*
X89958697Y66803142D01*
X89145897Y66803142D01*
X89958697Y67819142D02*
X89958697Y67383714D01*
X89958697Y67601428D02*
X89145897Y67601428D01*
X89262011Y67528857D01*
X89339421Y67456285D01*
X89378125Y67383714D01*
D13*
X62230000Y61046105D02*
X62230000Y60465534D01*
X62193715Y60349420D01*
X62121143Y60272010D01*
X62012286Y60233305D01*
X61939715Y60233305D01*
X62592858Y60233305D02*
X62592858Y61046105D01*
X62883143Y61046105D01*
X62955715Y61007400D01*
X62992000Y60968696D01*
X63028286Y60891286D01*
X63028286Y60775172D01*
X62992000Y60697762D01*
X62955715Y60659058D01*
X62883143Y60620353D01*
X62592858Y60620353D01*
X63681429Y61046105D02*
X63536286Y61046105D01*
X63463715Y61007400D01*
X63427429Y60968696D01*
X63354858Y60852581D01*
X63318572Y60697762D01*
X63318572Y60388124D01*
X63354858Y60310715D01*
X63391143Y60272010D01*
X63463715Y60233305D01*
X63608858Y60233305D01*
X63681429Y60272010D01*
X63717715Y60310715D01*
X63754000Y60388124D01*
X63754000Y60581648D01*
X63717715Y60659058D01*
X63681429Y60697762D01*
X63608858Y60736467D01*
X63463715Y60736467D01*
X63391143Y60697762D01*
X63354858Y60659058D01*
X63318572Y60581648D01*
D19*
X52908200Y13018105D02*
X52908200Y12437534D01*
X52871915Y12321420D01*
X52799343Y12244010D01*
X52690486Y12205305D01*
X52617915Y12205305D01*
X53597629Y13018105D02*
X53452486Y13018105D01*
X53379915Y12979400D01*
X53343629Y12940696D01*
X53271058Y12824581D01*
X53234772Y12669762D01*
X53234772Y12360124D01*
X53271058Y12282715D01*
X53307343Y12244010D01*
X53379915Y12205305D01*
X53525058Y12205305D01*
X53597629Y12244010D01*
X53633915Y12282715D01*
X53670200Y12360124D01*
X53670200Y12553648D01*
X53633915Y12631058D01*
X53597629Y12669762D01*
X53525058Y12708467D01*
X53379915Y12708467D01*
X53307343Y12669762D01*
X53271058Y12631058D01*
X53234772Y12553648D01*
X110352896Y17076998D02*
X110933467Y17076998D01*
X111049581Y17040713D01*
X111126991Y16968141D01*
X111165696Y16859284D01*
X111165696Y16786713D01*
X110623829Y17766427D02*
X111165696Y17766427D01*
X110314191Y17584998D02*
X110894762Y17403570D01*
X110894762Y17875284D01*
X98809897Y102828999D02*
X99390468Y102828999D01*
X99506582Y102792714D01*
X99583992Y102720142D01*
X99622697Y102611285D01*
X99622697Y102538714D01*
X99622697Y103590999D02*
X99622697Y103155571D01*
X99622697Y103373285D02*
X98809897Y103373285D01*
X98926011Y103300714D01*
X99003421Y103228142D01*
X99042125Y103155571D01*
X75819000Y11338057D02*
X75565000Y11338057D01*
X75565000Y10912304D02*
X75565000Y11725104D01*
X75927858Y11725104D01*
X76472143Y11338057D02*
X76581000Y11299352D01*
X76617286Y11260647D01*
X76653572Y11183238D01*
X76653572Y11067123D01*
X76617286Y10989714D01*
X76581000Y10951009D01*
X76508429Y10912304D01*
X76218143Y10912304D01*
X76218143Y11725104D01*
X76472143Y11725104D01*
X76544715Y11686399D01*
X76581000Y11647695D01*
X76617286Y11570285D01*
X76617286Y11492876D01*
X76581000Y11415466D01*
X76544715Y11376761D01*
X76472143Y11338057D01*
X76218143Y11338057D01*
X76907572Y11725104D02*
X77379286Y11725104D01*
X77125286Y11415466D01*
X77234143Y11415466D01*
X77306715Y11376761D01*
X77343000Y11338057D01*
X77379286Y11260647D01*
X77379286Y11067123D01*
X77343000Y10989714D01*
X77306715Y10951009D01*
X77234143Y10912304D01*
X77016429Y10912304D01*
X76943858Y10951009D01*
X76907572Y10989714D01*
X75692000Y45872058D02*
X75438000Y45872058D01*
X75438000Y45446305D02*
X75438000Y46259105D01*
X75800858Y46259105D01*
X76345143Y45872058D02*
X76454000Y45833353D01*
X76490286Y45794648D01*
X76526572Y45717239D01*
X76526572Y45601124D01*
X76490286Y45523715D01*
X76454000Y45485010D01*
X76381429Y45446305D01*
X76091143Y45446305D01*
X76091143Y46259105D01*
X76345143Y46259105D01*
X76417715Y46220400D01*
X76454000Y46181696D01*
X76490286Y46104286D01*
X76490286Y46026877D01*
X76454000Y45949467D01*
X76417715Y45910762D01*
X76345143Y45872058D01*
X76091143Y45872058D01*
X76816858Y46181696D02*
X76853143Y46220400D01*
X76925715Y46259105D01*
X77107143Y46259105D01*
X77179715Y46220400D01*
X77216000Y46181696D01*
X77252286Y46104286D01*
X77252286Y46026877D01*
X77216000Y45910762D01*
X76780572Y45446305D01*
X77252286Y45446305D01*
X90126001Y16085057D02*
X89872001Y16085057D01*
X89872001Y15659304D02*
X89872001Y16472104D01*
X90234859Y16472104D01*
X90779144Y16085057D02*
X90888001Y16046352D01*
X90924287Y16007647D01*
X90960573Y15930238D01*
X90960573Y15814123D01*
X90924287Y15736714D01*
X90888001Y15698009D01*
X90815430Y15659304D01*
X90525144Y15659304D01*
X90525144Y16472104D01*
X90779144Y16472104D01*
X90851716Y16433399D01*
X90888001Y16394695D01*
X90924287Y16317285D01*
X90924287Y16239876D01*
X90888001Y16162466D01*
X90851716Y16123761D01*
X90779144Y16085057D01*
X90525144Y16085057D01*
X91686287Y15659304D02*
X91250859Y15659304D01*
X91468573Y15659304D02*
X91468573Y16472104D01*
X91396001Y16355990D01*
X91323430Y16278580D01*
X91250859Y16239876D01*
X58726697Y19819714D02*
X57913897Y19819714D01*
X57913897Y20001142D01*
X57952601Y20109999D01*
X58030011Y20182571D01*
X58107421Y20218857D01*
X58262240Y20255142D01*
X58378354Y20255142D01*
X58533173Y20218857D01*
X58610582Y20182571D01*
X58687992Y20109999D01*
X58726697Y20001142D01*
X58726697Y19819714D01*
X58726697Y20980857D02*
X58726697Y20545428D01*
X58726697Y20763142D02*
X57913897Y20763142D01*
X58030011Y20690571D01*
X58107421Y20617999D01*
X58146125Y20545428D01*
X57913897Y21670285D02*
X57913897Y21307428D01*
X58300944Y21271142D01*
X58262240Y21307428D01*
X58223535Y21379999D01*
X58223535Y21561428D01*
X58262240Y21633999D01*
X58300944Y21670285D01*
X58378354Y21706571D01*
X58571878Y21706571D01*
X58649287Y21670285D01*
X58687992Y21633999D01*
X58726697Y21561428D01*
X58726697Y21379999D01*
X58687992Y21307428D01*
X58649287Y21271142D01*
X52140697Y19819714D02*
X51327897Y19819714D01*
X51327897Y20001142D01*
X51366601Y20109999D01*
X51444011Y20182571D01*
X51521421Y20218857D01*
X51676240Y20255142D01*
X51792354Y20255142D01*
X51947173Y20218857D01*
X52024582Y20182571D01*
X52101992Y20109999D01*
X52140697Y20001142D01*
X52140697Y19819714D01*
X52140697Y20980857D02*
X52140697Y20545428D01*
X52140697Y20763142D02*
X51327897Y20763142D01*
X51444011Y20690571D01*
X51521421Y20617999D01*
X51560125Y20545428D01*
X51598830Y21633999D02*
X52140697Y21633999D01*
X51289192Y21452571D02*
X51869763Y21271142D01*
X51869763Y21742857D01*
X55783716Y27013304D02*
X55783716Y27826104D01*
X55965144Y27826104D01*
X56074001Y27787399D01*
X56146573Y27709990D01*
X56182859Y27632580D01*
X56219144Y27477761D01*
X56219144Y27361647D01*
X56182859Y27206828D01*
X56146573Y27129419D01*
X56074001Y27052009D01*
X55965144Y27013304D01*
X55783716Y27013304D01*
X56944859Y27013304D02*
X56509430Y27013304D01*
X56727144Y27013304D02*
X56727144Y27826104D01*
X56654573Y27709990D01*
X56582001Y27632580D01*
X56509430Y27593876D01*
X57198859Y27826104D02*
X57670573Y27826104D01*
X57416573Y27516466D01*
X57525430Y27516466D01*
X57598001Y27477761D01*
X57634287Y27439057D01*
X57670573Y27361647D01*
X57670573Y27168123D01*
X57634287Y27090714D01*
X57598001Y27052009D01*
X57525430Y27013304D01*
X57307716Y27013304D01*
X57235144Y27052009D01*
X57198859Y27090714D01*
X38849696Y65876715D02*
X38036896Y65876715D01*
X38036896Y66058143D01*
X38075600Y66167000D01*
X38153010Y66239572D01*
X38230420Y66275858D01*
X38385239Y66312143D01*
X38501353Y66312143D01*
X38656172Y66275858D01*
X38733581Y66239572D01*
X38810991Y66167000D01*
X38849696Y66058143D01*
X38849696Y65876715D01*
X38849696Y67037858D02*
X38849696Y66602429D01*
X38849696Y66820143D02*
X38036896Y66820143D01*
X38153010Y66747572D01*
X38230420Y66675000D01*
X38269124Y66602429D01*
X38114305Y67328143D02*
X38075600Y67364429D01*
X38036896Y67437000D01*
X38036896Y67618429D01*
X38075600Y67691000D01*
X38114305Y67727286D01*
X38191715Y67763572D01*
X38269124Y67763572D01*
X38385239Y67727286D01*
X38849696Y67291858D01*
X38849696Y67763572D01*
X35570697Y65876715D02*
X34757897Y65876715D01*
X34757897Y66058143D01*
X34796601Y66167000D01*
X34874011Y66239572D01*
X34951421Y66275858D01*
X35106240Y66312143D01*
X35222354Y66312143D01*
X35377173Y66275858D01*
X35454582Y66239572D01*
X35531992Y66167000D01*
X35570697Y66058143D01*
X35570697Y65876715D01*
X35570697Y67037858D02*
X35570697Y66602429D01*
X35570697Y66820143D02*
X34757897Y66820143D01*
X34874011Y66747572D01*
X34951421Y66675000D01*
X34990125Y66602429D01*
X35570697Y67763572D02*
X35570697Y67328143D01*
X35570697Y67545858D02*
X34757897Y67545858D01*
X34874011Y67473286D01*
X34951421Y67400715D01*
X34990125Y67328143D01*
X32245696Y65876715D02*
X31432896Y65876715D01*
X31432896Y66058143D01*
X31471600Y66167000D01*
X31549010Y66239572D01*
X31626420Y66275858D01*
X31781239Y66312143D01*
X31897353Y66312143D01*
X32052172Y66275858D01*
X32129581Y66239572D01*
X32206991Y66167000D01*
X32245696Y66058143D01*
X32245696Y65876715D01*
X32245696Y67037858D02*
X32245696Y66602429D01*
X32245696Y66820143D02*
X31432896Y66820143D01*
X31549010Y66747572D01*
X31626420Y66675000D01*
X31665124Y66602429D01*
X31432896Y67509572D02*
X31432896Y67582143D01*
X31471600Y67654715D01*
X31510305Y67691000D01*
X31587715Y67727286D01*
X31742534Y67763572D01*
X31936058Y67763572D01*
X32090877Y67727286D01*
X32168286Y67691000D01*
X32206991Y67654715D01*
X32245696Y67582143D01*
X32245696Y67509572D01*
X32206991Y67437000D01*
X32168286Y67400715D01*
X32090877Y67364429D01*
X31936058Y67328143D01*
X31742534Y67328143D01*
X31587715Y67364429D01*
X31510305Y67400715D01*
X31471600Y67437000D01*
X31432896Y67509572D01*
X49009696Y66239572D02*
X48196896Y66239572D01*
X48196896Y66421000D01*
X48235600Y66529858D01*
X48313010Y66602429D01*
X48390420Y66638715D01*
X48545239Y66675000D01*
X48661353Y66675000D01*
X48816172Y66638715D01*
X48893581Y66602429D01*
X48970991Y66529858D01*
X49009696Y66421000D01*
X49009696Y66239572D01*
X49009696Y67037858D02*
X49009696Y67183000D01*
X48970991Y67255572D01*
X48932286Y67291858D01*
X48816172Y67364429D01*
X48661353Y67400715D01*
X48351715Y67400715D01*
X48274305Y67364429D01*
X48235600Y67328143D01*
X48196896Y67255572D01*
X48196896Y67110429D01*
X48235600Y67037858D01*
X48274305Y67001572D01*
X48351715Y66965286D01*
X48545239Y66965286D01*
X48622648Y67001572D01*
X48661353Y67037858D01*
X48700058Y67110429D01*
X48700058Y67255572D01*
X48661353Y67328143D01*
X48622648Y67364429D01*
X48545239Y67400715D01*
X45453696Y66239572D02*
X44640896Y66239572D01*
X44640896Y66421000D01*
X44679600Y66529858D01*
X44757010Y66602429D01*
X44834420Y66638715D01*
X44989239Y66675000D01*
X45105353Y66675000D01*
X45260172Y66638715D01*
X45337581Y66602429D01*
X45414991Y66529858D01*
X45453696Y66421000D01*
X45453696Y66239572D01*
X44989239Y67110429D02*
X44950534Y67037858D01*
X44911829Y67001572D01*
X44834420Y66965286D01*
X44795715Y66965286D01*
X44718305Y67001572D01*
X44679600Y67037858D01*
X44640896Y67110429D01*
X44640896Y67255572D01*
X44679600Y67328143D01*
X44718305Y67364429D01*
X44795715Y67400715D01*
X44834420Y67400715D01*
X44911829Y67364429D01*
X44950534Y67328143D01*
X44989239Y67255572D01*
X44989239Y67110429D01*
X45027943Y67037858D01*
X45066648Y67001572D01*
X45144058Y66965286D01*
X45298877Y66965286D01*
X45376286Y67001572D01*
X45414991Y67037858D01*
X45453696Y67110429D01*
X45453696Y67255572D01*
X45414991Y67328143D01*
X45376286Y67364429D01*
X45298877Y67400715D01*
X45144058Y67400715D01*
X45066648Y67364429D01*
X45027943Y67328143D01*
X44989239Y67255572D01*
X95110696Y32440571D02*
X94297896Y32440571D01*
X94297896Y32621999D01*
X94336600Y32730857D01*
X94414010Y32803428D01*
X94491420Y32839714D01*
X94646239Y32875999D01*
X94762353Y32875999D01*
X94917172Y32839714D01*
X94994581Y32803428D01*
X95071991Y32730857D01*
X95110696Y32621999D01*
X95110696Y32440571D01*
X94297896Y33129999D02*
X94297896Y33637999D01*
X95110696Y33311428D01*
X95110696Y26344571D02*
X94297896Y26344571D01*
X94297896Y26525999D01*
X94336600Y26634857D01*
X94414010Y26707428D01*
X94491420Y26743714D01*
X94646239Y26779999D01*
X94762353Y26779999D01*
X94917172Y26743714D01*
X94994581Y26707428D01*
X95071991Y26634857D01*
X95110696Y26525999D01*
X95110696Y26344571D01*
X94297896Y27433142D02*
X94297896Y27287999D01*
X94336600Y27215428D01*
X94375305Y27179142D01*
X94491420Y27106571D01*
X94646239Y27070285D01*
X94955877Y27070285D01*
X95033286Y27106571D01*
X95071991Y27142857D01*
X95110696Y27215428D01*
X95110696Y27360571D01*
X95071991Y27433142D01*
X95033286Y27469428D01*
X94955877Y27505714D01*
X94762353Y27505714D01*
X94684943Y27469428D01*
X94646239Y27433142D01*
X94607534Y27360571D01*
X94607534Y27215428D01*
X94646239Y27142857D01*
X94684943Y27106571D01*
X94762353Y27070285D01*
X52777572Y61354305D02*
X52777572Y62167105D01*
X52959000Y62167105D01*
X53067858Y62128400D01*
X53140429Y62050991D01*
X53176715Y61973581D01*
X53213000Y61818762D01*
X53213000Y61702648D01*
X53176715Y61547829D01*
X53140429Y61470420D01*
X53067858Y61393010D01*
X52959000Y61354305D01*
X52777572Y61354305D01*
X53902429Y62167105D02*
X53539572Y62167105D01*
X53503286Y61780058D01*
X53539572Y61818762D01*
X53612143Y61857467D01*
X53793572Y61857467D01*
X53866143Y61818762D01*
X53902429Y61780058D01*
X53938715Y61702648D01*
X53938715Y61509124D01*
X53902429Y61431715D01*
X53866143Y61393010D01*
X53793572Y61354305D01*
X53612143Y61354305D01*
X53539572Y61393010D01*
X53503286Y61431715D01*
X42998572Y61354305D02*
X42998572Y62167105D01*
X43180000Y62167105D01*
X43288858Y62128400D01*
X43361429Y62050991D01*
X43397715Y61973581D01*
X43434000Y61818762D01*
X43434000Y61702648D01*
X43397715Y61547829D01*
X43361429Y61470420D01*
X43288858Y61393010D01*
X43180000Y61354305D01*
X42998572Y61354305D01*
X44087143Y61896172D02*
X44087143Y61354305D01*
X43905715Y62205810D02*
X43724286Y61625239D01*
X44196000Y61625239D01*
X32711572Y61354305D02*
X32711572Y62167105D01*
X32893000Y62167105D01*
X33001858Y62128400D01*
X33074429Y62050991D01*
X33110715Y61973581D01*
X33147000Y61818762D01*
X33147000Y61702648D01*
X33110715Y61547829D01*
X33074429Y61470420D01*
X33001858Y61393010D01*
X32893000Y61354305D01*
X32711572Y61354305D01*
X33401000Y62167105D02*
X33872715Y62167105D01*
X33618715Y61857467D01*
X33727572Y61857467D01*
X33800143Y61818762D01*
X33836429Y61780058D01*
X33872715Y61702648D01*
X33872715Y61509124D01*
X33836429Y61431715D01*
X33800143Y61393010D01*
X33727572Y61354305D01*
X33509858Y61354305D01*
X33437286Y61393010D01*
X33401000Y61431715D01*
X23059572Y61354305D02*
X23059572Y62167105D01*
X23241000Y62167105D01*
X23349858Y62128400D01*
X23422429Y62050991D01*
X23458715Y61973581D01*
X23495000Y61818762D01*
X23495000Y61702648D01*
X23458715Y61547829D01*
X23422429Y61470420D01*
X23349858Y61393010D01*
X23241000Y61354305D01*
X23059572Y61354305D01*
X23785286Y62089696D02*
X23821572Y62128400D01*
X23894143Y62167105D01*
X24075572Y62167105D01*
X24148143Y62128400D01*
X24184429Y62089696D01*
X24220715Y62012286D01*
X24220715Y61934877D01*
X24184429Y61818762D01*
X23749000Y61354305D01*
X24220715Y61354305D01*
X68362286Y14115143D02*
X68400991Y14078858D01*
X68439696Y13970000D01*
X68439696Y13897429D01*
X68400991Y13788572D01*
X68323581Y13716000D01*
X68246172Y13679715D01*
X68091353Y13643429D01*
X67975239Y13643429D01*
X67820420Y13679715D01*
X67743010Y13716000D01*
X67665600Y13788572D01*
X67626896Y13897429D01*
X67626896Y13970000D01*
X67665600Y14078858D01*
X67704305Y14115143D01*
X67626896Y14804572D02*
X67626896Y14441715D01*
X68013943Y14405429D01*
X67975239Y14441715D01*
X67936534Y14514286D01*
X67936534Y14695715D01*
X67975239Y14768286D01*
X68013943Y14804572D01*
X68091353Y14840858D01*
X68284877Y14840858D01*
X68362286Y14804572D01*
X68400991Y14768286D01*
X68439696Y14695715D01*
X68439696Y14514286D01*
X68400991Y14441715D01*
X68362286Y14405429D01*
X67626896Y15312572D02*
X67626896Y15385143D01*
X67665600Y15457715D01*
X67704305Y15494000D01*
X67781715Y15530286D01*
X67936534Y15566572D01*
X68130058Y15566572D01*
X68284877Y15530286D01*
X68362286Y15494000D01*
X68400991Y15457715D01*
X68439696Y15385143D01*
X68439696Y15312572D01*
X68400991Y15240000D01*
X68362286Y15203715D01*
X68284877Y15167429D01*
X68130058Y15131143D01*
X67936534Y15131143D01*
X67781715Y15167429D01*
X67704305Y15203715D01*
X67665600Y15240000D01*
X67626896Y15312572D01*
X68489286Y11575143D02*
X68527991Y11538858D01*
X68566696Y11430000D01*
X68566696Y11357429D01*
X68527991Y11248572D01*
X68450581Y11176000D01*
X68373172Y11139715D01*
X68218353Y11103429D01*
X68102239Y11103429D01*
X67947420Y11139715D01*
X67870010Y11176000D01*
X67792600Y11248572D01*
X67753896Y11357429D01*
X67753896Y11430000D01*
X67792600Y11538858D01*
X67831305Y11575143D01*
X68024829Y12228286D02*
X68566696Y12228286D01*
X67715191Y12046858D02*
X68295762Y11865429D01*
X68295762Y12337143D01*
X68566696Y12663715D02*
X68566696Y12808858D01*
X68527991Y12881429D01*
X68489286Y12917715D01*
X68373172Y12990286D01*
X68218353Y13026572D01*
X67908715Y13026572D01*
X67831305Y12990286D01*
X67792600Y12954000D01*
X67753896Y12881429D01*
X67753896Y12736286D01*
X67792600Y12663715D01*
X67831305Y12627429D01*
X67908715Y12591143D01*
X68102239Y12591143D01*
X68179648Y12627429D01*
X68218353Y12663715D01*
X68257058Y12736286D01*
X68257058Y12881429D01*
X68218353Y12954000D01*
X68179648Y12990286D01*
X68102239Y13026572D01*
X71646143Y8218715D02*
X71609858Y8180010D01*
X71501000Y8141305D01*
X71428429Y8141305D01*
X71319572Y8180010D01*
X71247000Y8257420D01*
X71210715Y8334829D01*
X71174429Y8489648D01*
X71174429Y8605762D01*
X71210715Y8760581D01*
X71247000Y8837991D01*
X71319572Y8915400D01*
X71428429Y8954105D01*
X71501000Y8954105D01*
X71609858Y8915400D01*
X71646143Y8876696D01*
X72299286Y8683172D02*
X72299286Y8141305D01*
X72117858Y8992810D02*
X71936429Y8412239D01*
X72408143Y8412239D01*
X72807286Y8605762D02*
X72734715Y8644467D01*
X72698429Y8683172D01*
X72662143Y8760581D01*
X72662143Y8799286D01*
X72698429Y8876696D01*
X72734715Y8915400D01*
X72807286Y8954105D01*
X72952429Y8954105D01*
X73025000Y8915400D01*
X73061286Y8876696D01*
X73097572Y8799286D01*
X73097572Y8760581D01*
X73061286Y8683172D01*
X73025000Y8644467D01*
X72952429Y8605762D01*
X72807286Y8605762D01*
X72734715Y8567058D01*
X72698429Y8528353D01*
X72662143Y8450943D01*
X72662143Y8296124D01*
X72698429Y8218715D01*
X72734715Y8180010D01*
X72807286Y8141305D01*
X72952429Y8141305D01*
X73025000Y8180010D01*
X73061286Y8218715D01*
X73097572Y8296124D01*
X73097572Y8450943D01*
X73061286Y8528353D01*
X73025000Y8567058D01*
X72952429Y8605762D01*
X62061144Y12639714D02*
X62024859Y12601009D01*
X61916001Y12562304D01*
X61843430Y12562304D01*
X61734573Y12601009D01*
X61662001Y12678419D01*
X61625716Y12755828D01*
X61589430Y12910647D01*
X61589430Y13026761D01*
X61625716Y13181580D01*
X61662001Y13258990D01*
X61734573Y13336399D01*
X61843430Y13375104D01*
X61916001Y13375104D01*
X62024859Y13336399D01*
X62061144Y13297695D01*
X62714287Y13104171D02*
X62714287Y12562304D01*
X62532859Y13413809D02*
X62351430Y12833238D01*
X62823144Y12833238D01*
X63040859Y13375104D02*
X63548859Y13375104D01*
X63222287Y12562304D01*
X75710143Y74893715D02*
X75673858Y74855010D01*
X75565000Y74816305D01*
X75492429Y74816305D01*
X75383572Y74855010D01*
X75311000Y74932420D01*
X75274715Y75009829D01*
X75238429Y75164648D01*
X75238429Y75280762D01*
X75274715Y75435581D01*
X75311000Y75512991D01*
X75383572Y75590400D01*
X75492429Y75629105D01*
X75565000Y75629105D01*
X75673858Y75590400D01*
X75710143Y75551696D01*
X76363286Y75358172D02*
X76363286Y74816305D01*
X76181858Y75667810D02*
X76000429Y75087239D01*
X76472143Y75087239D01*
X76907572Y75629105D02*
X76980143Y75629105D01*
X77052715Y75590400D01*
X77089000Y75551696D01*
X77125286Y75474286D01*
X77161572Y75319467D01*
X77161572Y75125943D01*
X77125286Y74971124D01*
X77089000Y74893715D01*
X77052715Y74855010D01*
X76980143Y74816305D01*
X76907572Y74816305D01*
X76835000Y74855010D01*
X76798715Y74893715D01*
X76762429Y74971124D01*
X76726143Y75125943D01*
X76726143Y75319467D01*
X76762429Y75474286D01*
X76798715Y75551696D01*
X76835000Y75590400D01*
X76907572Y75629105D01*
X82060143Y74893715D02*
X82023858Y74855010D01*
X81915000Y74816305D01*
X81842429Y74816305D01*
X81733572Y74855010D01*
X81661000Y74932420D01*
X81624715Y75009829D01*
X81588429Y75164648D01*
X81588429Y75280762D01*
X81624715Y75435581D01*
X81661000Y75512991D01*
X81733572Y75590400D01*
X81842429Y75629105D01*
X81915000Y75629105D01*
X82023858Y75590400D01*
X82060143Y75551696D01*
X82314143Y75629105D02*
X82785858Y75629105D01*
X82531858Y75319467D01*
X82640715Y75319467D01*
X82713286Y75280762D01*
X82749572Y75242058D01*
X82785858Y75164648D01*
X82785858Y74971124D01*
X82749572Y74893715D01*
X82713286Y74855010D01*
X82640715Y74816305D01*
X82423000Y74816305D01*
X82350429Y74855010D01*
X82314143Y74893715D01*
X83148715Y74816305D02*
X83293858Y74816305D01*
X83366429Y74855010D01*
X83402715Y74893715D01*
X83475286Y75009829D01*
X83511572Y75164648D01*
X83511572Y75474286D01*
X83475286Y75551696D01*
X83439000Y75590400D01*
X83366429Y75629105D01*
X83221286Y75629105D01*
X83148715Y75590400D01*
X83112429Y75551696D01*
X83076143Y75474286D01*
X83076143Y75280762D01*
X83112429Y75203353D01*
X83148715Y75164648D01*
X83221286Y75125943D01*
X83366429Y75125943D01*
X83439000Y75164648D01*
X83475286Y75203353D01*
X83511572Y75280762D01*
X77346286Y57422143D02*
X77384991Y57385858D01*
X77423696Y57277000D01*
X77423696Y57204429D01*
X77384991Y57095572D01*
X77307581Y57023000D01*
X77230172Y56986715D01*
X77075353Y56950429D01*
X76959239Y56950429D01*
X76804420Y56986715D01*
X76727010Y57023000D01*
X76649600Y57095572D01*
X76610896Y57204429D01*
X76610896Y57277000D01*
X76649600Y57385858D01*
X76688305Y57422143D01*
X76610896Y57676143D02*
X76610896Y58147858D01*
X76920534Y57893858D01*
X76920534Y58002715D01*
X76959239Y58075286D01*
X76997943Y58111572D01*
X77075353Y58147858D01*
X77268877Y58147858D01*
X77346286Y58111572D01*
X77384991Y58075286D01*
X77423696Y58002715D01*
X77423696Y57785000D01*
X77384991Y57712429D01*
X77346286Y57676143D01*
X76959239Y58583286D02*
X76920534Y58510715D01*
X76881829Y58474429D01*
X76804420Y58438143D01*
X76765715Y58438143D01*
X76688305Y58474429D01*
X76649600Y58510715D01*
X76610896Y58583286D01*
X76610896Y58728429D01*
X76649600Y58801000D01*
X76688305Y58837286D01*
X76765715Y58873572D01*
X76804420Y58873572D01*
X76881829Y58837286D01*
X76920534Y58801000D01*
X76959239Y58728429D01*
X76959239Y58583286D01*
X76997943Y58510715D01*
X77036648Y58474429D01*
X77114058Y58438143D01*
X77268877Y58438143D01*
X77346286Y58474429D01*
X77384991Y58510715D01*
X77423696Y58583286D01*
X77423696Y58728429D01*
X77384991Y58801000D01*
X77346286Y58837286D01*
X77268877Y58873572D01*
X77114058Y58873572D01*
X77036648Y58837286D01*
X76997943Y58801000D01*
X76959239Y58728429D01*
X93871143Y61017715D02*
X93834858Y60979010D01*
X93726000Y60940305D01*
X93653429Y60940305D01*
X93544572Y60979010D01*
X93472000Y61056420D01*
X93435715Y61133829D01*
X93399429Y61288648D01*
X93399429Y61404762D01*
X93435715Y61559581D01*
X93472000Y61636991D01*
X93544572Y61714400D01*
X93653429Y61753105D01*
X93726000Y61753105D01*
X93834858Y61714400D01*
X93871143Y61675696D01*
X94125143Y61753105D02*
X94596858Y61753105D01*
X94342858Y61443467D01*
X94451715Y61443467D01*
X94524286Y61404762D01*
X94560572Y61366058D01*
X94596858Y61288648D01*
X94596858Y61095124D01*
X94560572Y61017715D01*
X94524286Y60979010D01*
X94451715Y60940305D01*
X94234000Y60940305D01*
X94161429Y60979010D01*
X94125143Y61017715D01*
X94850858Y61753105D02*
X95358858Y61753105D01*
X95032286Y60940305D01*
X93871143Y58477715D02*
X93834858Y58439010D01*
X93726000Y58400305D01*
X93653429Y58400305D01*
X93544572Y58439010D01*
X93472000Y58516420D01*
X93435715Y58593829D01*
X93399429Y58748648D01*
X93399429Y58864762D01*
X93435715Y59019581D01*
X93472000Y59096991D01*
X93544572Y59174400D01*
X93653429Y59213105D01*
X93726000Y59213105D01*
X93834858Y59174400D01*
X93871143Y59135696D01*
X94125143Y59213105D02*
X94596858Y59213105D01*
X94342858Y58903467D01*
X94451715Y58903467D01*
X94524286Y58864762D01*
X94560572Y58826058D01*
X94596858Y58748648D01*
X94596858Y58555124D01*
X94560572Y58477715D01*
X94524286Y58439010D01*
X94451715Y58400305D01*
X94234000Y58400305D01*
X94161429Y58439010D01*
X94125143Y58477715D01*
X95250000Y59213105D02*
X95104858Y59213105D01*
X95032286Y59174400D01*
X94996000Y59135696D01*
X94923429Y59019581D01*
X94887143Y58864762D01*
X94887143Y58555124D01*
X94923429Y58477715D01*
X94959715Y58439010D01*
X95032286Y58400305D01*
X95177429Y58400305D01*
X95250000Y58439010D01*
X95286286Y58477715D01*
X95322572Y58555124D01*
X95322572Y58748648D01*
X95286286Y58826058D01*
X95250000Y58864762D01*
X95177429Y58903467D01*
X95032286Y58903467D01*
X94959715Y58864762D01*
X94923429Y58826058D01*
X94887143Y58748648D01*
X84092143Y54191715D02*
X84055858Y54153010D01*
X83947000Y54114305D01*
X83874429Y54114305D01*
X83765572Y54153010D01*
X83693000Y54230420D01*
X83656715Y54307829D01*
X83620429Y54462648D01*
X83620429Y54578762D01*
X83656715Y54733581D01*
X83693000Y54810991D01*
X83765572Y54888400D01*
X83874429Y54927105D01*
X83947000Y54927105D01*
X84055858Y54888400D01*
X84092143Y54849696D01*
X84346143Y54927105D02*
X84817858Y54927105D01*
X84563858Y54617467D01*
X84672715Y54617467D01*
X84745286Y54578762D01*
X84781572Y54540058D01*
X84817858Y54462648D01*
X84817858Y54269124D01*
X84781572Y54191715D01*
X84745286Y54153010D01*
X84672715Y54114305D01*
X84455000Y54114305D01*
X84382429Y54153010D01*
X84346143Y54191715D01*
X85507286Y54927105D02*
X85144429Y54927105D01*
X85108143Y54540058D01*
X85144429Y54578762D01*
X85217000Y54617467D01*
X85398429Y54617467D01*
X85471000Y54578762D01*
X85507286Y54540058D01*
X85543572Y54462648D01*
X85543572Y54269124D01*
X85507286Y54191715D01*
X85471000Y54153010D01*
X85398429Y54114305D01*
X85217000Y54114305D01*
X85144429Y54153010D01*
X85108143Y54191715D01*
X86319287Y53208142D02*
X86357992Y53171857D01*
X86396697Y53062999D01*
X86396697Y52990428D01*
X86357992Y52881571D01*
X86280582Y52808999D01*
X86203173Y52772714D01*
X86048354Y52736428D01*
X85932240Y52736428D01*
X85777421Y52772714D01*
X85700011Y52808999D01*
X85622601Y52881571D01*
X85583897Y52990428D01*
X85583897Y53062999D01*
X85622601Y53171857D01*
X85661306Y53208142D01*
X85583897Y53462142D02*
X85583897Y53933857D01*
X85893535Y53679857D01*
X85893535Y53788714D01*
X85932240Y53861285D01*
X85970944Y53897571D01*
X86048354Y53933857D01*
X86241878Y53933857D01*
X86319287Y53897571D01*
X86357992Y53861285D01*
X86396697Y53788714D01*
X86396697Y53570999D01*
X86357992Y53498428D01*
X86319287Y53462142D01*
X85854830Y54586999D02*
X86396697Y54586999D01*
X85545192Y54405571D02*
X86125763Y54224142D01*
X86125763Y54695857D01*
X75187286Y57422143D02*
X75225991Y57385858D01*
X75264696Y57277000D01*
X75264696Y57204429D01*
X75225991Y57095572D01*
X75148581Y57023000D01*
X75071172Y56986715D01*
X74916353Y56950429D01*
X74800239Y56950429D01*
X74645420Y56986715D01*
X74568010Y57023000D01*
X74490600Y57095572D01*
X74451896Y57204429D01*
X74451896Y57277000D01*
X74490600Y57385858D01*
X74529305Y57422143D01*
X74451896Y57676143D02*
X74451896Y58147858D01*
X74761534Y57893858D01*
X74761534Y58002715D01*
X74800239Y58075286D01*
X74838943Y58111572D01*
X74916353Y58147858D01*
X75109877Y58147858D01*
X75187286Y58111572D01*
X75225991Y58075286D01*
X75264696Y58002715D01*
X75264696Y57785000D01*
X75225991Y57712429D01*
X75187286Y57676143D01*
X74529305Y58438143D02*
X74490600Y58474429D01*
X74451896Y58547000D01*
X74451896Y58728429D01*
X74490600Y58801000D01*
X74529305Y58837286D01*
X74606715Y58873572D01*
X74684124Y58873572D01*
X74800239Y58837286D01*
X75264696Y58401858D01*
X75264696Y58873572D01*
X76793144Y66290715D02*
X76756859Y66252010D01*
X76648001Y66213305D01*
X76575430Y66213305D01*
X76466573Y66252010D01*
X76394001Y66329420D01*
X76357716Y66406829D01*
X76321430Y66561648D01*
X76321430Y66677762D01*
X76357716Y66832581D01*
X76394001Y66909991D01*
X76466573Y66987400D01*
X76575430Y67026105D01*
X76648001Y67026105D01*
X76756859Y66987400D01*
X76793144Y66948696D01*
X77047144Y67026105D02*
X77518859Y67026105D01*
X77264859Y66716467D01*
X77373716Y66716467D01*
X77446287Y66677762D01*
X77482573Y66639058D01*
X77518859Y66561648D01*
X77518859Y66368124D01*
X77482573Y66290715D01*
X77446287Y66252010D01*
X77373716Y66213305D01*
X77156001Y66213305D01*
X77083430Y66252010D01*
X77047144Y66290715D01*
X78244573Y66213305D02*
X77809144Y66213305D01*
X78026859Y66213305D02*
X78026859Y67026105D01*
X77954287Y66909991D01*
X77881716Y66832581D01*
X77809144Y66793877D01*
X93871143Y55937715D02*
X93834858Y55899010D01*
X93726000Y55860305D01*
X93653429Y55860305D01*
X93544572Y55899010D01*
X93472000Y55976420D01*
X93435715Y56053829D01*
X93399429Y56208648D01*
X93399429Y56324762D01*
X93435715Y56479581D01*
X93472000Y56556991D01*
X93544572Y56634400D01*
X93653429Y56673105D01*
X93726000Y56673105D01*
X93834858Y56634400D01*
X93871143Y56595696D01*
X94125143Y56673105D02*
X94596858Y56673105D01*
X94342858Y56363467D01*
X94451715Y56363467D01*
X94524286Y56324762D01*
X94560572Y56286058D01*
X94596858Y56208648D01*
X94596858Y56015124D01*
X94560572Y55937715D01*
X94524286Y55899010D01*
X94451715Y55860305D01*
X94234000Y55860305D01*
X94161429Y55899010D01*
X94125143Y55937715D01*
X95068572Y56673105D02*
X95141143Y56673105D01*
X95213715Y56634400D01*
X95250000Y56595696D01*
X95286286Y56518286D01*
X95322572Y56363467D01*
X95322572Y56169943D01*
X95286286Y56015124D01*
X95250000Y55937715D01*
X95213715Y55899010D01*
X95141143Y55860305D01*
X95068572Y55860305D01*
X94996000Y55899010D01*
X94959715Y55937715D01*
X94923429Y56015124D01*
X94887143Y56169943D01*
X94887143Y56363467D01*
X94923429Y56518286D01*
X94959715Y56595696D01*
X94996000Y56634400D01*
X95068572Y56673105D01*
X74059143Y79625715D02*
X74022858Y79587010D01*
X73914000Y79548305D01*
X73841429Y79548305D01*
X73732572Y79587010D01*
X73660000Y79664420D01*
X73623715Y79741829D01*
X73587429Y79896648D01*
X73587429Y80012762D01*
X73623715Y80167581D01*
X73660000Y80244991D01*
X73732572Y80322400D01*
X73841429Y80361105D01*
X73914000Y80361105D01*
X74022858Y80322400D01*
X74059143Y80283696D01*
X74349429Y80283696D02*
X74385715Y80322400D01*
X74458286Y80361105D01*
X74639715Y80361105D01*
X74712286Y80322400D01*
X74748572Y80283696D01*
X74784858Y80206286D01*
X74784858Y80128877D01*
X74748572Y80012762D01*
X74313143Y79548305D01*
X74784858Y79548305D01*
X75147715Y79548305D02*
X75292858Y79548305D01*
X75365429Y79587010D01*
X75401715Y79625715D01*
X75474286Y79741829D01*
X75510572Y79896648D01*
X75510572Y80206286D01*
X75474286Y80283696D01*
X75438000Y80322400D01*
X75365429Y80361105D01*
X75220286Y80361105D01*
X75147715Y80322400D01*
X75111429Y80283696D01*
X75075143Y80206286D01*
X75075143Y80012762D01*
X75111429Y79935353D01*
X75147715Y79896648D01*
X75220286Y79857943D01*
X75365429Y79857943D01*
X75438000Y79896648D01*
X75474286Y79935353D01*
X75510572Y80012762D01*
X89881287Y69851142D02*
X89919992Y69814857D01*
X89958697Y69705999D01*
X89958697Y69633428D01*
X89919992Y69524571D01*
X89842582Y69451999D01*
X89765173Y69415714D01*
X89610354Y69379428D01*
X89494240Y69379428D01*
X89339421Y69415714D01*
X89262011Y69451999D01*
X89184601Y69524571D01*
X89145897Y69633428D01*
X89145897Y69705999D01*
X89184601Y69814857D01*
X89223306Y69851142D01*
X89223306Y70141428D02*
X89184601Y70177714D01*
X89145897Y70250285D01*
X89145897Y70431714D01*
X89184601Y70504285D01*
X89223306Y70540571D01*
X89300716Y70576857D01*
X89378125Y70576857D01*
X89494240Y70540571D01*
X89958697Y70105142D01*
X89958697Y70576857D01*
X89145897Y70830857D02*
X89145897Y71338857D01*
X89958697Y71012285D01*
X98129144Y67273715D02*
X98092859Y67235010D01*
X97984001Y67196305D01*
X97911430Y67196305D01*
X97802573Y67235010D01*
X97730001Y67312420D01*
X97693716Y67389829D01*
X97657430Y67544648D01*
X97657430Y67660762D01*
X97693716Y67815581D01*
X97730001Y67892991D01*
X97802573Y67970400D01*
X97911430Y68009105D01*
X97984001Y68009105D01*
X98092859Y67970400D01*
X98129144Y67931696D01*
X98419430Y67931696D02*
X98455716Y67970400D01*
X98528287Y68009105D01*
X98709716Y68009105D01*
X98782287Y67970400D01*
X98818573Y67931696D01*
X98854859Y67854286D01*
X98854859Y67776877D01*
X98818573Y67660762D01*
X98383144Y67196305D01*
X98854859Y67196305D01*
X99290287Y67660762D02*
X99217716Y67699467D01*
X99181430Y67738172D01*
X99145144Y67815581D01*
X99145144Y67854286D01*
X99181430Y67931696D01*
X99217716Y67970400D01*
X99290287Y68009105D01*
X99435430Y68009105D01*
X99508001Y67970400D01*
X99544287Y67931696D01*
X99580573Y67854286D01*
X99580573Y67815581D01*
X99544287Y67738172D01*
X99508001Y67699467D01*
X99435430Y67660762D01*
X99290287Y67660762D01*
X99217716Y67622058D01*
X99181430Y67583353D01*
X99145144Y67505943D01*
X99145144Y67351124D01*
X99181430Y67273715D01*
X99217716Y67235010D01*
X99290287Y67196305D01*
X99435430Y67196305D01*
X99508001Y67235010D01*
X99544287Y67273715D01*
X99580573Y67351124D01*
X99580573Y67505943D01*
X99544287Y67583353D01*
X99508001Y67622058D01*
X99435430Y67660762D01*
X92811144Y66594714D02*
X92774859Y66556009D01*
X92666001Y66517304D01*
X92593430Y66517304D01*
X92484573Y66556009D01*
X92412001Y66633419D01*
X92375716Y66710828D01*
X92339430Y66865647D01*
X92339430Y66981761D01*
X92375716Y67136580D01*
X92412001Y67213990D01*
X92484573Y67291399D01*
X92593430Y67330104D01*
X92666001Y67330104D01*
X92774859Y67291399D01*
X92811144Y67252695D01*
X93101430Y67252695D02*
X93137716Y67291399D01*
X93210287Y67330104D01*
X93391716Y67330104D01*
X93464287Y67291399D01*
X93500573Y67252695D01*
X93536859Y67175285D01*
X93536859Y67097876D01*
X93500573Y66981761D01*
X93065144Y66517304D01*
X93536859Y66517304D01*
X93790859Y67330104D02*
X94262573Y67330104D01*
X94008573Y67020466D01*
X94117430Y67020466D01*
X94190002Y66981761D01*
X94226287Y66943057D01*
X94262573Y66865647D01*
X94262573Y66672123D01*
X94226287Y66594714D01*
X94190002Y66556009D01*
X94117430Y66517304D01*
X93899716Y66517304D01*
X93827144Y66556009D01*
X93790859Y66594714D01*
X110762143Y69813715D02*
X110725858Y69775010D01*
X110617000Y69736305D01*
X110544429Y69736305D01*
X110435572Y69775010D01*
X110363000Y69852420D01*
X110326715Y69929829D01*
X110290429Y70084648D01*
X110290429Y70200762D01*
X110326715Y70355581D01*
X110363000Y70432991D01*
X110435572Y70510400D01*
X110544429Y70549105D01*
X110617000Y70549105D01*
X110725858Y70510400D01*
X110762143Y70471696D01*
X111052429Y70471696D02*
X111088715Y70510400D01*
X111161286Y70549105D01*
X111342715Y70549105D01*
X111415286Y70510400D01*
X111451572Y70471696D01*
X111487858Y70394286D01*
X111487858Y70316877D01*
X111451572Y70200762D01*
X111016143Y69736305D01*
X111487858Y69736305D01*
X112141000Y70278172D02*
X112141000Y69736305D01*
X111959572Y70587810D02*
X111778143Y70007239D01*
X112249858Y70007239D01*
D13*
X92811144Y64816714D02*
X92774859Y64778009D01*
X92666001Y64739304D01*
X92593430Y64739304D01*
X92484573Y64778009D01*
X92412001Y64855419D01*
X92375716Y64932828D01*
X92339430Y65087647D01*
X92339430Y65203761D01*
X92375716Y65358580D01*
X92412001Y65435990D01*
X92484573Y65513399D01*
X92593430Y65552104D01*
X92666001Y65552104D01*
X92774859Y65513399D01*
X92811144Y65474695D01*
X93101430Y65474695D02*
X93137716Y65513399D01*
X93210287Y65552104D01*
X93391716Y65552104D01*
X93464287Y65513399D01*
X93500573Y65474695D01*
X93536859Y65397285D01*
X93536859Y65319876D01*
X93500573Y65203761D01*
X93065144Y64739304D01*
X93536859Y64739304D01*
X93827144Y65474695D02*
X93863430Y65513399D01*
X93936002Y65552104D01*
X94117430Y65552104D01*
X94190002Y65513399D01*
X94226287Y65474695D01*
X94262573Y65397285D01*
X94262573Y65319876D01*
X94226287Y65203761D01*
X93790859Y64739304D01*
X94262573Y64739304D01*
D19*
X54232286Y77488143D02*
X54270991Y77451858D01*
X54309696Y77343000D01*
X54309696Y77270429D01*
X54270991Y77161572D01*
X54193581Y77089000D01*
X54116172Y77052715D01*
X53961353Y77016429D01*
X53845239Y77016429D01*
X53690420Y77052715D01*
X53613010Y77089000D01*
X53535600Y77161572D01*
X53496896Y77270429D01*
X53496896Y77343000D01*
X53535600Y77451858D01*
X53574305Y77488143D01*
X53574305Y77778429D02*
X53535600Y77814715D01*
X53496896Y77887286D01*
X53496896Y78068715D01*
X53535600Y78141286D01*
X53574305Y78177572D01*
X53651715Y78213858D01*
X53729124Y78213858D01*
X53845239Y78177572D01*
X54309696Y77742143D01*
X54309696Y78213858D01*
X54309696Y78939572D02*
X54309696Y78504143D01*
X54309696Y78721858D02*
X53496896Y78721858D01*
X53613010Y78649286D01*
X53690420Y78576715D01*
X53729124Y78504143D01*
X96097144Y45904715D02*
X96060859Y45866010D01*
X95952001Y45827305D01*
X95879430Y45827305D01*
X95770573Y45866010D01*
X95698001Y45943420D01*
X95661716Y46020829D01*
X95625430Y46175648D01*
X95625430Y46291762D01*
X95661716Y46446581D01*
X95698001Y46523991D01*
X95770573Y46601400D01*
X95879430Y46640105D01*
X95952001Y46640105D01*
X96060859Y46601400D01*
X96097144Y46562696D01*
X96387430Y46562696D02*
X96423716Y46601400D01*
X96496287Y46640105D01*
X96677716Y46640105D01*
X96750287Y46601400D01*
X96786573Y46562696D01*
X96822859Y46485286D01*
X96822859Y46407877D01*
X96786573Y46291762D01*
X96351144Y45827305D01*
X96822859Y45827305D01*
X97294573Y46640105D02*
X97367144Y46640105D01*
X97439716Y46601400D01*
X97476001Y46562696D01*
X97512287Y46485286D01*
X97548573Y46330467D01*
X97548573Y46136943D01*
X97512287Y45982124D01*
X97476001Y45904715D01*
X97439716Y45866010D01*
X97367144Y45827305D01*
X97294573Y45827305D01*
X97222001Y45866010D01*
X97185716Y45904715D01*
X97149430Y45982124D01*
X97113144Y46136943D01*
X97113144Y46330467D01*
X97149430Y46485286D01*
X97185716Y46562696D01*
X97222001Y46601400D01*
X97294573Y46640105D01*
X92398286Y52850143D02*
X92436991Y52813858D01*
X92475696Y52705000D01*
X92475696Y52632429D01*
X92436991Y52523572D01*
X92359581Y52451000D01*
X92282172Y52414715D01*
X92127353Y52378429D01*
X92011239Y52378429D01*
X91856420Y52414715D01*
X91779010Y52451000D01*
X91701600Y52523572D01*
X91662896Y52632429D01*
X91662896Y52705000D01*
X91701600Y52813858D01*
X91740305Y52850143D01*
X92475696Y53575858D02*
X92475696Y53140429D01*
X92475696Y53358143D02*
X91662896Y53358143D01*
X91779010Y53285572D01*
X91856420Y53213000D01*
X91895124Y53140429D01*
X92475696Y53938715D02*
X92475696Y54083858D01*
X92436991Y54156429D01*
X92398286Y54192715D01*
X92282172Y54265286D01*
X92127353Y54301572D01*
X91817715Y54301572D01*
X91740305Y54265286D01*
X91701600Y54229000D01*
X91662896Y54156429D01*
X91662896Y54011286D01*
X91701600Y53938715D01*
X91740305Y53902429D01*
X91817715Y53866143D01*
X92011239Y53866143D01*
X92088648Y53902429D01*
X92127353Y53938715D01*
X92166058Y54011286D01*
X92166058Y54156429D01*
X92127353Y54229000D01*
X92088648Y54265286D01*
X92011239Y54301572D01*
X97987287Y50691143D02*
X98025992Y50654858D01*
X98064697Y50546000D01*
X98064697Y50473429D01*
X98025992Y50364572D01*
X97948582Y50292000D01*
X97871173Y50255715D01*
X97716354Y50219429D01*
X97600240Y50219429D01*
X97445421Y50255715D01*
X97368011Y50292000D01*
X97290601Y50364572D01*
X97251897Y50473429D01*
X97251897Y50546000D01*
X97290601Y50654858D01*
X97329306Y50691143D01*
X98064697Y51416858D02*
X98064697Y50981429D01*
X98064697Y51199143D02*
X97251897Y51199143D01*
X97368011Y51126572D01*
X97445421Y51054000D01*
X97484125Y50981429D01*
X97600240Y51852286D02*
X97561535Y51779715D01*
X97522830Y51743429D01*
X97445421Y51707143D01*
X97406716Y51707143D01*
X97329306Y51743429D01*
X97290601Y51779715D01*
X97251897Y51852286D01*
X97251897Y51997429D01*
X97290601Y52070000D01*
X97329306Y52106286D01*
X97406716Y52142572D01*
X97445421Y52142572D01*
X97522830Y52106286D01*
X97561535Y52070000D01*
X97600240Y51997429D01*
X97600240Y51852286D01*
X97638944Y51779715D01*
X97677649Y51743429D01*
X97755059Y51707143D01*
X97909878Y51707143D01*
X97987287Y51743429D01*
X98025992Y51779715D01*
X98064697Y51852286D01*
X98064697Y51997429D01*
X98025992Y52070000D01*
X97987287Y52106286D01*
X97909878Y52142572D01*
X97755059Y52142572D01*
X97677649Y52106286D01*
X97638944Y52070000D01*
X97600240Y51997429D01*
X84981143Y41873715D02*
X84944858Y41835010D01*
X84836000Y41796305D01*
X84763429Y41796305D01*
X84654572Y41835010D01*
X84582000Y41912420D01*
X84545715Y41989829D01*
X84509429Y42144648D01*
X84509429Y42260762D01*
X84545715Y42415581D01*
X84582000Y42492991D01*
X84654572Y42570400D01*
X84763429Y42609105D01*
X84836000Y42609105D01*
X84944858Y42570400D01*
X84981143Y42531696D01*
X85706858Y41796305D02*
X85271429Y41796305D01*
X85489143Y41796305D02*
X85489143Y42609105D01*
X85416572Y42492991D01*
X85344000Y42415581D01*
X85271429Y42376877D01*
X86396286Y42609105D02*
X86033429Y42609105D01*
X85997143Y42222058D01*
X86033429Y42260762D01*
X86106000Y42299467D01*
X86287429Y42299467D01*
X86360000Y42260762D01*
X86396286Y42222058D01*
X86432572Y42144648D01*
X86432572Y41951124D01*
X86396286Y41873715D01*
X86360000Y41835010D01*
X86287429Y41796305D01*
X86106000Y41796305D01*
X86033429Y41835010D01*
X85997143Y41873715D01*
X77869143Y38317715D02*
X77832858Y38279010D01*
X77724000Y38240305D01*
X77651429Y38240305D01*
X77542572Y38279010D01*
X77470000Y38356420D01*
X77433715Y38433829D01*
X77397429Y38588648D01*
X77397429Y38704762D01*
X77433715Y38859581D01*
X77470000Y38936991D01*
X77542572Y39014400D01*
X77651429Y39053105D01*
X77724000Y39053105D01*
X77832858Y39014400D01*
X77869143Y38975696D01*
X78594858Y38240305D02*
X78159429Y38240305D01*
X78377143Y38240305D02*
X78377143Y39053105D01*
X78304572Y38936991D01*
X78232000Y38859581D01*
X78159429Y38820877D01*
X79248000Y38782172D02*
X79248000Y38240305D01*
X79066572Y39091810D02*
X78885143Y38511239D01*
X79356858Y38511239D01*
X73374144Y41493715D02*
X73337859Y41455010D01*
X73229001Y41416305D01*
X73156430Y41416305D01*
X73047573Y41455010D01*
X72975001Y41532420D01*
X72938716Y41609829D01*
X72902430Y41764648D01*
X72902430Y41880762D01*
X72938716Y42035581D01*
X72975001Y42112991D01*
X73047573Y42190400D01*
X73156430Y42229105D01*
X73229001Y42229105D01*
X73337859Y42190400D01*
X73374144Y42151696D01*
X74099859Y41416305D02*
X73664430Y41416305D01*
X73882144Y41416305D02*
X73882144Y42229105D01*
X73809573Y42112991D01*
X73737001Y42035581D01*
X73664430Y41996877D01*
X74353859Y42229105D02*
X74825573Y42229105D01*
X74571573Y41919467D01*
X74680430Y41919467D01*
X74753001Y41880762D01*
X74789287Y41842058D01*
X74825573Y41764648D01*
X74825573Y41571124D01*
X74789287Y41493715D01*
X74753001Y41455010D01*
X74680430Y41416305D01*
X74462716Y41416305D01*
X74390144Y41455010D01*
X74353859Y41493715D01*
X73374144Y39173715D02*
X73337859Y39135010D01*
X73229001Y39096305D01*
X73156430Y39096305D01*
X73047573Y39135010D01*
X72975001Y39212420D01*
X72938716Y39289829D01*
X72902430Y39444648D01*
X72902430Y39560762D01*
X72938716Y39715581D01*
X72975001Y39792991D01*
X73047573Y39870400D01*
X73156430Y39909105D01*
X73229001Y39909105D01*
X73337859Y39870400D01*
X73374144Y39831696D01*
X74099859Y39096305D02*
X73664430Y39096305D01*
X73882144Y39096305D02*
X73882144Y39909105D01*
X73809573Y39792991D01*
X73737001Y39715581D01*
X73664430Y39676877D01*
X74390144Y39831696D02*
X74426430Y39870400D01*
X74499001Y39909105D01*
X74680430Y39909105D01*
X74753001Y39870400D01*
X74789287Y39831696D01*
X74825573Y39754286D01*
X74825573Y39676877D01*
X74789287Y39560762D01*
X74353859Y39096305D01*
X74825573Y39096305D01*
X69233143Y34888715D02*
X69196858Y34850010D01*
X69088000Y34811305D01*
X69015429Y34811305D01*
X68906572Y34850010D01*
X68834000Y34927420D01*
X68797715Y35004829D01*
X68761429Y35159648D01*
X68761429Y35275762D01*
X68797715Y35430581D01*
X68834000Y35507991D01*
X68906572Y35585400D01*
X69015429Y35624105D01*
X69088000Y35624105D01*
X69196858Y35585400D01*
X69233143Y35546696D01*
X69958858Y34811305D02*
X69523429Y34811305D01*
X69741143Y34811305D02*
X69741143Y35624105D01*
X69668572Y35507991D01*
X69596000Y35430581D01*
X69523429Y35391877D01*
X70684572Y34811305D02*
X70249143Y34811305D01*
X70466858Y34811305D02*
X70466858Y35624105D01*
X70394286Y35507991D01*
X70321715Y35430581D01*
X70249143Y35391877D01*
X64280143Y38444715D02*
X64243858Y38406010D01*
X64135000Y38367305D01*
X64062429Y38367305D01*
X63953572Y38406010D01*
X63881000Y38483420D01*
X63844715Y38560829D01*
X63808429Y38715648D01*
X63808429Y38831762D01*
X63844715Y38986581D01*
X63881000Y39063991D01*
X63953572Y39141400D01*
X64062429Y39180105D01*
X64135000Y39180105D01*
X64243858Y39141400D01*
X64280143Y39102696D01*
X65005858Y38367305D02*
X64570429Y38367305D01*
X64788143Y38367305D02*
X64788143Y39180105D01*
X64715572Y39063991D01*
X64643000Y38986581D01*
X64570429Y38947877D01*
X65477572Y39180105D02*
X65550143Y39180105D01*
X65622715Y39141400D01*
X65659000Y39102696D01*
X65695286Y39025286D01*
X65731572Y38870467D01*
X65731572Y38676943D01*
X65695286Y38522124D01*
X65659000Y38444715D01*
X65622715Y38406010D01*
X65550143Y38367305D01*
X65477572Y38367305D01*
X65405000Y38406010D01*
X65368715Y38444715D01*
X65332429Y38522124D01*
X65296143Y38676943D01*
X65296143Y38870467D01*
X65332429Y39025286D01*
X65368715Y39102696D01*
X65405000Y39141400D01*
X65477572Y39180105D01*
X83185000Y7179714D02*
X83148715Y7141009D01*
X83039858Y7102304D01*
X82967286Y7102304D01*
X82858429Y7141009D01*
X82785858Y7218419D01*
X82749572Y7295828D01*
X82713286Y7450647D01*
X82713286Y7566761D01*
X82749572Y7721580D01*
X82785858Y7798990D01*
X82858429Y7876399D01*
X82967286Y7915104D01*
X83039858Y7915104D01*
X83148715Y7876399D01*
X83185000Y7837695D01*
X83547858Y7102304D02*
X83693000Y7102304D01*
X83765572Y7141009D01*
X83801858Y7179714D01*
X83874429Y7295828D01*
X83910715Y7450647D01*
X83910715Y7760285D01*
X83874429Y7837695D01*
X83838143Y7876399D01*
X83765572Y7915104D01*
X83620429Y7915104D01*
X83547858Y7876399D01*
X83511572Y7837695D01*
X83475286Y7760285D01*
X83475286Y7566761D01*
X83511572Y7489352D01*
X83547858Y7450647D01*
X83620429Y7411942D01*
X83765572Y7411942D01*
X83838143Y7450647D01*
X83874429Y7489352D01*
X83910715Y7566761D01*
X90551000Y7179714D02*
X90514715Y7141009D01*
X90405858Y7102304D01*
X90333286Y7102304D01*
X90224429Y7141009D01*
X90151858Y7218419D01*
X90115572Y7295828D01*
X90079286Y7450647D01*
X90079286Y7566761D01*
X90115572Y7721580D01*
X90151858Y7798990D01*
X90224429Y7876399D01*
X90333286Y7915104D01*
X90405858Y7915104D01*
X90514715Y7876399D01*
X90551000Y7837695D01*
X90986429Y7566761D02*
X90913858Y7605466D01*
X90877572Y7644171D01*
X90841286Y7721580D01*
X90841286Y7760285D01*
X90877572Y7837695D01*
X90913858Y7876399D01*
X90986429Y7915104D01*
X91131572Y7915104D01*
X91204143Y7876399D01*
X91240429Y7837695D01*
X91276715Y7760285D01*
X91276715Y7721580D01*
X91240429Y7644171D01*
X91204143Y7605466D01*
X91131572Y7566761D01*
X90986429Y7566761D01*
X90913858Y7528057D01*
X90877572Y7489352D01*
X90841286Y7411942D01*
X90841286Y7257123D01*
X90877572Y7179714D01*
X90913858Y7141009D01*
X90986429Y7102304D01*
X91131572Y7102304D01*
X91204143Y7141009D01*
X91240429Y7179714D01*
X91276715Y7257123D01*
X91276715Y7411942D01*
X91240429Y7489352D01*
X91204143Y7528057D01*
X91131572Y7566761D01*
X104013000Y28717715D02*
X103976715Y28679010D01*
X103867858Y28640305D01*
X103795286Y28640305D01*
X103686429Y28679010D01*
X103613858Y28756420D01*
X103577572Y28833829D01*
X103541286Y28988648D01*
X103541286Y29104762D01*
X103577572Y29259581D01*
X103613858Y29336991D01*
X103686429Y29414400D01*
X103795286Y29453105D01*
X103867858Y29453105D01*
X103976715Y29414400D01*
X104013000Y29375696D01*
X104267000Y29453105D02*
X104775000Y29453105D01*
X104448429Y28640305D01*
M02*
