M48
; DRILL file {KiCad (5.1.5)-3} date 3/6/2020 1:27:14 AM
; FORMAT={-:-/ absolute / inch / decimal}
; #@! TF.CreationDate,2020-03-06T01:27:14-08:00
; #@! TF.GenerationSoftware,Kicad,Pcbnew,(5.1.5)-3
FMAT,2
INCH
T1C0.0079
T2C0.0120
T3C0.0150
T4C0.0181
T5C0.0200
T6C0.0250
T7C0.0354
T8C0.0394
T9C0.0420
T10C0.0620
T11C0.0700
T12C0.1260
T13C0.1560
%
G90
G05
T1
X3.2863Y2.5087
X3.2863Y2.4694
X3.2863Y2.43
X3.2863Y2.3906
X3.2863Y2.3513
X3.3256Y2.5087
X3.3256Y2.4694
X3.3256Y2.43
X3.3256Y2.3906
X3.3256Y2.3513
X3.365Y2.5087
X3.365Y2.4694
X3.365Y2.43
X3.365Y2.3906
X3.365Y2.3513
X3.4044Y2.5087
X3.4044Y2.4694
X3.4044Y2.43
X3.4044Y2.3906
X3.4044Y2.3513
X3.4437Y2.5087
X3.4437Y2.4694
X3.4437Y2.43
X3.4437Y2.3906
X3.4437Y2.3513
T2
X3.215Y2.814
X3.215Y2.786
T3
X0.07Y3.78
X0.07Y3.72
X0.07Y3.67
X0.07Y3.62
X0.07Y3.57
X0.07Y3.52
X0.07Y3.47
X0.07Y3.42
X0.07Y3.37
X0.07Y3.32
X0.07Y3.27
X0.07Y3.22
X0.07Y3.17
X0.07Y3.12
X0.07Y3.07
X0.07Y3.02
X0.07Y2.97
X0.07Y2.92
X0.07Y2.87
X0.07Y2.82
X0.07Y2.77
X0.07Y2.72
X0.07Y2.67
X0.07Y2.62
X0.07Y2.57
X0.07Y2.52
X0.07Y2.47
X0.07Y2.42
X0.07Y2.37
X0.07Y2.32
X0.07Y2.27
X0.07Y2.22
X0.07Y2.17
X0.07Y2.12
X0.07Y2.07
X0.07Y2.02
X0.07Y1.97
X0.07Y1.92
X0.07Y1.87
X0.07Y1.82
X0.07Y1.77
X0.07Y1.72
X0.07Y1.67
X0.07Y1.62
X0.07Y1.57
X0.07Y1.52
X0.07Y1.47
X0.07Y1.42
X0.07Y1.37
X0.07Y1.32
X0.07Y1.27
X0.07Y1.22
X0.07Y1.17
X0.07Y1.12
X0.07Y1.07
X0.07Y1.02
X0.07Y0.97
X0.07Y0.92
X0.07Y0.87
X0.07Y0.82
X0.07Y0.77
X0.07Y0.72
X0.07Y0.67
X0.07Y0.62
X0.07Y0.57
X0.07Y0.52
X0.07Y0.47
X0.07Y0.42
X0.12Y3.78
X0.12Y0.42
X0.17Y3.78
X0.17Y0.42
X0.22Y3.78
X0.22Y0.42
X0.27Y3.78
X0.32Y3.78
X0.36Y0.42
X0.37Y3.78
X0.42Y3.95
X0.42Y3.9
X0.42Y3.84
X0.42Y3.78
X0.42Y0.42
X0.42Y0.37
X0.42Y0.32
X0.42Y0.22
X0.42Y0.17
X0.42Y0.12
X0.42Y0.07
X0.47Y0.07
X0.48Y3.95
X0.52Y0.07
X0.53Y3.95
X0.57Y0.07
X0.58Y4.13
X0.58Y4.07
X0.58Y4.01
X0.58Y3.95
X0.62Y0.07
X0.67Y0.07
X0.72Y0.07
X0.77Y0.07
X0.82Y0.07
X0.87Y0.07
X0.92Y0.07
X0.97Y0.07
X1.02Y0.07
X1.07Y0.07
X1.12Y0.07
X1.125Y2.45
X1.17Y0.07
X1.22Y0.07
X1.235Y2.45
X1.25Y2.21
X1.25Y2.09
X1.27Y0.07
X1.32Y2.55
X1.32Y0.07
X1.37Y0.07
X1.42Y0.07
X1.45Y2.55
X1.47Y0.07
X1.515Y2.3
X1.52Y0.07
X1.535Y2.45
X1.57Y0.07
X1.58Y2.55
X1.62Y2.3
X1.62Y0.07
X1.625Y2.45
X1.65Y2.21
X1.65Y2.09
X1.67Y0.07
X1.685Y2.72
X1.72Y0.07
X1.745Y2.72
X1.765Y3.225
X1.78Y0.07
X1.815Y3.225
X1.84Y2.55
X1.86Y0.07
X1.865Y3.225
X1.91Y0.07
X1.915Y3.225
X1.935Y2.36
X1.935Y2.3
X1.945Y2.45
X1.96Y0.07
X1.965Y3.225
X1.98Y2.55
X2.005Y2.42
X2.01Y0.07
X2.06Y2.21
X2.06Y2.14
X2.07Y0.07
X2.14Y0.07
X2.1529Y0.7564
X2.18Y3.82
X2.18Y3.6
X2.19Y0.07
X2.22Y3.29
X2.23Y2.55
X2.235Y2.43
X2.24Y0.07
X2.2585Y0.4917
X2.2633Y0.6693
X2.27Y2.55
X2.27Y2.275
X2.275Y2.41
X2.28Y3.82
X2.28Y3.6006
X2.29Y0.07
X2.3033Y0.7693
X2.31Y2.55
X2.31Y2.275
X2.33Y3.29
X2.35Y2.55
X2.35Y2.275
X2.38Y3.82
X2.38Y3.6006
X2.39Y2.275
X2.46Y4.13
X2.478Y2.6127
X2.5Y0.58
X2.51Y4.13
X2.5119Y2.2519
X2.52Y2.65
X2.53Y0.53
X2.55Y0.58
X2.5509Y2.2375
X2.56Y4.13
X2.56Y0.48
X2.57Y2.69
X2.57Y0.63
X2.57Y0.38
X2.5761Y2.2716
X2.58Y0.53
X2.59Y0.43
X2.6Y1.75
X2.6Y0.58
X2.61Y4.13
X2.61Y0.48
X2.62Y1.7
X2.62Y0.63
X2.62Y0.38
X2.63Y0.53
X2.64Y0.43
X2.65Y1.75
X2.65Y0.58
X2.66Y4.13
X2.66Y2.55
X2.66Y0.48
X2.67Y1.7
X2.67Y0.63
X2.67Y0.38
X2.68Y1.65
X2.68Y1.58
X2.68Y0.53
X2.69Y0.43
X2.695Y1.51
X2.7Y1.75
X2.7Y0.33
X2.71Y4.13
X2.72Y1.7
X2.72Y0.63
X2.72Y0.28
X2.75Y1.75
X2.75Y0.33
X2.75Y0.23
X2.75Y0.07
X2.76Y4.13
X2.76Y2.3528
X2.77Y1.7
X2.78Y2.55
X2.78Y0.18
X2.8Y2.3528
X2.8Y1.75
X2.8Y1.51
X2.8Y0.07
X2.81Y4.13
X2.82Y1.7
X2.82Y1.65
X2.82Y1.58
X2.83Y0.18
X2.86Y4.13
X2.86Y0.07
X2.87Y1.655
X2.87Y1.56
X2.89Y0.12
X2.9Y0.23
X2.91Y4.13
X2.91Y0.18
X2.91Y0.07
X2.93Y2.1
X2.96Y4.13
X3.01Y4.13
X3.06Y4.13
X3.06Y0.24
X3.06Y0.19
X3.06Y0.14
X3.07Y1.95
X3.11Y4.13
X3.16Y4.13
X3.21Y4.13
X3.24Y1.75
X3.24Y1.65
X3.24Y1.55
X3.26Y4.13
X3.27Y1.7
X3.27Y1.6
X3.27Y0.24
X3.27Y0.14
X3.295Y1.905
X3.3Y1.75
X3.3Y1.65
X3.3Y1.55
X3.3Y0.19
X3.31Y4.13
X3.31Y4.07
X3.31Y4.01
X3.31Y3.95
X3.32Y0.24
X3.32Y0.14
X3.33Y1.7
X3.35Y0.19
X3.37Y3.95
X3.4019Y1.9619
X3.43Y3.95
X3.4692Y2.0122
X3.48Y3.95
X3.48Y3.9
X3.48Y3.85
X3.48Y3.8
X3.48Y3.75
X3.48Y3.7
X3.48Y3.65
X3.48Y3.6
X3.48Y3.55
X3.48Y3.5
X3.48Y3.45
X3.48Y3.4
X3.48Y3.35
X3.48Y3.3
X3.48Y3.25
X3.48Y3.2
X3.48Y3.15
X3.48Y3.1
X3.48Y3.05
X3.48Y3.0
X3.48Y2.95
X3.55Y0.24
X3.55Y0.19
X3.55Y0.14
X3.56Y2.165
X3.5715Y4.1037
X3.5715Y3.9897
X3.5715Y3.8757
X3.5715Y3.7617
X3.5715Y3.6477
X3.5715Y3.5337
X3.5715Y3.4197
X3.5715Y3.3057
X3.5715Y3.1917
X3.5715Y3.0777
X3.5715Y2.9637
X3.6095Y2.8877
X3.6326Y2.0941
X3.6326Y2.0341
X3.64Y1.75
X3.64Y1.7
X3.6475Y4.0657
X3.6475Y3.9517
X3.6475Y3.8377
X3.6475Y3.7237
X3.6475Y3.6097
X3.6475Y3.4957
X3.6475Y3.3817
X3.6475Y3.2677
X3.6475Y3.1537
X3.6475Y3.0397
X3.6475Y2.8117
X3.6855Y2.9637
X3.695Y1.925
X3.695Y1.865
X3.7Y1.65
X3.71Y2.52
X3.7235Y4.1037
X3.7235Y3.9897
X3.7235Y3.8757
X3.7235Y3.7617
X3.7235Y3.6477
X3.7235Y3.5337
X3.7235Y3.4197
X3.7235Y3.3057
X3.7235Y3.1917
X3.7235Y3.0777
X3.7235Y2.8877
X3.75Y1.65
X3.76Y2.52
X3.76Y2.12
X3.7615Y3.0017
X3.7615Y2.8117
X3.78Y1.75
X3.785Y1.925
X3.79Y1.7
X3.795Y1.21
X3.795Y0.97
X3.7995Y4.0657
X3.7995Y3.9517
X3.7995Y3.8377
X3.7995Y3.7237
X3.7995Y3.6097
X3.7995Y3.4957
X3.7995Y3.3817
X3.7995Y3.2677
X3.7995Y3.1537
X3.7995Y2.9257
X3.7995Y2.6217
X3.81Y2.52
X3.81Y2.47
X3.81Y2.37
X3.83Y1.75
X3.835Y2.065
X3.8375Y3.0777
X3.8375Y2.8497
X3.86Y2.47
X3.8755Y4.1037
X3.8755Y3.9897
X3.8755Y3.8757
X3.8755Y3.7617
X3.8755Y3.6477
X3.8755Y3.5337
X3.8755Y3.4197
X3.8755Y3.3057
X3.8755Y3.1917
X3.8755Y3.0017
X3.89Y2.43
X3.9135Y3.1157
X3.9135Y2.9257
X3.9135Y2.6217
X3.93Y2.11
X3.93Y1.45
X3.94Y1.7
X3.9515Y3.8377
X3.9515Y3.7237
X3.9515Y3.6097
X3.9515Y3.4957
X3.9515Y3.3817
X3.9515Y3.2677
X3.9515Y3.0397
X3.9515Y2.8497
X3.9515Y2.5457
X3.96Y2.22
X3.97Y1.75
X3.98Y1.5
X3.9895Y3.1917
X3.9895Y2.9637
X3.9895Y2.7737
X4.0Y2.11
X4.0Y1.7
X4.01Y2.32
X4.01Y2.27
X4.01Y2.22
X4.01Y2.17
X4.0275Y3.7997
X4.0275Y3.6857
X4.0275Y3.5717
X4.0275Y3.4577
X4.0275Y3.3437
X4.0275Y3.1157
X4.0275Y2.8877
X4.0275Y2.6217
X4.0275Y2.5077
X4.03Y1.75
X4.03Y1.65
X4.06Y2.27
X4.06Y2.22
X4.06Y2.17
X4.06Y2.12
X4.0655Y3.8757
X4.0655Y3.2677
X4.0655Y3.0397
X4.0655Y2.8117
X4.0655Y2.4317
X4.085Y1.595
X4.085Y1.525
X4.1035Y3.7617
X4.1035Y3.6477
X4.1035Y3.5337
X4.1035Y3.4197
X4.1035Y3.1917
X4.1035Y2.9637
X4.1035Y2.5837
X4.1415Y2.5077
X4.1415Y2.3937
X4.1795Y2.6217
X4.1795Y2.3177
X4.1795Y2.2037
X4.1795Y2.0897
X4.1795Y1.9757
X4.1795Y1.8617
X4.2175Y2.5457
X4.2175Y2.4317
X4.2555Y3.8757
X4.2555Y3.7617
X4.2555Y3.6477
X4.2555Y3.5337
X4.2555Y3.4197
X4.2555Y3.3057
X4.2555Y3.1917
X4.2555Y3.0777
X4.2555Y2.9637
X4.2555Y2.8497
X4.2555Y2.3557
X4.2555Y2.2417
X4.2555Y2.1277
X4.2555Y2.0137
X4.2555Y1.8997
X4.2935Y2.7737
X4.2935Y2.6217
X4.2935Y2.5077
X4.2935Y1.8237
X4.3315Y3.8377
X4.3315Y3.7237
X4.3315Y3.6097
X4.3315Y3.4957
X4.3315Y3.3817
X4.3315Y3.2677
X4.3315Y3.1537
X4.3315Y3.0397
X4.3315Y2.9257
X4.3315Y2.4317
X4.3315Y2.3177
X4.3315Y2.2037
X4.3315Y2.0897
X4.3315Y1.9757
X4.3695Y2.8497
X4.3695Y2.5837
X4.3695Y1.8997
X4.4075Y3.6857
X4.4075Y3.5717
X4.4075Y3.4577
X4.4075Y3.3437
X4.4075Y3.2297
X4.4075Y3.1157
X4.4075Y3.0017
X4.4075Y2.7737
X4.4075Y2.5077
X4.4075Y2.3937
X4.4075Y2.2797
X4.4075Y2.1657
X4.4075Y2.0517
X4.4075Y1.8237
X4.45Y2.595
X4.45Y2.56
T4
X4.0108Y3.9316
X4.3557Y3.9316
T5
X0.78Y2.255
X1.065Y2.67
X1.26Y2.2613
X1.44Y2.255
X1.655Y2.255
X1.845Y2.255
X2.05Y2.67
X2.07Y2.913
X2.135Y0.63
X2.1359Y0.5434
X2.1506Y2.2544
X2.18Y2.99
X2.18Y1.09
X2.2093Y0.868
X2.22Y2.84
X2.2235Y0.5867
X2.24Y0.4493
X2.2833Y1.0793
X2.3426Y0.9167
X2.41Y2.315
X2.485Y3.69
X2.615Y2.13
X2.6176Y2.2141
X2.6184Y2.264
X2.68Y1.885
X2.879Y3.0394
X2.92Y2.86
X2.965Y2.565
X3.005Y2.205
X3.04Y2.3478
X3.06Y2.205
X3.075Y3.045
X3.1Y1.86
X3.12Y2.565
X3.16Y1.56
X3.175Y3.045
X3.24Y2.07
X3.31Y1.86
X3.34Y2.043
X3.3945Y2.1605
X3.4199Y2.043
X3.45Y2.2
X3.5093Y1.9065
X3.65Y2.5
X3.68Y2.32
X3.7108Y2.2308
X3.7963Y1.4293
X3.84Y1.93
X3.85Y2.397
X3.885Y2.095
T6
X0.43Y2.19
X0.76Y3.17
X0.76Y3.03
X0.81Y3.97
X0.88Y3.17
X0.88Y3.03
X2.04Y1.8
X4.3Y1.02
T7
X2.0064Y0.2676
X2.1796Y0.2676
T8
X4.3703Y1.56
X4.3703Y1.46
X4.3703Y1.36
X4.3703Y1.26
X0.68Y4.08
X0.78Y4.08
X0.88Y4.08
X0.98Y4.08
X1.08Y4.08
X1.18Y4.08
X1.28Y4.08
X1.38Y4.08
X1.48Y4.08
X1.58Y4.08
X1.68Y4.08
X1.78Y4.08
X1.88Y4.08
X1.98Y4.08
X2.08Y4.08
X2.18Y4.08
X2.28Y4.08
X2.38Y4.08
T9
X0.35Y2.56
X0.35Y2.26
T10
X3.52Y1.72
X3.6233Y0.8193
X2.45Y1.72
X3.6233Y1.2993
X3.71Y1.72
X3.6233Y1.0593
X2.23Y1.47
X3.06Y1.72
X2.23Y1.72
T11
X2.4873Y1.1677
X2.4873Y0.9867
X2.4873Y0.8057
X2.7593Y1.1677
X2.7593Y0.9867
X2.7593Y0.8057
X3.9201Y0.6823
X4.0761Y0.6823
X4.2321Y0.6823
T12
X0.4635Y4.0603
X0.4635Y2.8398
X3.4162Y4.0603
X3.4162Y2.8398
T13
X0.2Y4.0
X4.6Y4.0
X2.3Y2.0
X0.7Y2.0
X0.2Y0.2
X4.6Y0.2
T0
M30
